%TF.GenerationSoftware,KiCad,Pcbnew,8.0.7*%
%TF.CreationDate,2025-07-22T20:11:00+09:00*%
%TF.ProjectId,Arduino magnetic gate,41726475-696e-46f2-906d-61676e657469,rev?*%
%TF.SameCoordinates,Original*%
%TF.FileFunction,Copper,L1,Top*%
%TF.FilePolarity,Positive*%
%FSLAX46Y46*%
G04 Gerber Fmt 4.6, Leading zero omitted, Abs format (unit mm)*
G04 Created by KiCad (PCBNEW 8.0.7) date 2025-07-22 20:11:00*
%MOMM*%
%LPD*%
G01*
G04 APERTURE LIST*
G04 Aperture macros list*
%AMRoundRect*
0 Rectangle with rounded corners*
0 $1 Rounding radius*
0 $2 $3 $4 $5 $6 $7 $8 $9 X,Y pos of 4 corners*
0 Add a 4 corners polygon primitive as box body*
4,1,4,$2,$3,$4,$5,$6,$7,$8,$9,$2,$3,0*
0 Add four circle primitives for the rounded corners*
1,1,$1+$1,$2,$3*
1,1,$1+$1,$4,$5*
1,1,$1+$1,$6,$7*
1,1,$1+$1,$8,$9*
0 Add four rect primitives between the rounded corners*
20,1,$1+$1,$2,$3,$4,$5,0*
20,1,$1+$1,$4,$5,$6,$7,0*
20,1,$1+$1,$6,$7,$8,$9,0*
20,1,$1+$1,$8,$9,$2,$3,0*%
G04 Aperture macros list end*
%TA.AperFunction,ComponentPad*%
%ADD10R,1.905000X2.000000*%
%TD*%
%TA.AperFunction,ComponentPad*%
%ADD11O,1.905000X2.000000*%
%TD*%
%TA.AperFunction,ComponentPad*%
%ADD12O,1.700000X1.950000*%
%TD*%
%TA.AperFunction,ComponentPad*%
%ADD13RoundRect,0.250000X-0.600000X-0.725000X0.600000X-0.725000X0.600000X0.725000X-0.600000X0.725000X0*%
%TD*%
%TA.AperFunction,ComponentPad*%
%ADD14R,2.400000X2.400000*%
%TD*%
%TA.AperFunction,ComponentPad*%
%ADD15C,2.400000*%
%TD*%
%TA.AperFunction,ComponentPad*%
%ADD16O,2.200000X2.200000*%
%TD*%
%TA.AperFunction,ComponentPad*%
%ADD17R,2.200000X2.200000*%
%TD*%
%TA.AperFunction,ComponentPad*%
%ADD18R,1.600000X1.600000*%
%TD*%
%TA.AperFunction,ComponentPad*%
%ADD19C,1.600000*%
%TD*%
%TA.AperFunction,ComponentPad*%
%ADD20R,2.400000X1.600000*%
%TD*%
%TA.AperFunction,ComponentPad*%
%ADD21O,2.400000X1.600000*%
%TD*%
%TA.AperFunction,ComponentPad*%
%ADD22O,1.600000X1.600000*%
%TD*%
%TA.AperFunction,ViaPad*%
%ADD23C,5.000000*%
%TD*%
%TA.AperFunction,Conductor*%
%ADD24C,0.609600*%
%TD*%
%TA.AperFunction,Conductor*%
%ADD25C,0.304800*%
%TD*%
G04 APERTURE END LIST*
D10*
%TO.P,Q2,1,G*%
%TO.N,Net-(Q2-G)*%
X207391000Y-103057600D03*
D11*
%TO.P,Q2,2,D*%
%TO.N,Coil*%
X209931000Y-103057600D03*
%TO.P,Q2,3,S*%
%TO.N,GND*%
X212471000Y-103057600D03*
%TD*%
D12*
%TO.P,J2,4,Pin_4*%
%TO.N,Net-(A1-SDA{slash}A4)*%
X192074800Y-127787400D03*
%TO.P,J2,3,Pin_3*%
%TO.N,Net-(A1-SCL{slash}A5)*%
X189574800Y-127787400D03*
%TO.P,J2,2,Pin_2*%
%TO.N,+5V*%
X187074800Y-127787400D03*
D13*
%TO.P,J2,1,Pin_1*%
%TO.N,GND2*%
X184574800Y-127787400D03*
%TD*%
D14*
%TO.P,J1,1,Pin_1*%
%TO.N,GND*%
X208041600Y-127685800D03*
D15*
%TO.P,J1,2,Pin_2*%
%TO.N,Net-(D2-A)*%
X211541600Y-127685800D03*
%TO.P,J1,3,Pin_3*%
%TO.N,Coil*%
X215041600Y-127685800D03*
%TO.P,J1,4,Pin_4*%
%TO.N,+12C*%
X218541600Y-127685800D03*
%TD*%
D16*
%TO.P,D2,2,A*%
%TO.N,Net-(D2-A)*%
X204089000Y-114274600D03*
D17*
%TO.P,D2,1,K*%
%TO.N,+12C*%
X214249000Y-114274600D03*
%TD*%
D18*
%TO.P,C1,1*%
%TO.N,+12C*%
X222504000Y-112928400D03*
D19*
%TO.P,C1,2*%
%TO.N,GND*%
X222504000Y-110428400D03*
%TD*%
D20*
%TO.P,U1,1*%
%TO.N,Net-(R1-Pad1)*%
X194274200Y-106431000D03*
D21*
%TO.P,U1,2*%
%TO.N,GND2*%
X194274200Y-103891000D03*
%TO.P,U1,3*%
%TO.N,GND*%
X186654200Y-103891000D03*
%TO.P,U1,4*%
%TO.N,Net-(Q2-G)*%
X186654200Y-106431000D03*
%TD*%
D19*
%TO.P,R2,1*%
%TO.N,Net-(Q2-G)*%
X186639200Y-99237800D03*
D22*
%TO.P,R2,2*%
%TO.N,+12C*%
X194259200Y-99237800D03*
%TD*%
D19*
%TO.P,R1,1*%
%TO.N,Net-(R1-Pad1)*%
X193852800Y-110794800D03*
D22*
%TO.P,R1,2*%
%TO.N,Net-(A1-D7)*%
X186232800Y-110794800D03*
%TD*%
D17*
%TO.P,D1,1,K*%
%TO.N,Coil*%
X204190600Y-109372400D03*
D16*
%TO.P,D1,2,A*%
%TO.N,GND*%
X214350600Y-109372400D03*
%TD*%
D18*
%TO.P,A1,1,D1/TX*%
%TO.N,unconnected-(A1-D1{slash}TX-Pad1)*%
X161731800Y-92278200D03*
D22*
%TO.P,A1,2,D0/RX*%
%TO.N,unconnected-(A1-D0{slash}RX-Pad2)*%
X161731800Y-94818200D03*
%TO.P,A1,3,~{RESET}*%
%TO.N,unconnected-(A1-~{RESET}-Pad3)*%
X161731800Y-97358200D03*
%TO.P,A1,4,GND*%
%TO.N,GND2*%
X161731800Y-99898200D03*
%TO.P,A1,5,D2*%
%TO.N,unconnected-(A1-D2-Pad5)*%
X161731800Y-102438200D03*
%TO.P,A1,6,D3*%
%TO.N,unconnected-(A1-D3-Pad6)*%
X161731800Y-104978200D03*
%TO.P,A1,7,D4*%
%TO.N,unconnected-(A1-D4-Pad7)*%
X161731800Y-107518200D03*
%TO.P,A1,8,D5*%
%TO.N,unconnected-(A1-D5-Pad8)*%
X161731800Y-110058200D03*
%TO.P,A1,9,D6*%
%TO.N,unconnected-(A1-D6-Pad9)*%
X161731800Y-112598200D03*
%TO.P,A1,10,D7*%
%TO.N,Net-(A1-D7)*%
X161731800Y-115138200D03*
%TO.P,A1,11,D8*%
%TO.N,unconnected-(A1-D8-Pad11)*%
X161731800Y-117678200D03*
%TO.P,A1,12,D9*%
%TO.N,unconnected-(A1-D9-Pad12)*%
X161731800Y-120218200D03*
%TO.P,A1,13,D10/CS*%
%TO.N,unconnected-(A1-D10{slash}CS-Pad13)*%
X161731800Y-122758200D03*
%TO.P,A1,14,D11/COPI*%
%TO.N,unconnected-(A1-D11{slash}COPI-Pad14)*%
X161731800Y-125298200D03*
%TO.P,A1,15,D12/CIPO*%
%TO.N,unconnected-(A1-D12{slash}CIPO-Pad15)*%
X161731800Y-127838200D03*
%TO.P,A1,16,D13/SCK*%
%TO.N,unconnected-(A1-D13{slash}SCK-Pad16)*%
X176971800Y-127838200D03*
%TO.P,A1,17,3V3*%
%TO.N,unconnected-(A1-3V3-Pad17)*%
X176971800Y-125298200D03*
%TO.P,A1,18,REF*%
%TO.N,unconnected-(A1-REF-Pad18)*%
X176971800Y-122758200D03*
%TO.P,A1,19,A0*%
%TO.N,unconnected-(A1-A0-Pad19)*%
X176971800Y-120218200D03*
%TO.P,A1,20,A1*%
%TO.N,unconnected-(A1-A1-Pad20)*%
X176971800Y-117678200D03*
%TO.P,A1,21,A2*%
%TO.N,unconnected-(A1-A2-Pad21)*%
X176971800Y-115138200D03*
%TO.P,A1,22,A3*%
%TO.N,unconnected-(A1-A3-Pad22)*%
X176971800Y-112598200D03*
%TO.P,A1,23,SDA/A4*%
%TO.N,Net-(A1-SDA{slash}A4)*%
X176971800Y-110058200D03*
%TO.P,A1,24,SCL/A5*%
%TO.N,Net-(A1-SCL{slash}A5)*%
X176971800Y-107518200D03*
%TO.P,A1,25,A6*%
%TO.N,unconnected-(A1-A6-Pad25)*%
X176971800Y-104978200D03*
%TO.P,A1,26,A7*%
%TO.N,unconnected-(A1-A7-Pad26)*%
X176971800Y-102438200D03*
%TO.P,A1,27,VUSB/5V*%
%TO.N,+5V*%
X176971800Y-99898200D03*
%TO.P,A1,28,REC*%
%TO.N,unconnected-(A1-REC-Pad28)*%
X176971800Y-97358200D03*
%TO.P,A1,29,GND*%
%TO.N,GND2*%
X176971800Y-94818200D03*
%TO.P,A1,30,VIN*%
%TO.N,unconnected-(A1-VIN-Pad30)*%
X176971800Y-92278200D03*
%TD*%
D23*
%TO.N,*%
X181356000Y-85293200D03*
X223824800Y-86131400D03*
X224003800Y-127877500D03*
%TD*%
D24*
%TO.N,+5V*%
X172466000Y-99898200D02*
X176971800Y-99898200D01*
X171069000Y-128905000D02*
X171069000Y-101295200D01*
X181178200Y-129362200D02*
X180187600Y-130352800D01*
X171069000Y-101295200D02*
X172466000Y-99898200D01*
X181178200Y-124663200D02*
X181178200Y-129362200D01*
X180187600Y-130352800D02*
X172516800Y-130352800D01*
X182448200Y-123393200D02*
X181178200Y-124663200D01*
X185750200Y-123393200D02*
X182448200Y-123393200D01*
X187074800Y-124717800D02*
X185750200Y-123393200D01*
X187074800Y-127787400D02*
X187074800Y-124717800D01*
X172516800Y-130352800D02*
X171069000Y-128905000D01*
%TO.N,GND2*%
X189001400Y-112928400D02*
X189052200Y-112877600D01*
X189001400Y-114249200D02*
X189001400Y-112928400D01*
X189941200Y-115189000D02*
X189001400Y-114249200D01*
X189052200Y-112877600D02*
X189052200Y-108559600D01*
X193243200Y-115189000D02*
X189941200Y-115189000D01*
X195503800Y-117449600D02*
X193243200Y-115189000D01*
X195503800Y-128270000D02*
X195503800Y-117449600D01*
X193192400Y-130581400D02*
X195503800Y-128270000D01*
X185115200Y-130581400D02*
X193192400Y-130581400D01*
X184574800Y-130041000D02*
X185115200Y-130581400D01*
X184574800Y-127787400D02*
X184574800Y-130041000D01*
X189052200Y-108559600D02*
X190017400Y-108559600D01*
X186105800Y-108559600D02*
X189052200Y-108559600D01*
X192120600Y-103891000D02*
X194274200Y-103891000D01*
X191135000Y-104876600D02*
X192120600Y-103891000D01*
X190017400Y-108559600D02*
X191135000Y-107442000D01*
X191135000Y-107442000D02*
X191135000Y-104876600D01*
X180975000Y-103428800D02*
X186105800Y-108559600D01*
X180975000Y-98821400D02*
X180975000Y-103428800D01*
X176971800Y-94818200D02*
X180975000Y-98821400D01*
X165455600Y-99898200D02*
X161731800Y-99898200D01*
X170535600Y-94818200D02*
X165455600Y-99898200D01*
X176971800Y-94818200D02*
X170535600Y-94818200D01*
%TO.N,+12C*%
X197840600Y-99237800D02*
X194259200Y-99237800D01*
X198932800Y-100330000D02*
X197840600Y-99237800D01*
X198932800Y-116636800D02*
X198932800Y-100330000D01*
X213487000Y-118922800D02*
X201218800Y-118922800D01*
X201218800Y-118922800D02*
X198932800Y-116636800D01*
X214249000Y-118160800D02*
X213487000Y-118922800D01*
X214249000Y-114274600D02*
X214249000Y-118160800D01*
D25*
%TO.N,Net-(A1-SDA{slash}A4)*%
X191135000Y-118008400D02*
X192074800Y-118948200D01*
X189788800Y-118033800D02*
X189814200Y-118008400D01*
X183997600Y-117373400D02*
X184658000Y-118033800D01*
X189814200Y-118008400D02*
X191135000Y-118008400D01*
X183997600Y-108280200D02*
X183997600Y-117373400D01*
X184658000Y-118033800D02*
X189788800Y-118033800D01*
X192074800Y-118948200D02*
X192074800Y-127787400D01*
X174472600Y-107238800D02*
X175437800Y-106273600D01*
X175310800Y-110058200D02*
X174472600Y-109220000D01*
X174472600Y-109220000D02*
X174472600Y-107238800D01*
X176971800Y-110058200D02*
X175310800Y-110058200D01*
X175437800Y-106273600D02*
X181991000Y-106273600D01*
X181991000Y-106273600D02*
X183997600Y-108280200D01*
%TO.N,Net-(A1-SCL{slash}A5)*%
X189574800Y-120461400D02*
X189574800Y-127787400D01*
X188823600Y-119710200D02*
X189574800Y-120461400D01*
X183413400Y-119761000D02*
X188772800Y-119761000D01*
X182422800Y-108991400D02*
X182422800Y-118770400D01*
X180949600Y-107518200D02*
X182422800Y-108991400D01*
X188772800Y-119761000D02*
X188823600Y-119710200D01*
X176971800Y-107518200D02*
X180949600Y-107518200D01*
X182422800Y-118770400D02*
X183413400Y-119761000D01*
%TD*%
%TA.AperFunction,Conductor*%
%TO.N,GND2*%
G36*
X180376735Y-82244685D02*
G01*
X180422490Y-82297489D01*
X180432434Y-82366647D01*
X180403409Y-82430203D01*
X180352106Y-82465522D01*
X180165547Y-82533423D01*
X180165541Y-82533426D01*
X179853203Y-82690288D01*
X179561194Y-82882346D01*
X179561186Y-82882352D01*
X179293442Y-83107017D01*
X179293440Y-83107019D01*
X179053589Y-83361244D01*
X179053584Y-83361250D01*
X178844870Y-83641602D01*
X178670113Y-83944291D01*
X178670107Y-83944304D01*
X178531674Y-84265227D01*
X178431430Y-84600065D01*
X178431428Y-84600072D01*
X178370739Y-84944261D01*
X178370738Y-84944272D01*
X178350415Y-85293196D01*
X178350415Y-85293203D01*
X178370738Y-85642127D01*
X178370739Y-85642138D01*
X178431428Y-85986327D01*
X178431430Y-85986334D01*
X178531674Y-86321172D01*
X178670107Y-86642095D01*
X178670113Y-86642108D01*
X178844870Y-86944797D01*
X179053584Y-87225149D01*
X179053589Y-87225155D01*
X179109390Y-87284300D01*
X179293442Y-87479383D01*
X179469903Y-87627451D01*
X179561186Y-87704047D01*
X179561194Y-87704053D01*
X179853203Y-87896111D01*
X179853207Y-87896113D01*
X180165549Y-88052977D01*
X180493989Y-88172519D01*
X180834086Y-88253123D01*
X181181241Y-88293700D01*
X181181248Y-88293700D01*
X181530752Y-88293700D01*
X181530759Y-88293700D01*
X181877914Y-88253123D01*
X182218011Y-88172519D01*
X182546451Y-88052977D01*
X182858793Y-87896113D01*
X183127380Y-87719460D01*
X183150805Y-87704053D01*
X183150805Y-87704052D01*
X183150811Y-87704049D01*
X183418558Y-87479383D01*
X183658412Y-87225153D01*
X183867130Y-86944796D01*
X184041889Y-86642104D01*
X184180326Y-86321171D01*
X184196702Y-86266472D01*
X207930500Y-86266472D01*
X207930500Y-86528727D01*
X207945428Y-86642108D01*
X207964730Y-86788716D01*
X208006552Y-86944797D01*
X208032602Y-87042018D01*
X208032605Y-87042028D01*
X208132953Y-87284290D01*
X208132958Y-87284300D01*
X208264075Y-87511403D01*
X208423718Y-87719451D01*
X208423726Y-87719460D01*
X208609140Y-87904874D01*
X208609148Y-87904881D01*
X208817196Y-88064524D01*
X209044299Y-88195641D01*
X209044309Y-88195646D01*
X209281033Y-88293700D01*
X209286581Y-88295998D01*
X209539884Y-88363870D01*
X209799880Y-88398100D01*
X209799887Y-88398100D01*
X210062113Y-88398100D01*
X210062120Y-88398100D01*
X210322116Y-88363870D01*
X210575419Y-88295998D01*
X210817697Y-88195643D01*
X211044803Y-88064524D01*
X211252851Y-87904882D01*
X211252855Y-87904877D01*
X211252860Y-87904874D01*
X211438274Y-87719460D01*
X211438277Y-87719455D01*
X211438282Y-87719451D01*
X211597924Y-87511403D01*
X211729043Y-87284297D01*
X211829398Y-87042019D01*
X211897270Y-86788716D01*
X211931500Y-86528720D01*
X211931500Y-86266480D01*
X211913715Y-86131396D01*
X220819215Y-86131396D01*
X220819215Y-86131403D01*
X220839538Y-86480327D01*
X220839539Y-86480338D01*
X220900228Y-86824527D01*
X220900230Y-86824534D01*
X221000474Y-87159372D01*
X221138907Y-87480295D01*
X221138913Y-87480308D01*
X221313670Y-87782997D01*
X221522384Y-88063349D01*
X221522389Y-88063355D01*
X221625380Y-88172518D01*
X221762242Y-88317583D01*
X221858199Y-88398100D01*
X222029986Y-88542247D01*
X222029994Y-88542253D01*
X222322003Y-88734311D01*
X222322007Y-88734313D01*
X222634349Y-88891177D01*
X222962789Y-89010719D01*
X223302886Y-89091323D01*
X223650041Y-89131900D01*
X223650048Y-89131900D01*
X223999552Y-89131900D01*
X223999559Y-89131900D01*
X224346714Y-89091323D01*
X224686811Y-89010719D01*
X225015251Y-88891177D01*
X225327593Y-88734313D01*
X225619611Y-88542249D01*
X225887358Y-88317583D01*
X226127212Y-88063353D01*
X226335930Y-87782996D01*
X226510689Y-87480304D01*
X226649126Y-87159371D01*
X226749369Y-86824536D01*
X226755686Y-86788714D01*
X226810060Y-86480338D01*
X226810059Y-86480338D01*
X226810062Y-86480327D01*
X226830385Y-86131400D01*
X226810062Y-85782473D01*
X226804895Y-85753171D01*
X226749371Y-85438272D01*
X226749369Y-85438265D01*
X226749369Y-85438264D01*
X226649126Y-85103429D01*
X226510689Y-84782496D01*
X226347131Y-84499205D01*
X226335929Y-84479802D01*
X226127215Y-84199450D01*
X226127210Y-84199444D01*
X226011233Y-84076517D01*
X225887358Y-83945217D01*
X225739288Y-83820972D01*
X225619613Y-83720552D01*
X225619605Y-83720546D01*
X225327596Y-83528488D01*
X225015258Y-83371626D01*
X225015252Y-83371623D01*
X224686812Y-83252081D01*
X224686809Y-83252080D01*
X224346715Y-83171477D01*
X224303319Y-83166404D01*
X223999559Y-83130900D01*
X223650041Y-83130900D01*
X223346280Y-83166404D01*
X223302885Y-83171477D01*
X223302883Y-83171477D01*
X222962790Y-83252080D01*
X222962787Y-83252081D01*
X222634347Y-83371623D01*
X222634341Y-83371626D01*
X222322003Y-83528488D01*
X222029994Y-83720546D01*
X222029986Y-83720552D01*
X221762242Y-83945217D01*
X221762240Y-83945219D01*
X221522389Y-84199444D01*
X221522384Y-84199450D01*
X221313670Y-84479802D01*
X221138913Y-84782491D01*
X221138907Y-84782504D01*
X221000474Y-85103427D01*
X220900230Y-85438265D01*
X220900228Y-85438272D01*
X220839539Y-85782461D01*
X220839538Y-85782472D01*
X220819215Y-86131396D01*
X211913715Y-86131396D01*
X211897270Y-86006484D01*
X211829398Y-85753181D01*
X211829394Y-85753171D01*
X211729046Y-85510909D01*
X211729041Y-85510899D01*
X211597924Y-85283796D01*
X211438281Y-85075748D01*
X211438274Y-85075740D01*
X211252860Y-84890326D01*
X211252851Y-84890318D01*
X211044803Y-84730675D01*
X210817700Y-84599558D01*
X210817690Y-84599553D01*
X210575428Y-84499205D01*
X210575421Y-84499203D01*
X210575419Y-84499202D01*
X210322116Y-84431330D01*
X210264339Y-84423723D01*
X210062127Y-84397100D01*
X210062120Y-84397100D01*
X209799880Y-84397100D01*
X209799872Y-84397100D01*
X209568772Y-84427526D01*
X209539884Y-84431330D01*
X209358983Y-84479802D01*
X209286581Y-84499202D01*
X209286571Y-84499205D01*
X209044309Y-84599553D01*
X209044299Y-84599558D01*
X208817196Y-84730675D01*
X208609148Y-84890318D01*
X208423718Y-85075748D01*
X208264075Y-85283796D01*
X208132958Y-85510899D01*
X208132953Y-85510909D01*
X208032605Y-85753171D01*
X208032602Y-85753181D01*
X208024757Y-85782461D01*
X207964730Y-86006485D01*
X207930500Y-86266472D01*
X184196702Y-86266472D01*
X184280569Y-85986336D01*
X184316518Y-85782461D01*
X184341260Y-85642138D01*
X184341259Y-85642138D01*
X184341262Y-85642127D01*
X184361585Y-85293200D01*
X184361037Y-85283797D01*
X184350532Y-85103429D01*
X184341262Y-84944273D01*
X184331750Y-84890326D01*
X184280571Y-84600072D01*
X184280569Y-84600065D01*
X184280569Y-84600064D01*
X184180326Y-84265229D01*
X184041889Y-83944296D01*
X183867130Y-83641604D01*
X183867129Y-83641602D01*
X183658415Y-83361250D01*
X183658410Y-83361244D01*
X183441090Y-83130900D01*
X183418558Y-83107017D01*
X183270488Y-82982772D01*
X183150813Y-82882352D01*
X183150805Y-82882346D01*
X182858796Y-82690288D01*
X182546458Y-82533426D01*
X182546452Y-82533423D01*
X182359894Y-82465522D01*
X182303630Y-82424096D01*
X182278694Y-82358827D01*
X182293004Y-82290439D01*
X182342015Y-82240643D01*
X182402304Y-82225000D01*
X227238900Y-82225000D01*
X227305939Y-82244685D01*
X227351694Y-82297489D01*
X227362900Y-82349000D01*
X227362900Y-131112600D01*
X227343215Y-131179639D01*
X227290411Y-131225394D01*
X227238900Y-131236600D01*
X180723176Y-131236600D01*
X180656137Y-131216915D01*
X180610382Y-131164111D01*
X180600438Y-131094953D01*
X180629463Y-131031397D01*
X180654286Y-131009498D01*
X180688422Y-130986687D01*
X180700949Y-130978318D01*
X180813118Y-130866149D01*
X180813119Y-130866147D01*
X180820185Y-130859081D01*
X180820188Y-130859077D01*
X181691545Y-129987720D01*
X181691549Y-129987718D01*
X181803718Y-129875549D01*
X181891848Y-129743653D01*
X181952553Y-129597097D01*
X181958992Y-129564726D01*
X181966079Y-129529097D01*
X181983501Y-129441517D01*
X181983501Y-129277775D01*
X181983500Y-129277749D01*
X181983500Y-125048128D01*
X182003185Y-124981089D01*
X182019819Y-124960447D01*
X182745447Y-124234819D01*
X182806770Y-124201334D01*
X182833128Y-124198500D01*
X185365272Y-124198500D01*
X185432311Y-124218185D01*
X185452953Y-124234819D01*
X186233181Y-125015047D01*
X186266666Y-125076370D01*
X186269500Y-125102728D01*
X186269500Y-126514993D01*
X186249815Y-126582032D01*
X186218387Y-126615310D01*
X186195010Y-126632294D01*
X186055835Y-126771469D01*
X185994512Y-126804953D01*
X185924820Y-126799969D01*
X185868887Y-126758097D01*
X185862615Y-126748884D01*
X185767115Y-126594054D01*
X185643145Y-126470084D01*
X185493924Y-126378043D01*
X185493919Y-126378041D01*
X185327497Y-126322894D01*
X185327490Y-126322893D01*
X185224786Y-126312400D01*
X184824800Y-126312400D01*
X184824800Y-127383254D01*
X184758143Y-127344770D01*
X184637335Y-127312400D01*
X184512265Y-127312400D01*
X184391457Y-127344770D01*
X184324800Y-127383254D01*
X184324800Y-126312400D01*
X183924828Y-126312400D01*
X183924812Y-126312401D01*
X183822102Y-126322894D01*
X183655680Y-126378041D01*
X183655675Y-126378043D01*
X183506454Y-126470084D01*
X183382484Y-126594054D01*
X183290443Y-126743275D01*
X183290441Y-126743280D01*
X183235294Y-126909702D01*
X183235293Y-126909709D01*
X183224800Y-127012413D01*
X183224800Y-127537400D01*
X184170654Y-127537400D01*
X184132170Y-127604057D01*
X184099800Y-127724865D01*
X184099800Y-127849935D01*
X184132170Y-127970743D01*
X184170654Y-128037400D01*
X183224801Y-128037400D01*
X183224801Y-128562386D01*
X183235294Y-128665097D01*
X183290441Y-128831519D01*
X183290443Y-128831524D01*
X183382484Y-128980745D01*
X183506454Y-129104715D01*
X183655675Y-129196756D01*
X183655680Y-129196758D01*
X183822102Y-129251905D01*
X183822109Y-129251906D01*
X183924819Y-129262399D01*
X184324799Y-129262399D01*
X184324800Y-129262398D01*
X184324800Y-128191545D01*
X184391457Y-128230030D01*
X184512265Y-128262400D01*
X184637335Y-128262400D01*
X184758143Y-128230030D01*
X184824800Y-128191545D01*
X184824800Y-129262399D01*
X185224772Y-129262399D01*
X185224786Y-129262398D01*
X185327497Y-129251905D01*
X185493919Y-129196758D01*
X185493924Y-129196756D01*
X185643145Y-129104715D01*
X185767117Y-128980743D01*
X185862615Y-128825916D01*
X185914563Y-128779191D01*
X185983525Y-128767968D01*
X186047608Y-128795812D01*
X186055835Y-128803331D01*
X186195013Y-128942509D01*
X186366979Y-129067448D01*
X186366981Y-129067449D01*
X186366984Y-129067451D01*
X186556388Y-129163957D01*
X186758557Y-129229646D01*
X186968513Y-129262900D01*
X186968514Y-129262900D01*
X187181086Y-129262900D01*
X187181087Y-129262900D01*
X187391043Y-129229646D01*
X187593212Y-129163957D01*
X187782616Y-129067451D01*
X187814466Y-129044311D01*
X187954586Y-128942509D01*
X187954588Y-128942506D01*
X187954592Y-128942504D01*
X188104904Y-128792192D01*
X188224483Y-128627604D01*
X188279811Y-128584940D01*
X188349424Y-128578961D01*
X188411220Y-128611566D01*
X188425113Y-128627599D01*
X188527096Y-128767968D01*
X188544696Y-128792192D01*
X188695013Y-128942509D01*
X188866979Y-129067448D01*
X188866981Y-129067449D01*
X188866984Y-129067451D01*
X189056388Y-129163957D01*
X189258557Y-129229646D01*
X189468513Y-129262900D01*
X189468514Y-129262900D01*
X189681086Y-129262900D01*
X189681087Y-129262900D01*
X189891043Y-129229646D01*
X190093212Y-129163957D01*
X190282616Y-129067451D01*
X190314466Y-129044311D01*
X190454586Y-128942509D01*
X190454588Y-128942506D01*
X190454592Y-128942504D01*
X190604904Y-128792192D01*
X190724483Y-128627604D01*
X190779811Y-128584940D01*
X190849424Y-128578961D01*
X190911220Y-128611566D01*
X190925113Y-128627599D01*
X191027096Y-128767968D01*
X191044696Y-128792192D01*
X191195013Y-128942509D01*
X191366979Y-129067448D01*
X191366981Y-129067449D01*
X191366984Y-129067451D01*
X191556388Y-129163957D01*
X191758557Y-129229646D01*
X191968513Y-129262900D01*
X191968514Y-129262900D01*
X192181086Y-129262900D01*
X192181087Y-129262900D01*
X192391043Y-129229646D01*
X192593212Y-129163957D01*
X192782616Y-129067451D01*
X192814466Y-129044311D01*
X192954586Y-128942509D01*
X192954588Y-128942506D01*
X192954592Y-128942504D01*
X193104904Y-128792192D01*
X193104906Y-128792188D01*
X193104909Y-128792186D01*
X193229848Y-128620220D01*
X193229847Y-128620220D01*
X193229851Y-128620216D01*
X193326357Y-128430812D01*
X193392046Y-128228643D01*
X193425300Y-128018687D01*
X193425300Y-127556113D01*
X193392046Y-127346157D01*
X193326357Y-127143988D01*
X193229851Y-126954584D01*
X193229849Y-126954581D01*
X193229848Y-126954579D01*
X193104909Y-126782613D01*
X192954590Y-126632294D01*
X192954585Y-126632290D01*
X192778815Y-126504586D01*
X192736149Y-126449256D01*
X192734023Y-126437935D01*
X206341100Y-126437935D01*
X206341100Y-128933670D01*
X206341101Y-128933676D01*
X206347508Y-128993283D01*
X206397802Y-129128128D01*
X206397806Y-129128135D01*
X206484052Y-129243344D01*
X206484055Y-129243347D01*
X206599264Y-129329593D01*
X206599271Y-129329597D01*
X206734117Y-129379891D01*
X206734116Y-129379891D01*
X206741044Y-129380635D01*
X206793727Y-129386300D01*
X209289472Y-129386299D01*
X209349083Y-129379891D01*
X209483931Y-129329596D01*
X209599146Y-129243346D01*
X209685396Y-129128131D01*
X209735691Y-128993283D01*
X209742100Y-128933673D01*
X209742099Y-128410654D01*
X209761783Y-128343618D01*
X209814587Y-128297863D01*
X209883746Y-128287919D01*
X209947302Y-128316944D01*
X209981527Y-128365353D01*
X210005207Y-128425688D01*
X210132641Y-128646412D01*
X210291550Y-128845677D01*
X210478383Y-129019032D01*
X210688966Y-129162605D01*
X210688971Y-129162607D01*
X210688972Y-129162608D01*
X210688973Y-129162609D01*
X210759881Y-129196756D01*
X210918592Y-129273187D01*
X210918593Y-129273187D01*
X210918596Y-129273189D01*
X211162142Y-129348313D01*
X211414165Y-129386300D01*
X211669035Y-129386300D01*
X211921058Y-129348313D01*
X212164604Y-129273189D01*
X212394234Y-129162605D01*
X212604817Y-129019032D01*
X212791650Y-128845677D01*
X212950559Y-128646412D01*
X213077993Y-128425688D01*
X213171108Y-128188437D01*
X213171110Y-128188424D01*
X213172478Y-128183996D01*
X213173924Y-128184442D01*
X213204813Y-128129212D01*
X213266473Y-128096352D01*
X213336110Y-128102043D01*
X213391616Y-128144480D01*
X213409792Y-128184282D01*
X213410722Y-128183996D01*
X213412090Y-128188430D01*
X213412092Y-128188437D01*
X213505207Y-128425688D01*
X213632641Y-128646412D01*
X213791550Y-128845677D01*
X213978383Y-129019032D01*
X214188966Y-129162605D01*
X214188971Y-129162607D01*
X214188972Y-129162608D01*
X214188973Y-129162609D01*
X214259881Y-129196756D01*
X214418592Y-129273187D01*
X214418593Y-129273187D01*
X214418596Y-129273189D01*
X214662142Y-129348313D01*
X214914165Y-129386300D01*
X215169035Y-129386300D01*
X215421058Y-129348313D01*
X215664604Y-129273189D01*
X215894234Y-129162605D01*
X216104817Y-129019032D01*
X216291650Y-128845677D01*
X216450559Y-128646412D01*
X216577993Y-128425688D01*
X216671108Y-128188437D01*
X216671110Y-128188424D01*
X216672478Y-128183996D01*
X216673924Y-128184442D01*
X216704813Y-128129212D01*
X216766473Y-128096352D01*
X216836110Y-128102043D01*
X216891616Y-128144480D01*
X216909792Y-128184282D01*
X216910722Y-128183996D01*
X216912090Y-128188430D01*
X216912092Y-128188437D01*
X217005207Y-128425688D01*
X217132641Y-128646412D01*
X217291550Y-128845677D01*
X217478383Y-129019032D01*
X217688966Y-129162605D01*
X217688971Y-129162607D01*
X217688972Y-129162608D01*
X217688973Y-129162609D01*
X217759881Y-129196756D01*
X217918592Y-129273187D01*
X217918593Y-129273187D01*
X217918596Y-129273189D01*
X218162142Y-129348313D01*
X218414165Y-129386300D01*
X218669035Y-129386300D01*
X218921058Y-129348313D01*
X219164604Y-129273189D01*
X219394234Y-129162605D01*
X219604817Y-129019032D01*
X219791650Y-128845677D01*
X219950559Y-128646412D01*
X220077993Y-128425688D01*
X220171108Y-128188437D01*
X220227822Y-127939957D01*
X220232503Y-127877496D01*
X220998215Y-127877496D01*
X220998215Y-127877503D01*
X221018538Y-128226427D01*
X221018539Y-128226438D01*
X221079228Y-128570627D01*
X221079230Y-128570634D01*
X221179474Y-128905472D01*
X221317907Y-129226395D01*
X221317913Y-129226408D01*
X221492670Y-129529097D01*
X221701384Y-129809449D01*
X221701389Y-129809455D01*
X221763746Y-129875549D01*
X221941242Y-130063683D01*
X222117703Y-130211751D01*
X222208986Y-130288347D01*
X222208994Y-130288353D01*
X222501003Y-130480411D01*
X222501007Y-130480413D01*
X222813349Y-130637277D01*
X223141789Y-130756819D01*
X223481886Y-130837423D01*
X223829041Y-130878000D01*
X223829048Y-130878000D01*
X224178552Y-130878000D01*
X224178559Y-130878000D01*
X224525714Y-130837423D01*
X224865811Y-130756819D01*
X225194251Y-130637277D01*
X225506593Y-130480413D01*
X225798611Y-130288349D01*
X226066358Y-130063683D01*
X226306212Y-129809453D01*
X226514930Y-129529096D01*
X226689689Y-129226404D01*
X226828126Y-128905471D01*
X226928369Y-128570636D01*
X226932638Y-128546430D01*
X226989060Y-128226438D01*
X226989059Y-128226438D01*
X226989062Y-128226427D01*
X227009385Y-127877500D01*
X227007779Y-127849935D01*
X227000495Y-127724865D01*
X226989062Y-127528573D01*
X226971971Y-127431643D01*
X226928371Y-127184372D01*
X226928369Y-127184365D01*
X226915366Y-127140932D01*
X226828126Y-126849529D01*
X226689689Y-126528596D01*
X226514930Y-126225904D01*
X226502339Y-126208991D01*
X226306215Y-125945550D01*
X226306210Y-125945544D01*
X226190233Y-125822617D01*
X226066358Y-125691317D01*
X225868013Y-125524886D01*
X225798613Y-125466652D01*
X225798605Y-125466646D01*
X225506596Y-125274588D01*
X225194258Y-125117726D01*
X225194252Y-125117723D01*
X224865812Y-124998181D01*
X224865809Y-124998180D01*
X224525715Y-124917577D01*
X224482319Y-124912504D01*
X224178559Y-124877000D01*
X223829041Y-124877000D01*
X223525280Y-124912504D01*
X223481885Y-124917577D01*
X223481883Y-124917577D01*
X223141790Y-124998180D01*
X223141787Y-124998181D01*
X222813347Y-125117723D01*
X222813341Y-125117726D01*
X222501003Y-125274588D01*
X222208994Y-125466646D01*
X222208986Y-125466652D01*
X221941242Y-125691317D01*
X221941240Y-125691319D01*
X221701389Y-125945544D01*
X221701384Y-125945550D01*
X221492670Y-126225902D01*
X221317913Y-126528591D01*
X221317907Y-126528604D01*
X221179474Y-126849527D01*
X221079230Y-127184365D01*
X221079228Y-127184372D01*
X221018539Y-127528561D01*
X221018538Y-127528572D01*
X220998215Y-127877496D01*
X220232503Y-127877496D01*
X220246868Y-127685800D01*
X220240742Y-127604057D01*
X220227822Y-127431645D01*
X220218707Y-127391711D01*
X220171108Y-127183163D01*
X220077993Y-126945912D01*
X219950559Y-126725188D01*
X219791650Y-126525923D01*
X219604817Y-126352568D01*
X219394234Y-126208995D01*
X219394230Y-126208993D01*
X219394227Y-126208991D01*
X219394226Y-126208990D01*
X219164606Y-126098412D01*
X219164608Y-126098412D01*
X218921066Y-126023289D01*
X218921062Y-126023288D01*
X218921058Y-126023287D01*
X218799831Y-126005014D01*
X218669040Y-125985300D01*
X218669035Y-125985300D01*
X218414165Y-125985300D01*
X218414159Y-125985300D01*
X218257209Y-126008957D01*
X218162142Y-126023287D01*
X218162139Y-126023288D01*
X218162133Y-126023289D01*
X217918592Y-126098412D01*
X217688973Y-126208990D01*
X217688972Y-126208991D01*
X217478382Y-126352568D01*
X217291552Y-126525921D01*
X217291550Y-126525923D01*
X217132641Y-126725188D01*
X217005208Y-126945909D01*
X216912092Y-127183162D01*
X216910722Y-127187604D01*
X216909277Y-127187158D01*
X216878380Y-127242393D01*
X216816717Y-127275249D01*
X216747080Y-127269552D01*
X216691578Y-127227111D01*
X216673405Y-127187317D01*
X216672478Y-127187604D01*
X216671109Y-127183169D01*
X216671108Y-127183163D01*
X216577993Y-126945912D01*
X216450559Y-126725188D01*
X216291650Y-126525923D01*
X216104817Y-126352568D01*
X215894234Y-126208995D01*
X215894230Y-126208993D01*
X215894227Y-126208991D01*
X215894226Y-126208990D01*
X215664606Y-126098412D01*
X215664608Y-126098412D01*
X215421066Y-126023289D01*
X215421062Y-126023288D01*
X215421058Y-126023287D01*
X215299831Y-126005014D01*
X215169040Y-125985300D01*
X215169035Y-125985300D01*
X214914165Y-125985300D01*
X214914159Y-125985300D01*
X214757209Y-126008957D01*
X214662142Y-126023287D01*
X214662139Y-126023288D01*
X214662133Y-126023289D01*
X214418592Y-126098412D01*
X214188973Y-126208990D01*
X214188972Y-126208991D01*
X213978382Y-126352568D01*
X213791552Y-126525921D01*
X213791550Y-126525923D01*
X213632641Y-126725188D01*
X213505208Y-126945909D01*
X213412092Y-127183162D01*
X213410722Y-127187604D01*
X213409277Y-127187158D01*
X213378380Y-127242393D01*
X213316717Y-127275249D01*
X213247080Y-127269552D01*
X213191578Y-127227111D01*
X213173405Y-127187317D01*
X213172478Y-127187604D01*
X213171109Y-127183169D01*
X213171108Y-127183163D01*
X213077993Y-126945912D01*
X212950559Y-126725188D01*
X212791650Y-126525923D01*
X212604817Y-126352568D01*
X212394234Y-126208995D01*
X212394230Y-126208993D01*
X212394227Y-126208991D01*
X212394226Y-126208990D01*
X212164606Y-126098412D01*
X212164608Y-126098412D01*
X211921066Y-126023289D01*
X211921062Y-126023288D01*
X211921058Y-126023287D01*
X211799831Y-126005014D01*
X211669040Y-125985300D01*
X211669035Y-125985300D01*
X211414165Y-125985300D01*
X211414159Y-125985300D01*
X211257209Y-126008957D01*
X211162142Y-126023287D01*
X211162139Y-126023288D01*
X211162133Y-126023289D01*
X210918592Y-126098412D01*
X210688973Y-126208990D01*
X210688972Y-126208991D01*
X210478382Y-126352568D01*
X210291552Y-126525921D01*
X210291550Y-126525923D01*
X210132641Y-126725188D01*
X210005208Y-126945909D01*
X209981527Y-127006247D01*
X209938710Y-127061461D01*
X209872840Y-127084761D01*
X209804830Y-127068750D01*
X209756272Y-127018511D01*
X209742099Y-126960944D01*
X209742099Y-126437929D01*
X209742098Y-126437923D01*
X209742097Y-126437916D01*
X209735691Y-126378317D01*
X209726087Y-126352568D01*
X209685397Y-126243471D01*
X209685393Y-126243464D01*
X209599147Y-126128255D01*
X209599144Y-126128252D01*
X209483935Y-126042006D01*
X209483928Y-126042002D01*
X209349082Y-125991708D01*
X209349083Y-125991708D01*
X209289483Y-125985301D01*
X209289481Y-125985300D01*
X209289473Y-125985300D01*
X209289464Y-125985300D01*
X206793729Y-125985300D01*
X206793723Y-125985301D01*
X206734116Y-125991708D01*
X206599271Y-126042002D01*
X206599264Y-126042006D01*
X206484055Y-126128252D01*
X206484052Y-126128255D01*
X206397806Y-126243464D01*
X206397802Y-126243471D01*
X206347508Y-126378317D01*
X206341101Y-126437916D01*
X206341101Y-126437923D01*
X206341100Y-126437935D01*
X192734023Y-126437935D01*
X192727700Y-126404268D01*
X192727700Y-118883892D01*
X192702610Y-118757761D01*
X192702609Y-118757760D01*
X192702609Y-118757756D01*
X192653392Y-118638936D01*
X192651570Y-118636209D01*
X192581941Y-118532001D01*
X192581939Y-118531998D01*
X192581938Y-118531997D01*
X191551205Y-117501263D01*
X191551204Y-117501262D01*
X191476748Y-117451513D01*
X191444264Y-117429808D01*
X191325444Y-117380591D01*
X191325438Y-117380589D01*
X191199307Y-117355500D01*
X191199305Y-117355500D01*
X189749895Y-117355500D01*
X189749893Y-117355500D01*
X189634181Y-117378517D01*
X189609989Y-117380900D01*
X184979802Y-117380900D01*
X184912763Y-117361215D01*
X184892121Y-117344581D01*
X184686819Y-117139278D01*
X184653334Y-117077955D01*
X184650500Y-117051597D01*
X184650500Y-110794798D01*
X184927332Y-110794798D01*
X184927332Y-110794801D01*
X184947164Y-111021486D01*
X184947166Y-111021497D01*
X185006058Y-111241288D01*
X185006061Y-111241297D01*
X185102231Y-111447532D01*
X185102232Y-111447534D01*
X185232754Y-111633941D01*
X185393658Y-111794845D01*
X185393661Y-111794847D01*
X185580066Y-111925368D01*
X185786304Y-112021539D01*
X186006108Y-112080435D01*
X186168030Y-112094601D01*
X186232798Y-112100268D01*
X186232800Y-112100268D01*
X186232802Y-112100268D01*
X186289473Y-112095309D01*
X186459492Y-112080435D01*
X186679296Y-112021539D01*
X186885534Y-111925368D01*
X187071939Y-111794847D01*
X187232847Y-111633939D01*
X187363368Y-111447534D01*
X187459539Y-111241296D01*
X187518435Y-111021492D01*
X187538268Y-110794800D01*
X187538268Y-110794798D01*
X192547332Y-110794798D01*
X192547332Y-110794801D01*
X192567164Y-111021486D01*
X192567166Y-111021497D01*
X192626058Y-111241288D01*
X192626061Y-111241297D01*
X192722231Y-111447532D01*
X192722232Y-111447534D01*
X192852754Y-111633941D01*
X193013658Y-111794845D01*
X193013661Y-111794847D01*
X193200066Y-111925368D01*
X193406304Y-112021539D01*
X193626108Y-112080435D01*
X193788030Y-112094601D01*
X193852798Y-112100268D01*
X193852800Y-112100268D01*
X193852802Y-112100268D01*
X193909473Y-112095309D01*
X194079492Y-112080435D01*
X194299296Y-112021539D01*
X194505534Y-111925368D01*
X194691939Y-111794847D01*
X194852847Y-111633939D01*
X194983368Y-111447534D01*
X195079539Y-111241296D01*
X195138435Y-111021492D01*
X195158268Y-110794800D01*
X195138435Y-110568108D01*
X195079539Y-110348304D01*
X194983368Y-110142066D01*
X194852847Y-109955661D01*
X194852845Y-109955658D01*
X194691941Y-109794754D01*
X194505534Y-109664232D01*
X194505532Y-109664231D01*
X194299297Y-109568061D01*
X194299288Y-109568058D01*
X194079497Y-109509166D01*
X194079493Y-109509165D01*
X194079492Y-109509165D01*
X194079491Y-109509164D01*
X194079486Y-109509164D01*
X193852802Y-109489332D01*
X193852798Y-109489332D01*
X193626113Y-109509164D01*
X193626102Y-109509166D01*
X193406311Y-109568058D01*
X193406302Y-109568061D01*
X193200067Y-109664231D01*
X193200065Y-109664232D01*
X193013658Y-109794754D01*
X192852754Y-109955658D01*
X192722232Y-110142065D01*
X192722231Y-110142067D01*
X192626061Y-110348302D01*
X192626058Y-110348311D01*
X192567166Y-110568102D01*
X192567164Y-110568113D01*
X192547332Y-110794798D01*
X187538268Y-110794798D01*
X187518435Y-110568108D01*
X187459539Y-110348304D01*
X187363368Y-110142066D01*
X187232847Y-109955661D01*
X187232845Y-109955658D01*
X187071941Y-109794754D01*
X186885534Y-109664232D01*
X186885532Y-109664231D01*
X186679297Y-109568061D01*
X186679288Y-109568058D01*
X186459497Y-109509166D01*
X186459493Y-109509165D01*
X186459492Y-109509165D01*
X186459491Y-109509164D01*
X186459486Y-109509164D01*
X186232802Y-109489332D01*
X186232798Y-109489332D01*
X186006113Y-109509164D01*
X186006102Y-109509166D01*
X185786311Y-109568058D01*
X185786302Y-109568061D01*
X185580067Y-109664231D01*
X185580065Y-109664232D01*
X185393658Y-109794754D01*
X185232754Y-109955658D01*
X185102232Y-110142065D01*
X185102231Y-110142067D01*
X185006061Y-110348302D01*
X185006058Y-110348311D01*
X184947166Y-110568102D01*
X184947164Y-110568113D01*
X184927332Y-110794798D01*
X184650500Y-110794798D01*
X184650500Y-108215892D01*
X184625410Y-108089761D01*
X184625409Y-108089760D01*
X184625409Y-108089756D01*
X184576192Y-107970936D01*
X184572023Y-107964696D01*
X184572023Y-107964695D01*
X184504744Y-107864005D01*
X184504738Y-107863997D01*
X182407205Y-105766463D01*
X182407204Y-105766462D01*
X182407200Y-105766459D01*
X182300264Y-105695008D01*
X182181444Y-105645791D01*
X182181438Y-105645789D01*
X182055307Y-105620700D01*
X182055305Y-105620700D01*
X178301782Y-105620700D01*
X178234743Y-105601015D01*
X178188988Y-105548211D01*
X178179044Y-105479053D01*
X178189399Y-105444297D01*
X178191856Y-105439028D01*
X178198539Y-105424696D01*
X178257435Y-105204892D01*
X178275073Y-105003284D01*
X178277268Y-104978201D01*
X178277268Y-104978198D01*
X178271236Y-104909251D01*
X178257435Y-104751508D01*
X178212716Y-104584615D01*
X178198541Y-104531711D01*
X178198538Y-104531702D01*
X178194164Y-104522321D01*
X178102368Y-104325466D01*
X177971847Y-104139061D01*
X177971845Y-104139058D01*
X177810941Y-103978154D01*
X177624534Y-103847632D01*
X177624528Y-103847629D01*
X177566525Y-103820582D01*
X177530256Y-103788648D01*
X184953700Y-103788648D01*
X184953700Y-103993351D01*
X184985722Y-104195534D01*
X185048981Y-104390223D01*
X185105628Y-104501397D01*
X185134519Y-104558099D01*
X185141915Y-104572613D01*
X185262228Y-104738213D01*
X185406986Y-104882971D01*
X185538060Y-104978200D01*
X185572590Y-105003287D01*
X185661773Y-105048728D01*
X185665280Y-105050515D01*
X185716076Y-105098490D01*
X185732871Y-105166311D01*
X185710334Y-105232446D01*
X185665280Y-105271485D01*
X185572586Y-105318715D01*
X185406986Y-105439028D01*
X185262228Y-105583786D01*
X185141915Y-105749386D01*
X185048981Y-105931776D01*
X184985722Y-106126465D01*
X184953700Y-106328648D01*
X184953700Y-106533351D01*
X184985722Y-106735534D01*
X185048981Y-106930223D01*
X185090170Y-107011059D01*
X185123696Y-107076858D01*
X185141915Y-107112613D01*
X185262228Y-107278213D01*
X185406986Y-107422971D01*
X185538060Y-107518200D01*
X185572590Y-107543287D01*
X185661412Y-107588544D01*
X185754976Y-107636218D01*
X185754978Y-107636218D01*
X185754981Y-107636220D01*
X185859337Y-107670127D01*
X185949665Y-107699477D01*
X186050757Y-107715488D01*
X186151848Y-107731500D01*
X186151849Y-107731500D01*
X187156551Y-107731500D01*
X187156552Y-107731500D01*
X187358734Y-107699477D01*
X187553419Y-107636220D01*
X187735810Y-107543287D01*
X187832661Y-107472921D01*
X187901413Y-107422971D01*
X187901415Y-107422968D01*
X187901419Y-107422966D01*
X188046166Y-107278219D01*
X188046168Y-107278215D01*
X188046171Y-107278213D01*
X188139116Y-107150283D01*
X188166487Y-107112610D01*
X188259420Y-106930219D01*
X188322677Y-106735534D01*
X188354700Y-106533352D01*
X188354700Y-106328648D01*
X188335106Y-106204939D01*
X188322677Y-106126465D01*
X188259418Y-105931776D01*
X188225703Y-105865607D01*
X188166487Y-105749390D01*
X188158756Y-105738749D01*
X188046171Y-105583786D01*
X188045520Y-105583135D01*
X192573700Y-105583135D01*
X192573700Y-107278870D01*
X192573701Y-107278876D01*
X192580108Y-107338483D01*
X192630402Y-107473328D01*
X192630406Y-107473335D01*
X192716652Y-107588544D01*
X192716655Y-107588547D01*
X192831864Y-107674793D01*
X192831871Y-107674797D01*
X192966717Y-107725091D01*
X192966716Y-107725091D01*
X192973644Y-107725835D01*
X193026327Y-107731500D01*
X195522072Y-107731499D01*
X195581683Y-107725091D01*
X195716531Y-107674796D01*
X195831746Y-107588546D01*
X195917996Y-107473331D01*
X195968291Y-107338483D01*
X195974700Y-107278873D01*
X195974699Y-105583128D01*
X195968291Y-105523517D01*
X195917996Y-105388669D01*
X195917995Y-105388668D01*
X195917993Y-105388664D01*
X195831747Y-105273455D01*
X195831744Y-105273452D01*
X195716535Y-105187206D01*
X195716528Y-105187202D01*
X195581682Y-105136908D01*
X195581684Y-105136908D01*
X195544017Y-105132859D01*
X195479466Y-105106121D01*
X195439618Y-105048728D01*
X195437125Y-104978903D01*
X195472778Y-104918814D01*
X195484389Y-104909251D01*
X195521092Y-104882585D01*
X195665782Y-104737895D01*
X195665782Y-104737894D01*
X195786059Y-104572349D01*
X195878955Y-104390029D01*
X195942190Y-104195413D01*
X195950809Y-104141000D01*
X194589886Y-104141000D01*
X194594280Y-104136606D01*
X194646941Y-104045394D01*
X194674200Y-103943661D01*
X194674200Y-103838339D01*
X194646941Y-103736606D01*
X194594280Y-103645394D01*
X194589886Y-103641000D01*
X195950809Y-103641000D01*
X195942190Y-103586586D01*
X195878955Y-103391970D01*
X195786059Y-103209650D01*
X195665782Y-103044105D01*
X195665782Y-103044104D01*
X195521095Y-102899417D01*
X195355549Y-102779140D01*
X195173231Y-102686244D01*
X194978617Y-102623009D01*
X194776517Y-102591000D01*
X194524200Y-102591000D01*
X194524200Y-103575314D01*
X194519806Y-103570920D01*
X194428594Y-103518259D01*
X194326861Y-103491000D01*
X194221539Y-103491000D01*
X194119806Y-103518259D01*
X194028594Y-103570920D01*
X194024200Y-103575314D01*
X194024200Y-102591000D01*
X193771883Y-102591000D01*
X193569782Y-102623009D01*
X193375168Y-102686244D01*
X193192850Y-102779140D01*
X193027305Y-102899417D01*
X193027304Y-102899417D01*
X192882617Y-103044104D01*
X192882617Y-103044105D01*
X192762340Y-103209650D01*
X192669444Y-103391970D01*
X192606209Y-103586586D01*
X192597591Y-103641000D01*
X193958514Y-103641000D01*
X193954120Y-103645394D01*
X193901459Y-103736606D01*
X193874200Y-103838339D01*
X193874200Y-103943661D01*
X193901459Y-104045394D01*
X193954120Y-104136606D01*
X193958514Y-104141000D01*
X192597591Y-104141000D01*
X192606209Y-104195413D01*
X192669444Y-104390029D01*
X192762340Y-104572349D01*
X192882617Y-104737894D01*
X192882617Y-104737895D01*
X193027304Y-104882582D01*
X193027310Y-104882587D01*
X193064011Y-104909252D01*
X193106677Y-104964582D01*
X193112656Y-105034195D01*
X193080050Y-105095990D01*
X193019212Y-105130347D01*
X193004380Y-105132860D01*
X192966716Y-105136908D01*
X192831871Y-105187202D01*
X192831864Y-105187206D01*
X192716655Y-105273452D01*
X192716652Y-105273455D01*
X192630406Y-105388664D01*
X192630402Y-105388671D01*
X192580108Y-105523517D01*
X192573701Y-105583116D01*
X192573701Y-105583123D01*
X192573700Y-105583135D01*
X188045520Y-105583135D01*
X187901413Y-105439028D01*
X187735814Y-105318715D01*
X187729206Y-105315348D01*
X187643117Y-105271483D01*
X187592323Y-105223511D01*
X187575528Y-105155690D01*
X187598065Y-105089555D01*
X187643117Y-105050516D01*
X187735810Y-105003287D01*
X187789083Y-104964582D01*
X187901413Y-104882971D01*
X187901415Y-104882968D01*
X187901419Y-104882966D01*
X188046166Y-104738219D01*
X188046168Y-104738215D01*
X188046171Y-104738213D01*
X188098932Y-104665590D01*
X188166487Y-104572610D01*
X188259420Y-104390219D01*
X188322677Y-104195534D01*
X188354700Y-103993352D01*
X188354700Y-103788648D01*
X188335106Y-103664939D01*
X188322677Y-103586465D01*
X188259418Y-103391776D01*
X188225703Y-103325607D01*
X188166487Y-103209390D01*
X188158756Y-103198749D01*
X188046171Y-103043786D01*
X187901413Y-102899028D01*
X187735813Y-102778715D01*
X187735812Y-102778714D01*
X187735810Y-102778713D01*
X187678853Y-102749691D01*
X187553423Y-102685781D01*
X187358734Y-102622522D01*
X187184195Y-102594878D01*
X187156552Y-102590500D01*
X186151848Y-102590500D01*
X186127529Y-102594351D01*
X185949665Y-102622522D01*
X185754976Y-102685781D01*
X185572586Y-102778715D01*
X185406986Y-102899028D01*
X185262228Y-103043786D01*
X185141915Y-103209386D01*
X185048981Y-103391776D01*
X184985722Y-103586465D01*
X184953700Y-103788648D01*
X177530256Y-103788648D01*
X177514085Y-103774410D01*
X177494933Y-103707217D01*
X177515148Y-103640335D01*
X177566525Y-103595818D01*
X177586323Y-103586586D01*
X177624534Y-103568768D01*
X177810939Y-103438247D01*
X177971847Y-103277339D01*
X178102368Y-103090934D01*
X178198539Y-102884696D01*
X178257435Y-102664892D01*
X178277268Y-102438200D01*
X178257435Y-102211508D01*
X178203370Y-102009735D01*
X178198541Y-101991711D01*
X178198538Y-101991702D01*
X178102368Y-101785466D01*
X178004639Y-101645893D01*
X177971845Y-101599058D01*
X177810941Y-101438154D01*
X177624534Y-101307632D01*
X177624528Y-101307629D01*
X177566525Y-101280582D01*
X177514085Y-101234410D01*
X177494933Y-101167217D01*
X177515148Y-101100335D01*
X177566525Y-101055818D01*
X177567119Y-101055541D01*
X177624534Y-101028768D01*
X177810939Y-100898247D01*
X177971847Y-100737339D01*
X178102368Y-100550934D01*
X178198539Y-100344696D01*
X178257435Y-100124892D01*
X178277268Y-99898200D01*
X178257435Y-99671508D01*
X178198539Y-99451704D01*
X178102368Y-99245466D01*
X178096999Y-99237798D01*
X185333732Y-99237798D01*
X185333732Y-99237801D01*
X185353564Y-99464486D01*
X185353566Y-99464497D01*
X185412458Y-99684288D01*
X185412461Y-99684297D01*
X185508631Y-99890532D01*
X185508632Y-99890534D01*
X185639154Y-100076941D01*
X185800058Y-100237845D01*
X185800061Y-100237847D01*
X185986466Y-100368368D01*
X186192704Y-100464539D01*
X186412508Y-100523435D01*
X186574430Y-100537601D01*
X186639198Y-100543268D01*
X186639200Y-100543268D01*
X186639202Y-100543268D01*
X186695873Y-100538309D01*
X186865892Y-100523435D01*
X187085696Y-100464539D01*
X187291934Y-100368368D01*
X187478339Y-100237847D01*
X187639247Y-100076939D01*
X187769768Y-99890534D01*
X187865939Y-99684296D01*
X187924835Y-99464492D01*
X187944668Y-99237800D01*
X187944668Y-99237798D01*
X192953732Y-99237798D01*
X192953732Y-99237801D01*
X192973564Y-99464486D01*
X192973566Y-99464497D01*
X193032458Y-99684288D01*
X193032461Y-99684297D01*
X193128631Y-99890532D01*
X193128632Y-99890534D01*
X193259154Y-100076941D01*
X193420058Y-100237845D01*
X193420061Y-100237847D01*
X193606466Y-100368368D01*
X193812704Y-100464539D01*
X194032508Y-100523435D01*
X194194430Y-100537601D01*
X194259198Y-100543268D01*
X194259200Y-100543268D01*
X194259202Y-100543268D01*
X194315873Y-100538309D01*
X194485892Y-100523435D01*
X194705696Y-100464539D01*
X194911934Y-100368368D01*
X195098339Y-100237847D01*
X195130979Y-100205207D01*
X195256768Y-100079419D01*
X195318091Y-100045934D01*
X195344449Y-100043100D01*
X197455672Y-100043100D01*
X197522711Y-100062785D01*
X197543353Y-100079419D01*
X198091181Y-100627247D01*
X198124666Y-100688570D01*
X198127500Y-100714928D01*
X198127500Y-116552349D01*
X198127499Y-116552375D01*
X198127499Y-116557485D01*
X198127499Y-116716115D01*
X198127499Y-116716117D01*
X198127498Y-116716117D01*
X198151955Y-116839061D01*
X198151955Y-116839062D01*
X198158445Y-116871690D01*
X198158447Y-116871699D01*
X198219148Y-117018246D01*
X198219155Y-117018259D01*
X198307281Y-117150148D01*
X198307284Y-117150152D01*
X198423770Y-117266638D01*
X198423792Y-117266658D01*
X200590156Y-119433022D01*
X200590185Y-119433053D01*
X200705447Y-119548315D01*
X200705451Y-119548318D01*
X200837340Y-119636444D01*
X200837353Y-119636451D01*
X200936203Y-119677395D01*
X200982797Y-119696695D01*
X200983903Y-119697153D01*
X201022798Y-119704889D01*
X201139481Y-119728100D01*
X201139484Y-119728100D01*
X201139485Y-119728100D01*
X213401551Y-119728100D01*
X213401571Y-119728101D01*
X213407685Y-119728101D01*
X213566317Y-119728101D01*
X213670982Y-119707280D01*
X213721897Y-119697153D01*
X213767596Y-119678223D01*
X213868450Y-119636450D01*
X213878604Y-119629665D01*
X213878603Y-119629665D01*
X214000349Y-119548318D01*
X214112518Y-119436149D01*
X214112519Y-119436147D01*
X214119585Y-119429081D01*
X214119588Y-119429077D01*
X214762345Y-118786320D01*
X214762349Y-118786318D01*
X214874518Y-118674149D01*
X214962648Y-118542253D01*
X214963192Y-118540940D01*
X215023354Y-118395697D01*
X215054301Y-118240115D01*
X215054301Y-118081484D01*
X215054301Y-118076374D01*
X215054300Y-118076348D01*
X215054300Y-115999099D01*
X215073985Y-115932060D01*
X215126789Y-115886305D01*
X215178300Y-115875099D01*
X215396871Y-115875099D01*
X215396872Y-115875099D01*
X215456483Y-115868691D01*
X215591331Y-115818396D01*
X215706546Y-115732146D01*
X215792796Y-115616931D01*
X215843091Y-115482083D01*
X215849500Y-115422473D01*
X215849499Y-113126728D01*
X215843091Y-113067117D01*
X215809017Y-112975761D01*
X215792797Y-112932271D01*
X215792793Y-112932264D01*
X215706547Y-112817055D01*
X215706544Y-112817052D01*
X215591335Y-112730806D01*
X215591328Y-112730802D01*
X215456482Y-112680508D01*
X215456483Y-112680508D01*
X215396883Y-112674101D01*
X215396881Y-112674100D01*
X215396873Y-112674100D01*
X215396864Y-112674100D01*
X213101129Y-112674100D01*
X213101123Y-112674101D01*
X213041516Y-112680508D01*
X212906671Y-112730802D01*
X212906664Y-112730806D01*
X212791455Y-112817052D01*
X212791452Y-112817055D01*
X212705206Y-112932264D01*
X212705202Y-112932271D01*
X212654908Y-113067117D01*
X212648501Y-113126716D01*
X212648501Y-113126723D01*
X212648500Y-113126735D01*
X212648500Y-115422470D01*
X212648501Y-115422476D01*
X212654908Y-115482083D01*
X212705202Y-115616928D01*
X212705206Y-115616935D01*
X212791452Y-115732144D01*
X212791455Y-115732147D01*
X212906664Y-115818393D01*
X212906671Y-115818397D01*
X212951618Y-115835161D01*
X213041517Y-115868691D01*
X213101127Y-115875100D01*
X213319700Y-115875099D01*
X213386739Y-115894783D01*
X213432494Y-115947587D01*
X213443700Y-115999099D01*
X213443700Y-117775872D01*
X213424015Y-117842911D01*
X213407381Y-117863553D01*
X213189753Y-118081181D01*
X213128430Y-118114666D01*
X213102072Y-118117500D01*
X201603728Y-118117500D01*
X201536689Y-118097815D01*
X201516047Y-118081181D01*
X199774419Y-116339553D01*
X199740934Y-116278230D01*
X199738100Y-116251872D01*
X199738100Y-114274600D01*
X202483551Y-114274600D01*
X202503317Y-114525751D01*
X202562126Y-114770710D01*
X202658533Y-115003459D01*
X202790160Y-115218253D01*
X202790161Y-115218256D01*
X202790164Y-115218259D01*
X202953776Y-115409824D01*
X203102066Y-115536475D01*
X203145343Y-115573438D01*
X203145346Y-115573439D01*
X203360140Y-115705066D01*
X203592889Y-115801473D01*
X203837852Y-115860283D01*
X204089000Y-115880049D01*
X204340148Y-115860283D01*
X204585111Y-115801473D01*
X204817859Y-115705066D01*
X205032659Y-115573436D01*
X205224224Y-115409824D01*
X205387836Y-115218259D01*
X205519466Y-115003459D01*
X205615873Y-114770711D01*
X205674683Y-114525748D01*
X205694449Y-114274600D01*
X205674683Y-114023452D01*
X205615873Y-113778489D01*
X205519466Y-113545741D01*
X205519466Y-113545740D01*
X205387839Y-113330946D01*
X205387838Y-113330943D01*
X205350875Y-113287666D01*
X205224224Y-113139376D01*
X205097571Y-113031204D01*
X205032656Y-112975761D01*
X205032653Y-112975760D01*
X204817859Y-112844133D01*
X204585110Y-112747726D01*
X204340151Y-112688917D01*
X204089000Y-112669151D01*
X203837848Y-112688917D01*
X203592889Y-112747726D01*
X203360140Y-112844133D01*
X203145346Y-112975760D01*
X203145343Y-112975761D01*
X202953776Y-113139376D01*
X202790161Y-113330943D01*
X202790160Y-113330946D01*
X202658533Y-113545740D01*
X202562126Y-113778489D01*
X202503317Y-114023448D01*
X202483551Y-114274600D01*
X199738100Y-114274600D01*
X199738100Y-108224535D01*
X202590100Y-108224535D01*
X202590100Y-110520270D01*
X202590101Y-110520276D01*
X202596508Y-110579883D01*
X202646802Y-110714728D01*
X202646806Y-110714735D01*
X202733052Y-110829944D01*
X202733055Y-110829947D01*
X202848264Y-110916193D01*
X202848271Y-110916197D01*
X202983117Y-110966491D01*
X202983116Y-110966491D01*
X202990044Y-110967235D01*
X203042727Y-110972900D01*
X205338472Y-110972899D01*
X205398083Y-110966491D01*
X205532931Y-110916196D01*
X205648146Y-110829946D01*
X205734396Y-110714731D01*
X205784691Y-110579883D01*
X205791100Y-110520273D01*
X205791099Y-109372400D01*
X212745151Y-109372400D01*
X212764917Y-109623551D01*
X212823726Y-109868510D01*
X212920133Y-110101259D01*
X213051760Y-110316053D01*
X213051761Y-110316056D01*
X213051764Y-110316059D01*
X213215376Y-110507624D01*
X213363666Y-110634275D01*
X213406943Y-110671238D01*
X213406946Y-110671239D01*
X213621740Y-110802866D01*
X213795618Y-110874888D01*
X213854489Y-110899273D01*
X214099452Y-110958083D01*
X214350600Y-110977849D01*
X214601748Y-110958083D01*
X214846711Y-110899273D01*
X215079459Y-110802866D01*
X215294259Y-110671236D01*
X215485824Y-110507624D01*
X215553489Y-110428398D01*
X221198532Y-110428398D01*
X221198532Y-110428401D01*
X221218364Y-110655086D01*
X221218366Y-110655097D01*
X221277258Y-110874888D01*
X221277261Y-110874897D01*
X221373431Y-111081132D01*
X221373432Y-111081134D01*
X221503954Y-111267541D01*
X221661086Y-111424673D01*
X221694571Y-111485996D01*
X221689587Y-111555688D01*
X221647715Y-111611621D01*
X221601932Y-111633028D01*
X221596522Y-111634306D01*
X221461671Y-111684602D01*
X221461664Y-111684606D01*
X221346455Y-111770852D01*
X221346452Y-111770855D01*
X221260206Y-111886064D01*
X221260202Y-111886071D01*
X221209908Y-112020917D01*
X221203510Y-112080433D01*
X221203501Y-112080523D01*
X221203500Y-112080535D01*
X221203500Y-113776270D01*
X221203501Y-113776276D01*
X221209908Y-113835883D01*
X221260202Y-113970728D01*
X221260206Y-113970735D01*
X221346452Y-114085944D01*
X221346455Y-114085947D01*
X221461664Y-114172193D01*
X221461671Y-114172197D01*
X221596517Y-114222491D01*
X221596516Y-114222491D01*
X221603444Y-114223235D01*
X221656127Y-114228900D01*
X223351872Y-114228899D01*
X223411483Y-114222491D01*
X223546331Y-114172196D01*
X223661546Y-114085946D01*
X223747796Y-113970731D01*
X223798091Y-113835883D01*
X223804500Y-113776273D01*
X223804499Y-112080528D01*
X223798091Y-112020917D01*
X223769949Y-111945465D01*
X223747797Y-111886071D01*
X223747793Y-111886064D01*
X223661547Y-111770855D01*
X223661544Y-111770852D01*
X223546335Y-111684606D01*
X223546328Y-111684602D01*
X223411483Y-111634308D01*
X223406079Y-111633032D01*
X223345363Y-111598460D01*
X223312976Y-111536549D01*
X223319202Y-111466958D01*
X223346910Y-111424675D01*
X223504047Y-111267539D01*
X223634568Y-111081134D01*
X223730739Y-110874896D01*
X223789635Y-110655092D01*
X223809468Y-110428400D01*
X223789635Y-110201708D01*
X223730739Y-109981904D01*
X223634568Y-109775666D01*
X223504047Y-109589261D01*
X223504045Y-109589258D01*
X223343141Y-109428354D01*
X223156734Y-109297832D01*
X223156732Y-109297831D01*
X222950497Y-109201661D01*
X222950488Y-109201658D01*
X222730697Y-109142766D01*
X222730693Y-109142765D01*
X222730692Y-109142765D01*
X222730691Y-109142764D01*
X222730686Y-109142764D01*
X222504002Y-109122932D01*
X222503998Y-109122932D01*
X222277313Y-109142764D01*
X222277302Y-109142766D01*
X222057511Y-109201658D01*
X222057502Y-109201661D01*
X221851267Y-109297831D01*
X221851265Y-109297832D01*
X221664858Y-109428354D01*
X221503954Y-109589258D01*
X221373432Y-109775665D01*
X221373431Y-109775667D01*
X221277261Y-109981902D01*
X221277258Y-109981911D01*
X221218366Y-110201702D01*
X221218364Y-110201713D01*
X221198532Y-110428398D01*
X215553489Y-110428398D01*
X215649436Y-110316059D01*
X215781066Y-110101259D01*
X215877473Y-109868511D01*
X215936283Y-109623548D01*
X215956049Y-109372400D01*
X215936283Y-109121252D01*
X215877473Y-108876289D01*
X215841393Y-108789184D01*
X215781066Y-108643540D01*
X215649439Y-108428746D01*
X215649438Y-108428743D01*
X215612475Y-108385466D01*
X215485824Y-108237176D01*
X215359171Y-108129004D01*
X215294256Y-108073561D01*
X215294253Y-108073560D01*
X215079459Y-107941933D01*
X214846710Y-107845526D01*
X214601751Y-107786717D01*
X214350600Y-107766951D01*
X214099448Y-107786717D01*
X213854489Y-107845526D01*
X213621740Y-107941933D01*
X213406946Y-108073560D01*
X213406943Y-108073561D01*
X213215376Y-108237176D01*
X213051761Y-108428743D01*
X213051760Y-108428746D01*
X212920133Y-108643540D01*
X212823726Y-108876289D01*
X212764917Y-109121248D01*
X212745151Y-109372400D01*
X205791099Y-109372400D01*
X205791099Y-108224528D01*
X205784691Y-108164917D01*
X205756657Y-108089755D01*
X205734397Y-108030071D01*
X205734393Y-108030064D01*
X205648147Y-107914855D01*
X205648144Y-107914852D01*
X205532935Y-107828606D01*
X205532928Y-107828602D01*
X205398082Y-107778308D01*
X205398083Y-107778308D01*
X205338483Y-107771901D01*
X205338481Y-107771900D01*
X205338473Y-107771900D01*
X205338464Y-107771900D01*
X203042729Y-107771900D01*
X203042723Y-107771901D01*
X202983116Y-107778308D01*
X202848271Y-107828602D01*
X202848264Y-107828606D01*
X202733055Y-107914852D01*
X202733052Y-107914855D01*
X202646806Y-108030064D01*
X202646802Y-108030071D01*
X202596508Y-108164917D01*
X202591939Y-108207419D01*
X202590101Y-108224523D01*
X202590100Y-108224535D01*
X199738100Y-108224535D01*
X199738100Y-102009735D01*
X205938000Y-102009735D01*
X205938000Y-104105470D01*
X205938001Y-104105476D01*
X205944408Y-104165083D01*
X205994702Y-104299928D01*
X205994706Y-104299935D01*
X206080952Y-104415144D01*
X206080955Y-104415147D01*
X206196164Y-104501393D01*
X206196171Y-104501397D01*
X206331017Y-104551691D01*
X206331016Y-104551691D01*
X206337944Y-104552435D01*
X206390627Y-104558100D01*
X208391372Y-104558099D01*
X208450983Y-104551691D01*
X208585831Y-104501396D01*
X208701046Y-104415146D01*
X208787296Y-104299931D01*
X208797690Y-104272060D01*
X208839560Y-104216127D01*
X208905023Y-104191708D01*
X208973297Y-104206558D01*
X208986746Y-104215065D01*
X209169462Y-104347817D01*
X209252308Y-104390029D01*
X209373244Y-104451649D01*
X209590751Y-104522321D01*
X209590752Y-104522321D01*
X209590755Y-104522322D01*
X209816646Y-104558100D01*
X209816647Y-104558100D01*
X210045353Y-104558100D01*
X210045354Y-104558100D01*
X210271245Y-104522322D01*
X210271248Y-104522321D01*
X210271249Y-104522321D01*
X210488755Y-104451649D01*
X210488755Y-104451648D01*
X210488758Y-104451648D01*
X210692538Y-104347817D01*
X210877566Y-104213386D01*
X211039286Y-104051666D01*
X211100683Y-103967159D01*
X211156012Y-103924496D01*
X211225625Y-103918517D01*
X211287420Y-103951123D01*
X211301314Y-103967156D01*
X211362714Y-104051666D01*
X211524434Y-104213386D01*
X211709462Y-104347817D01*
X211792308Y-104390029D01*
X211913244Y-104451649D01*
X212130751Y-104522321D01*
X212130752Y-104522321D01*
X212130755Y-104522322D01*
X212356646Y-104558100D01*
X212356647Y-104558100D01*
X212585353Y-104558100D01*
X212585354Y-104558100D01*
X212811245Y-104522322D01*
X212811248Y-104522321D01*
X212811249Y-104522321D01*
X213028755Y-104451649D01*
X213028755Y-104451648D01*
X213028758Y-104451648D01*
X213232538Y-104347817D01*
X213417566Y-104213386D01*
X213579286Y-104051666D01*
X213713717Y-103866638D01*
X213817548Y-103662858D01*
X213842369Y-103586466D01*
X213888221Y-103445349D01*
X213888221Y-103445348D01*
X213888222Y-103445345D01*
X213924000Y-103219454D01*
X213924000Y-102895746D01*
X213888222Y-102669855D01*
X213888221Y-102669851D01*
X213888221Y-102669850D01*
X213817549Y-102452344D01*
X213810341Y-102438198D01*
X213713717Y-102248562D01*
X213579286Y-102063534D01*
X213417566Y-101901814D01*
X213232538Y-101767383D01*
X213028755Y-101663550D01*
X212811248Y-101592878D01*
X212625812Y-101563508D01*
X212585354Y-101557100D01*
X212356646Y-101557100D01*
X212316188Y-101563508D01*
X212130753Y-101592878D01*
X212130750Y-101592878D01*
X211913244Y-101663550D01*
X211709461Y-101767383D01*
X211643550Y-101815271D01*
X211524434Y-101901814D01*
X211524432Y-101901816D01*
X211524431Y-101901816D01*
X211362715Y-102063532D01*
X211301318Y-102148038D01*
X211245987Y-102190703D01*
X211176374Y-102196682D01*
X211114579Y-102164076D01*
X211100682Y-102148038D01*
X211089773Y-102133023D01*
X211039286Y-102063534D01*
X210877566Y-101901814D01*
X210692538Y-101767383D01*
X210488755Y-101663550D01*
X210271248Y-101592878D01*
X210085812Y-101563508D01*
X210045354Y-101557100D01*
X209816646Y-101557100D01*
X209776188Y-101563508D01*
X209590753Y-101592878D01*
X209590750Y-101592878D01*
X209373244Y-101663550D01*
X209169461Y-101767383D01*
X208986759Y-101900125D01*
X208920952Y-101923605D01*
X208852898Y-101907780D01*
X208804203Y-101857674D01*
X208797690Y-101843138D01*
X208787296Y-101815269D01*
X208787293Y-101815264D01*
X208701047Y-101700055D01*
X208701044Y-101700052D01*
X208585835Y-101613806D01*
X208585828Y-101613802D01*
X208450982Y-101563508D01*
X208450983Y-101563508D01*
X208391383Y-101557101D01*
X208391381Y-101557100D01*
X208391373Y-101557100D01*
X208391364Y-101557100D01*
X206390629Y-101557100D01*
X206390623Y-101557101D01*
X206331016Y-101563508D01*
X206196171Y-101613802D01*
X206196164Y-101613806D01*
X206080955Y-101700052D01*
X206080952Y-101700055D01*
X205994706Y-101815264D01*
X205994702Y-101815271D01*
X205944408Y-101950117D01*
X205938001Y-102009716D01*
X205938000Y-102009735D01*
X199738100Y-102009735D01*
X199738100Y-100415449D01*
X199738101Y-100415428D01*
X199738101Y-100250682D01*
X199707154Y-100095107D01*
X199707152Y-100095101D01*
X199699640Y-100076964D01*
X199699628Y-100076937D01*
X199646451Y-99948554D01*
X199646450Y-99948553D01*
X199646448Y-99948547D01*
X199612808Y-99898201D01*
X199558318Y-99816650D01*
X199443053Y-99701385D01*
X199443022Y-99701356D01*
X198470458Y-98728792D01*
X198470438Y-98728770D01*
X198353952Y-98612284D01*
X198353948Y-98612281D01*
X198222059Y-98524155D01*
X198222046Y-98524148D01*
X198075501Y-98463448D01*
X198075491Y-98463445D01*
X197919917Y-98432499D01*
X197919915Y-98432499D01*
X197761285Y-98432499D01*
X197755171Y-98432499D01*
X197755151Y-98432500D01*
X195344449Y-98432500D01*
X195277410Y-98412815D01*
X195256768Y-98396181D01*
X195098341Y-98237754D01*
X194911934Y-98107232D01*
X194911932Y-98107231D01*
X194705697Y-98011061D01*
X194705688Y-98011058D01*
X194485897Y-97952166D01*
X194485893Y-97952165D01*
X194485892Y-97952165D01*
X194485891Y-97952164D01*
X194485886Y-97952164D01*
X194259202Y-97932332D01*
X194259198Y-97932332D01*
X194032513Y-97952164D01*
X194032502Y-97952166D01*
X193812711Y-98011058D01*
X193812702Y-98011061D01*
X193606467Y-98107231D01*
X193606465Y-98107232D01*
X193420058Y-98237754D01*
X193259154Y-98398658D01*
X193128632Y-98585065D01*
X193128631Y-98585067D01*
X193032461Y-98791302D01*
X193032458Y-98791311D01*
X192973566Y-99011102D01*
X192973564Y-99011113D01*
X192953732Y-99237798D01*
X187944668Y-99237798D01*
X187924835Y-99011108D01*
X187865939Y-98791304D01*
X187769768Y-98585066D01*
X187639247Y-98398661D01*
X187639245Y-98398658D01*
X187478341Y-98237754D01*
X187291934Y-98107232D01*
X187291932Y-98107231D01*
X187085697Y-98011061D01*
X187085688Y-98011058D01*
X186865897Y-97952166D01*
X186865893Y-97952165D01*
X186865892Y-97952165D01*
X186865891Y-97952164D01*
X186865886Y-97952164D01*
X186639202Y-97932332D01*
X186639198Y-97932332D01*
X186412513Y-97952164D01*
X186412502Y-97952166D01*
X186192711Y-98011058D01*
X186192702Y-98011061D01*
X185986467Y-98107231D01*
X185986465Y-98107232D01*
X185800058Y-98237754D01*
X185639154Y-98398658D01*
X185508632Y-98585065D01*
X185508631Y-98585067D01*
X185412461Y-98791302D01*
X185412458Y-98791311D01*
X185353566Y-99011102D01*
X185353564Y-99011113D01*
X185333732Y-99237798D01*
X178096999Y-99237798D01*
X177971847Y-99059061D01*
X177971845Y-99059058D01*
X177810941Y-98898154D01*
X177624534Y-98767632D01*
X177624528Y-98767629D01*
X177566525Y-98740582D01*
X177514085Y-98694410D01*
X177494933Y-98627217D01*
X177515148Y-98560335D01*
X177566525Y-98515818D01*
X177624534Y-98488768D01*
X177810939Y-98358247D01*
X177971847Y-98197339D01*
X178102368Y-98010934D01*
X178198539Y-97804696D01*
X178257435Y-97584892D01*
X178277268Y-97358200D01*
X178257435Y-97131508D01*
X178198539Y-96911704D01*
X178102368Y-96705466D01*
X177971847Y-96519061D01*
X177971845Y-96519058D01*
X177810941Y-96358154D01*
X177624534Y-96227632D01*
X177624532Y-96227631D01*
X177566525Y-96200582D01*
X177565932Y-96200305D01*
X177513494Y-96154134D01*
X177494342Y-96086940D01*
X177514558Y-96020059D01*
X177565934Y-95975541D01*
X177624284Y-95948332D01*
X177810620Y-95817857D01*
X177971457Y-95657020D01*
X178101934Y-95470682D01*
X178198065Y-95264526D01*
X178198069Y-95264517D01*
X178250672Y-95068200D01*
X177404812Y-95068200D01*
X177437725Y-95011193D01*
X177471800Y-94884026D01*
X177471800Y-94752374D01*
X177437725Y-94625207D01*
X177404812Y-94568200D01*
X178250672Y-94568200D01*
X178250672Y-94568199D01*
X178198069Y-94371882D01*
X178198065Y-94371873D01*
X178101934Y-94165717D01*
X177971457Y-93979379D01*
X177810620Y-93818542D01*
X177624282Y-93688065D01*
X177565933Y-93660857D01*
X177513494Y-93614684D01*
X177494342Y-93547491D01*
X177514558Y-93480610D01*
X177565929Y-93436095D01*
X177624534Y-93408768D01*
X177810939Y-93278247D01*
X177971847Y-93117339D01*
X178102368Y-92930934D01*
X178198539Y-92724696D01*
X178257435Y-92504892D01*
X178277268Y-92278200D01*
X178257435Y-92051508D01*
X178198539Y-91831704D01*
X178102368Y-91625466D01*
X177971847Y-91439061D01*
X177971845Y-91439058D01*
X177810941Y-91278154D01*
X177624534Y-91147632D01*
X177624532Y-91147631D01*
X177418297Y-91051461D01*
X177418288Y-91051458D01*
X177198497Y-90992566D01*
X177198493Y-90992565D01*
X177198492Y-90992565D01*
X177198491Y-90992564D01*
X177198486Y-90992564D01*
X176971802Y-90972732D01*
X176971798Y-90972732D01*
X176745113Y-90992564D01*
X176745102Y-90992566D01*
X176525311Y-91051458D01*
X176525302Y-91051461D01*
X176319067Y-91147631D01*
X176319065Y-91147632D01*
X176132658Y-91278154D01*
X175971754Y-91439058D01*
X175841232Y-91625465D01*
X175841231Y-91625467D01*
X175745061Y-91831702D01*
X175745058Y-91831711D01*
X175686166Y-92051502D01*
X175686164Y-92051513D01*
X175666332Y-92278198D01*
X175666332Y-92278201D01*
X175686164Y-92504886D01*
X175686166Y-92504897D01*
X175745058Y-92724688D01*
X175745061Y-92724697D01*
X175841231Y-92930932D01*
X175841232Y-92930934D01*
X175971754Y-93117341D01*
X176132658Y-93278245D01*
X176132661Y-93278247D01*
X176319066Y-93408768D01*
X176377665Y-93436093D01*
X176430105Y-93482265D01*
X176449257Y-93549458D01*
X176429042Y-93616339D01*
X176377667Y-93660857D01*
X176319315Y-93688067D01*
X176132979Y-93818542D01*
X175972142Y-93979379D01*
X175841665Y-94165717D01*
X175745534Y-94371873D01*
X175745530Y-94371882D01*
X175692927Y-94568199D01*
X175692928Y-94568200D01*
X176538788Y-94568200D01*
X176505875Y-94625207D01*
X176471800Y-94752374D01*
X176471800Y-94884026D01*
X176505875Y-95011193D01*
X176538788Y-95068200D01*
X175692928Y-95068200D01*
X175745530Y-95264517D01*
X175745534Y-95264526D01*
X175841665Y-95470682D01*
X175972142Y-95657020D01*
X176132979Y-95817857D01*
X176319318Y-95948334D01*
X176319320Y-95948335D01*
X176377665Y-95975542D01*
X176430105Y-96021714D01*
X176449257Y-96088907D01*
X176429042Y-96155789D01*
X176377667Y-96200305D01*
X176319068Y-96227631D01*
X176319064Y-96227633D01*
X176132658Y-96358154D01*
X175971754Y-96519058D01*
X175841232Y-96705465D01*
X175841231Y-96705467D01*
X175745061Y-96911702D01*
X175745058Y-96911711D01*
X175686166Y-97131502D01*
X175686164Y-97131513D01*
X175666332Y-97358198D01*
X175666332Y-97358201D01*
X175686164Y-97584886D01*
X175686166Y-97584897D01*
X175745058Y-97804688D01*
X175745061Y-97804697D01*
X175841231Y-98010932D01*
X175841232Y-98010934D01*
X175971754Y-98197341D01*
X176132658Y-98358245D01*
X176132661Y-98358247D01*
X176319066Y-98488768D01*
X176377075Y-98515818D01*
X176429514Y-98561991D01*
X176448666Y-98629184D01*
X176428450Y-98696065D01*
X176377075Y-98740582D01*
X176319067Y-98767631D01*
X176319065Y-98767632D01*
X176132658Y-98898154D01*
X175974232Y-99056581D01*
X175912909Y-99090066D01*
X175886551Y-99092900D01*
X172386679Y-99092900D01*
X172231109Y-99123844D01*
X172231105Y-99123846D01*
X172231103Y-99123846D01*
X172231102Y-99123847D01*
X172188177Y-99141627D01*
X172188175Y-99141628D01*
X172084549Y-99184550D01*
X172084540Y-99184555D01*
X171952652Y-99272680D01*
X171896567Y-99328765D01*
X171840482Y-99384851D01*
X171840479Y-99384854D01*
X170555654Y-100669679D01*
X170555651Y-100669682D01*
X170521833Y-100703500D01*
X170443482Y-100781850D01*
X170408480Y-100834235D01*
X170391097Y-100860251D01*
X170373224Y-100886999D01*
X170355352Y-100913746D01*
X170355348Y-100913753D01*
X170294648Y-101060298D01*
X170294645Y-101060308D01*
X170263699Y-101215882D01*
X170263699Y-101380628D01*
X170263700Y-101380649D01*
X170263700Y-128820549D01*
X170263699Y-128820575D01*
X170263699Y-128825685D01*
X170263699Y-128984315D01*
X170263699Y-128984317D01*
X170263698Y-128984317D01*
X170280236Y-129067451D01*
X170291452Y-129123835D01*
X170294647Y-129139897D01*
X170294648Y-129139901D01*
X170355348Y-129286446D01*
X170355355Y-129286459D01*
X170443481Y-129418348D01*
X170443484Y-129418352D01*
X170559970Y-129534838D01*
X170559992Y-129534858D01*
X171888156Y-130863022D01*
X171888185Y-130863053D01*
X172003447Y-130978315D01*
X172003455Y-130978321D01*
X172050114Y-131009498D01*
X172094920Y-131063110D01*
X172103627Y-131132435D01*
X172073473Y-131195462D01*
X172014030Y-131232182D01*
X171981224Y-131236600D01*
X159298300Y-131236600D01*
X159231261Y-131216915D01*
X159185506Y-131164111D01*
X159174300Y-131112600D01*
X159174300Y-94818198D01*
X160426332Y-94818198D01*
X160426332Y-94818201D01*
X160446164Y-95044886D01*
X160446166Y-95044897D01*
X160505058Y-95264688D01*
X160505061Y-95264697D01*
X160601231Y-95470932D01*
X160601232Y-95470934D01*
X160731754Y-95657341D01*
X160892658Y-95818245D01*
X160892661Y-95818247D01*
X161079066Y-95948768D01*
X161136481Y-95975541D01*
X161137075Y-95975818D01*
X161189514Y-96021991D01*
X161208666Y-96089184D01*
X161188450Y-96156065D01*
X161137075Y-96200582D01*
X161079067Y-96227631D01*
X161079065Y-96227632D01*
X160892658Y-96358154D01*
X160731754Y-96519058D01*
X160601232Y-96705465D01*
X160601231Y-96705467D01*
X160505061Y-96911702D01*
X160505058Y-96911711D01*
X160446166Y-97131502D01*
X160446164Y-97131513D01*
X160426332Y-97358198D01*
X160426332Y-97358201D01*
X160446164Y-97584886D01*
X160446166Y-97584897D01*
X160505058Y-97804688D01*
X160505061Y-97804697D01*
X160601231Y-98010932D01*
X160601232Y-98010934D01*
X160731754Y-98197341D01*
X160892658Y-98358245D01*
X160892661Y-98358247D01*
X161079066Y-98488768D01*
X161137665Y-98516093D01*
X161190105Y-98562265D01*
X161209257Y-98629458D01*
X161189042Y-98696339D01*
X161137667Y-98740857D01*
X161079315Y-98768067D01*
X160892979Y-98898542D01*
X160732142Y-99059379D01*
X160601665Y-99245717D01*
X160505534Y-99451873D01*
X160505530Y-99451882D01*
X160452927Y-99648199D01*
X160452928Y-99648200D01*
X161298788Y-99648200D01*
X161265875Y-99705207D01*
X161231800Y-99832374D01*
X161231800Y-99964026D01*
X161265875Y-100091193D01*
X161298788Y-100148200D01*
X160452928Y-100148200D01*
X160505530Y-100344517D01*
X160505534Y-100344526D01*
X160601665Y-100550682D01*
X160732142Y-100737020D01*
X160892979Y-100897857D01*
X161079318Y-101028334D01*
X161079320Y-101028335D01*
X161137665Y-101055542D01*
X161190105Y-101101714D01*
X161209257Y-101168907D01*
X161189042Y-101235789D01*
X161137667Y-101280305D01*
X161079068Y-101307631D01*
X161079064Y-101307633D01*
X160892658Y-101438154D01*
X160731754Y-101599058D01*
X160601232Y-101785465D01*
X160601231Y-101785467D01*
X160505061Y-101991702D01*
X160505058Y-101991711D01*
X160446166Y-102211502D01*
X160446164Y-102211513D01*
X160426332Y-102438198D01*
X160426332Y-102438201D01*
X160446164Y-102664886D01*
X160446166Y-102664897D01*
X160505058Y-102884688D01*
X160505061Y-102884697D01*
X160601231Y-103090932D01*
X160601232Y-103090934D01*
X160731754Y-103277341D01*
X160892658Y-103438245D01*
X160902804Y-103445349D01*
X161079066Y-103568768D01*
X161117277Y-103586586D01*
X161137075Y-103595818D01*
X161189514Y-103641991D01*
X161208666Y-103709184D01*
X161188450Y-103776065D01*
X161137075Y-103820582D01*
X161079067Y-103847631D01*
X161079065Y-103847632D01*
X160892658Y-103978154D01*
X160731754Y-104139058D01*
X160601232Y-104325465D01*
X160601231Y-104325467D01*
X160505061Y-104531702D01*
X160505058Y-104531711D01*
X160446166Y-104751502D01*
X160446164Y-104751513D01*
X160426332Y-104978198D01*
X160426332Y-104978201D01*
X160446164Y-105204886D01*
X160446166Y-105204897D01*
X160505058Y-105424688D01*
X160505061Y-105424697D01*
X160601231Y-105630932D01*
X160601232Y-105630934D01*
X160731754Y-105817341D01*
X160892658Y-105978245D01*
X160892661Y-105978247D01*
X161079066Y-106108768D01*
X161137075Y-106135818D01*
X161189514Y-106181991D01*
X161208666Y-106249184D01*
X161188450Y-106316065D01*
X161137075Y-106360582D01*
X161079067Y-106387631D01*
X161079065Y-106387632D01*
X160892658Y-106518154D01*
X160731754Y-106679058D01*
X160601232Y-106865465D01*
X160601231Y-106865467D01*
X160505061Y-107071702D01*
X160505058Y-107071711D01*
X160446166Y-107291502D01*
X160446164Y-107291513D01*
X160426332Y-107518198D01*
X160426332Y-107518201D01*
X160446164Y-107744886D01*
X160446166Y-107744897D01*
X160505058Y-107964688D01*
X160505061Y-107964696D01*
X160601231Y-108170932D01*
X160601232Y-108170934D01*
X160731754Y-108357341D01*
X160892658Y-108518245D01*
X160892661Y-108518247D01*
X161079066Y-108648768D01*
X161137075Y-108675818D01*
X161189514Y-108721991D01*
X161208666Y-108789184D01*
X161188450Y-108856065D01*
X161137075Y-108900582D01*
X161079067Y-108927631D01*
X161079065Y-108927632D01*
X160892658Y-109058154D01*
X160731754Y-109219058D01*
X160601232Y-109405465D01*
X160601231Y-109405467D01*
X160505061Y-109611702D01*
X160505058Y-109611711D01*
X160446166Y-109831502D01*
X160446164Y-109831513D01*
X160426332Y-110058198D01*
X160426332Y-110058201D01*
X160446164Y-110284886D01*
X160446166Y-110284897D01*
X160505058Y-110504688D01*
X160505061Y-110504697D01*
X160601231Y-110710932D01*
X160601232Y-110710934D01*
X160731754Y-110897341D01*
X160892658Y-111058245D01*
X160892661Y-111058247D01*
X161079066Y-111188768D01*
X161137075Y-111215818D01*
X161189514Y-111261991D01*
X161208666Y-111329184D01*
X161188450Y-111396065D01*
X161137075Y-111440582D01*
X161079067Y-111467631D01*
X161079065Y-111467632D01*
X160892658Y-111598154D01*
X160731754Y-111759058D01*
X160601232Y-111945465D01*
X160601231Y-111945467D01*
X160505061Y-112151702D01*
X160505058Y-112151711D01*
X160446166Y-112371502D01*
X160446164Y-112371513D01*
X160426332Y-112598198D01*
X160426332Y-112598201D01*
X160446164Y-112824886D01*
X160446166Y-112824897D01*
X160505058Y-113044688D01*
X160505061Y-113044697D01*
X160601231Y-113250932D01*
X160601232Y-113250934D01*
X160731754Y-113437341D01*
X160892658Y-113598245D01*
X160892661Y-113598247D01*
X161079066Y-113728768D01*
X161137075Y-113755818D01*
X161189514Y-113801991D01*
X161208666Y-113869184D01*
X161188450Y-113936065D01*
X161137075Y-113980582D01*
X161079067Y-114007631D01*
X161079065Y-114007632D01*
X160892658Y-114138154D01*
X160731754Y-114299058D01*
X160601232Y-114485465D01*
X160601231Y-114485467D01*
X160505061Y-114691702D01*
X160505058Y-114691711D01*
X160446166Y-114911502D01*
X160446164Y-114911513D01*
X160426332Y-115138198D01*
X160426332Y-115138201D01*
X160446164Y-115364886D01*
X160446166Y-115364897D01*
X160505058Y-115584688D01*
X160505061Y-115584697D01*
X160601231Y-115790932D01*
X160601232Y-115790934D01*
X160731754Y-115977341D01*
X160892658Y-116138245D01*
X160892661Y-116138247D01*
X161079066Y-116268768D01*
X161137075Y-116295818D01*
X161189514Y-116341991D01*
X161208666Y-116409184D01*
X161188450Y-116476065D01*
X161137075Y-116520582D01*
X161079067Y-116547631D01*
X161079065Y-116547632D01*
X160892658Y-116678154D01*
X160731754Y-116839058D01*
X160601232Y-117025465D01*
X160601231Y-117025467D01*
X160505061Y-117231702D01*
X160505058Y-117231711D01*
X160446166Y-117451502D01*
X160446164Y-117451513D01*
X160426332Y-117678198D01*
X160426332Y-117678201D01*
X160446164Y-117904886D01*
X160446166Y-117904897D01*
X160505058Y-118124688D01*
X160505061Y-118124697D01*
X160601231Y-118330932D01*
X160601232Y-118330934D01*
X160731754Y-118517341D01*
X160892658Y-118678245D01*
X160892661Y-118678247D01*
X161079066Y-118808768D01*
X161134688Y-118834705D01*
X161137075Y-118835818D01*
X161189514Y-118881991D01*
X161208666Y-118949184D01*
X161188450Y-119016065D01*
X161137075Y-119060582D01*
X161079067Y-119087631D01*
X161079065Y-119087632D01*
X160892658Y-119218154D01*
X160731754Y-119379058D01*
X160601232Y-119565465D01*
X160601231Y-119565467D01*
X160505061Y-119771702D01*
X160505058Y-119771711D01*
X160446166Y-119991502D01*
X160446164Y-119991513D01*
X160426332Y-120218198D01*
X160426332Y-120218201D01*
X160446164Y-120444886D01*
X160446166Y-120444897D01*
X160505058Y-120664688D01*
X160505061Y-120664697D01*
X160601231Y-120870932D01*
X160601232Y-120870934D01*
X160731754Y-121057341D01*
X160892658Y-121218245D01*
X160892661Y-121218247D01*
X161079066Y-121348768D01*
X161137075Y-121375818D01*
X161189514Y-121421991D01*
X161208666Y-121489184D01*
X161188450Y-121556065D01*
X161137075Y-121600582D01*
X161079067Y-121627631D01*
X161079065Y-121627632D01*
X160892658Y-121758154D01*
X160731754Y-121919058D01*
X160601232Y-122105465D01*
X160601231Y-122105467D01*
X160505061Y-122311702D01*
X160505058Y-122311711D01*
X160446166Y-122531502D01*
X160446164Y-122531513D01*
X160426332Y-122758198D01*
X160426332Y-122758201D01*
X160446164Y-122984886D01*
X160446166Y-122984897D01*
X160505058Y-123204688D01*
X160505061Y-123204697D01*
X160601231Y-123410932D01*
X160601232Y-123410934D01*
X160731754Y-123597341D01*
X160892658Y-123758245D01*
X160892661Y-123758247D01*
X161079066Y-123888768D01*
X161137075Y-123915818D01*
X161189514Y-123961991D01*
X161208666Y-124029184D01*
X161188450Y-124096065D01*
X161137075Y-124140582D01*
X161079067Y-124167631D01*
X161079065Y-124167632D01*
X160892658Y-124298154D01*
X160731754Y-124459058D01*
X160601232Y-124645465D01*
X160601231Y-124645467D01*
X160505061Y-124851702D01*
X160505058Y-124851711D01*
X160446166Y-125071502D01*
X160446164Y-125071513D01*
X160426332Y-125298198D01*
X160426332Y-125298201D01*
X160446164Y-125524886D01*
X160446166Y-125524897D01*
X160505058Y-125744688D01*
X160505061Y-125744697D01*
X160601231Y-125950932D01*
X160601232Y-125950934D01*
X160731754Y-126137341D01*
X160892658Y-126298245D01*
X160892661Y-126298247D01*
X161079066Y-126428768D01*
X161137075Y-126455818D01*
X161189514Y-126501991D01*
X161208666Y-126569184D01*
X161188450Y-126636065D01*
X161137075Y-126680582D01*
X161079067Y-126707631D01*
X161079065Y-126707632D01*
X160892658Y-126838154D01*
X160731754Y-126999058D01*
X160601232Y-127185465D01*
X160601231Y-127185467D01*
X160505061Y-127391702D01*
X160505058Y-127391711D01*
X160446166Y-127611502D01*
X160446164Y-127611513D01*
X160426332Y-127838198D01*
X160426332Y-127838201D01*
X160446164Y-128064886D01*
X160446166Y-128064897D01*
X160505058Y-128284688D01*
X160505061Y-128284697D01*
X160601231Y-128490932D01*
X160601232Y-128490934D01*
X160731754Y-128677341D01*
X160892658Y-128838245D01*
X160892661Y-128838247D01*
X161079066Y-128968768D01*
X161285304Y-129064939D01*
X161285309Y-129064940D01*
X161285311Y-129064941D01*
X161294679Y-129067451D01*
X161505108Y-129123835D01*
X161667030Y-129138001D01*
X161731798Y-129143668D01*
X161731800Y-129143668D01*
X161731802Y-129143668D01*
X161788473Y-129138709D01*
X161958492Y-129123835D01*
X162178296Y-129064939D01*
X162384534Y-128968768D01*
X162570939Y-128838247D01*
X162731847Y-128677339D01*
X162862368Y-128490934D01*
X162958539Y-128284696D01*
X163017435Y-128064892D01*
X163037268Y-127838200D01*
X163017435Y-127611508D01*
X162958539Y-127391704D01*
X162862368Y-127185466D01*
X162731847Y-126999061D01*
X162731845Y-126999058D01*
X162570941Y-126838154D01*
X162384534Y-126707632D01*
X162384528Y-126707629D01*
X162326525Y-126680582D01*
X162274085Y-126634410D01*
X162254933Y-126567217D01*
X162275148Y-126500335D01*
X162326525Y-126455818D01*
X162384534Y-126428768D01*
X162570939Y-126298247D01*
X162731847Y-126137339D01*
X162862368Y-125950934D01*
X162958539Y-125744696D01*
X163017435Y-125524892D01*
X163037268Y-125298200D01*
X163017435Y-125071508D01*
X162958539Y-124851704D01*
X162862368Y-124645466D01*
X162748545Y-124482909D01*
X162731845Y-124459058D01*
X162570941Y-124298154D01*
X162384534Y-124167632D01*
X162384528Y-124167629D01*
X162326525Y-124140582D01*
X162274085Y-124094410D01*
X162254933Y-124027217D01*
X162275148Y-123960335D01*
X162326525Y-123915818D01*
X162384534Y-123888768D01*
X162570939Y-123758247D01*
X162731847Y-123597339D01*
X162862368Y-123410934D01*
X162958539Y-123204696D01*
X163017435Y-122984892D01*
X163037268Y-122758200D01*
X163017435Y-122531508D01*
X162958539Y-122311704D01*
X162862368Y-122105466D01*
X162731847Y-121919061D01*
X162731845Y-121919058D01*
X162570941Y-121758154D01*
X162384534Y-121627632D01*
X162384528Y-121627629D01*
X162326525Y-121600582D01*
X162274085Y-121554410D01*
X162254933Y-121487217D01*
X162275148Y-121420335D01*
X162326525Y-121375818D01*
X162384534Y-121348768D01*
X162570939Y-121218247D01*
X162731847Y-121057339D01*
X162862368Y-120870934D01*
X162958539Y-120664696D01*
X163017435Y-120444892D01*
X163037268Y-120218200D01*
X163017435Y-119991508D01*
X162958539Y-119771704D01*
X162862368Y-119565466D01*
X162731847Y-119379061D01*
X162731845Y-119379058D01*
X162570941Y-119218154D01*
X162384534Y-119087632D01*
X162384528Y-119087629D01*
X162326525Y-119060582D01*
X162274085Y-119014410D01*
X162254933Y-118947217D01*
X162275148Y-118880335D01*
X162326525Y-118835818D01*
X162328912Y-118834705D01*
X162384534Y-118808768D01*
X162570939Y-118678247D01*
X162731847Y-118517339D01*
X162862368Y-118330934D01*
X162958539Y-118124696D01*
X163017435Y-117904892D01*
X163034434Y-117710584D01*
X163037268Y-117678201D01*
X163037268Y-117678198D01*
X163027263Y-117563844D01*
X163017435Y-117451508D01*
X162967905Y-117266658D01*
X162958541Y-117231711D01*
X162958538Y-117231702D01*
X162920509Y-117150149D01*
X162862368Y-117025466D01*
X162731847Y-116839061D01*
X162731845Y-116839058D01*
X162570941Y-116678154D01*
X162384534Y-116547632D01*
X162384528Y-116547629D01*
X162326525Y-116520582D01*
X162274085Y-116474410D01*
X162254933Y-116407217D01*
X162275148Y-116340335D01*
X162326525Y-116295818D01*
X162384534Y-116268768D01*
X162570939Y-116138247D01*
X162731847Y-115977339D01*
X162862368Y-115790934D01*
X162958539Y-115584696D01*
X163017435Y-115364892D01*
X163037268Y-115138200D01*
X163017435Y-114911508D01*
X162958539Y-114691704D01*
X162862368Y-114485466D01*
X162731847Y-114299061D01*
X162731845Y-114299058D01*
X162570941Y-114138154D01*
X162384534Y-114007632D01*
X162384528Y-114007629D01*
X162326525Y-113980582D01*
X162274085Y-113934410D01*
X162254933Y-113867217D01*
X162275148Y-113800335D01*
X162326525Y-113755818D01*
X162384534Y-113728768D01*
X162570939Y-113598247D01*
X162731847Y-113437339D01*
X162862368Y-113250934D01*
X162958539Y-113044696D01*
X163017435Y-112824892D01*
X163037268Y-112598200D01*
X163017435Y-112371508D01*
X162958539Y-112151704D01*
X162862368Y-111945466D01*
X162740105Y-111770855D01*
X162731845Y-111759058D01*
X162570941Y-111598154D01*
X162384534Y-111467632D01*
X162384528Y-111467629D01*
X162341434Y-111447534D01*
X162326524Y-111440581D01*
X162274085Y-111394410D01*
X162254933Y-111327217D01*
X162275148Y-111260335D01*
X162326525Y-111215818D01*
X162384534Y-111188768D01*
X162570939Y-111058247D01*
X162731847Y-110897339D01*
X162862368Y-110710934D01*
X162958539Y-110504696D01*
X163017435Y-110284892D01*
X163037268Y-110058200D01*
X163017435Y-109831508D01*
X162958539Y-109611704D01*
X162862368Y-109405466D01*
X162731847Y-109219061D01*
X162731845Y-109219058D01*
X162570941Y-109058154D01*
X162384534Y-108927632D01*
X162384528Y-108927629D01*
X162326525Y-108900582D01*
X162274085Y-108854410D01*
X162254933Y-108787217D01*
X162275148Y-108720335D01*
X162326525Y-108675818D01*
X162384534Y-108648768D01*
X162570939Y-108518247D01*
X162731847Y-108357339D01*
X162862368Y-108170934D01*
X162958539Y-107964696D01*
X163017435Y-107744892D01*
X163037268Y-107518200D01*
X163033342Y-107473331D01*
X163031601Y-107453430D01*
X163017435Y-107291508D01*
X162970622Y-107116798D01*
X162958541Y-107071711D01*
X162958538Y-107071702D01*
X162947654Y-107048361D01*
X162862368Y-106865466D01*
X162731847Y-106679061D01*
X162731845Y-106679058D01*
X162570941Y-106518154D01*
X162384534Y-106387632D01*
X162384528Y-106387629D01*
X162326525Y-106360582D01*
X162274085Y-106314410D01*
X162254933Y-106247217D01*
X162275148Y-106180335D01*
X162326525Y-106135818D01*
X162384534Y-106108768D01*
X162570939Y-105978247D01*
X162731847Y-105817339D01*
X162862368Y-105630934D01*
X162958539Y-105424696D01*
X163017435Y-105204892D01*
X163035073Y-105003284D01*
X163037268Y-104978201D01*
X163037268Y-104978198D01*
X163031236Y-104909251D01*
X163017435Y-104751508D01*
X162972716Y-104584615D01*
X162958541Y-104531711D01*
X162958538Y-104531702D01*
X162954164Y-104522321D01*
X162862368Y-104325466D01*
X162731847Y-104139061D01*
X162731845Y-104139058D01*
X162570941Y-103978154D01*
X162384534Y-103847632D01*
X162384528Y-103847629D01*
X162326525Y-103820582D01*
X162274085Y-103774410D01*
X162254933Y-103707217D01*
X162275148Y-103640335D01*
X162326525Y-103595818D01*
X162346323Y-103586586D01*
X162384534Y-103568768D01*
X162570939Y-103438247D01*
X162731847Y-103277339D01*
X162862368Y-103090934D01*
X162958539Y-102884696D01*
X163017435Y-102664892D01*
X163037268Y-102438200D01*
X163017435Y-102211508D01*
X162963370Y-102009735D01*
X162958541Y-101991711D01*
X162958538Y-101991702D01*
X162862368Y-101785466D01*
X162764639Y-101645893D01*
X162731845Y-101599058D01*
X162570941Y-101438154D01*
X162384534Y-101307632D01*
X162384532Y-101307631D01*
X162326525Y-101280582D01*
X162325932Y-101280305D01*
X162273494Y-101234134D01*
X162254342Y-101166940D01*
X162274558Y-101100059D01*
X162325934Y-101055541D01*
X162384284Y-101028332D01*
X162570620Y-100897857D01*
X162731457Y-100737020D01*
X162861934Y-100550682D01*
X162958065Y-100344526D01*
X162958069Y-100344517D01*
X163010672Y-100148200D01*
X162164812Y-100148200D01*
X162197725Y-100091193D01*
X162231800Y-99964026D01*
X162231800Y-99832374D01*
X162197725Y-99705207D01*
X162164812Y-99648200D01*
X163010672Y-99648200D01*
X163010672Y-99648199D01*
X162958069Y-99451882D01*
X162958065Y-99451873D01*
X162861934Y-99245717D01*
X162731457Y-99059379D01*
X162570620Y-98898542D01*
X162384282Y-98768065D01*
X162325933Y-98740857D01*
X162273494Y-98694684D01*
X162254342Y-98627491D01*
X162274558Y-98560610D01*
X162325929Y-98516095D01*
X162384534Y-98488768D01*
X162570939Y-98358247D01*
X162731847Y-98197339D01*
X162862368Y-98010934D01*
X162958539Y-97804696D01*
X163017435Y-97584892D01*
X163037268Y-97358200D01*
X163017435Y-97131508D01*
X162958539Y-96911704D01*
X162862368Y-96705466D01*
X162731847Y-96519061D01*
X162731845Y-96519058D01*
X162570941Y-96358154D01*
X162384534Y-96227632D01*
X162384528Y-96227629D01*
X162326525Y-96200582D01*
X162274085Y-96154410D01*
X162254933Y-96087217D01*
X162275148Y-96020335D01*
X162326525Y-95975818D01*
X162327119Y-95975541D01*
X162384534Y-95948768D01*
X162570939Y-95818247D01*
X162731847Y-95657339D01*
X162862368Y-95470934D01*
X162958539Y-95264696D01*
X163017435Y-95044892D01*
X163037268Y-94818200D01*
X163017435Y-94591508D01*
X162958539Y-94371704D01*
X162862368Y-94165466D01*
X162731847Y-93979061D01*
X162731845Y-93979058D01*
X162570943Y-93818156D01*
X162546336Y-93800926D01*
X162502712Y-93746349D01*
X162495519Y-93676850D01*
X162527041Y-93614496D01*
X162587271Y-93579082D01*
X162604204Y-93576061D01*
X162639283Y-93572291D01*
X162774131Y-93521996D01*
X162889346Y-93435746D01*
X162975596Y-93320531D01*
X163025891Y-93185683D01*
X163032300Y-93126073D01*
X163032299Y-91430328D01*
X163025891Y-91370717D01*
X162991367Y-91278154D01*
X162975597Y-91235871D01*
X162975593Y-91235864D01*
X162889347Y-91120655D01*
X162889344Y-91120652D01*
X162774135Y-91034406D01*
X162774128Y-91034402D01*
X162639282Y-90984108D01*
X162639283Y-90984108D01*
X162579683Y-90977701D01*
X162579681Y-90977700D01*
X162579673Y-90977700D01*
X162579664Y-90977700D01*
X160883929Y-90977700D01*
X160883923Y-90977701D01*
X160824316Y-90984108D01*
X160689471Y-91034402D01*
X160689464Y-91034406D01*
X160574255Y-91120652D01*
X160574252Y-91120655D01*
X160488006Y-91235864D01*
X160488002Y-91235871D01*
X160437708Y-91370717D01*
X160431301Y-91430316D01*
X160431301Y-91430323D01*
X160431300Y-91430335D01*
X160431300Y-93126070D01*
X160431301Y-93126076D01*
X160437708Y-93185683D01*
X160488002Y-93320528D01*
X160488006Y-93320535D01*
X160574252Y-93435744D01*
X160574255Y-93435747D01*
X160689464Y-93521993D01*
X160689471Y-93521997D01*
X160734418Y-93538761D01*
X160824317Y-93572291D01*
X160859396Y-93576062D01*
X160923944Y-93602799D01*
X160963793Y-93660191D01*
X160966288Y-93730016D01*
X160930636Y-93790105D01*
X160917264Y-93800925D01*
X160892658Y-93818154D01*
X160731754Y-93979058D01*
X160601232Y-94165465D01*
X160601231Y-94165467D01*
X160505061Y-94371702D01*
X160505058Y-94371711D01*
X160446166Y-94591502D01*
X160446164Y-94591513D01*
X160426332Y-94818198D01*
X159174300Y-94818198D01*
X159174300Y-82349000D01*
X159193985Y-82281961D01*
X159246789Y-82236206D01*
X159298300Y-82225000D01*
X180309696Y-82225000D01*
X180376735Y-82244685D01*
G37*
%TD.AperFunction*%
%TD*%
M02*
