%TF.GenerationSoftware,KiCad,Pcbnew,8.0.7*%
%TF.CreationDate,2025-07-22T20:11:00+09:00*%
%TF.ProjectId,Arduino magnetic gate,41726475-696e-46f2-906d-61676e657469,rev?*%
%TF.SameCoordinates,Original*%
%TF.FileFunction,Soldermask,Top*%
%TF.FilePolarity,Negative*%
%FSLAX46Y46*%
G04 Gerber Fmt 4.6, Leading zero omitted, Abs format (unit mm)*
G04 Created by KiCad (PCBNEW 8.0.7) date 2025-07-22 20:11:00*
%MOMM*%
%LPD*%
G01*
G04 APERTURE LIST*
G04 Aperture macros list*
%AMRoundRect*
0 Rectangle with rounded corners*
0 $1 Rounding radius*
0 $2 $3 $4 $5 $6 $7 $8 $9 X,Y pos of 4 corners*
0 Add a 4 corners polygon primitive as box body*
4,1,4,$2,$3,$4,$5,$6,$7,$8,$9,$2,$3,0*
0 Add four circle primitives for the rounded corners*
1,1,$1+$1,$2,$3*
1,1,$1+$1,$4,$5*
1,1,$1+$1,$6,$7*
1,1,$1+$1,$8,$9*
0 Add four rect primitives between the rounded corners*
20,1,$1+$1,$2,$3,$4,$5,0*
20,1,$1+$1,$4,$5,$6,$7,0*
20,1,$1+$1,$6,$7,$8,$9,0*
20,1,$1+$1,$8,$9,$2,$3,0*%
G04 Aperture macros list end*
%ADD10C,3.500000*%
%ADD11R,1.905000X2.000000*%
%ADD12O,1.905000X2.000000*%
%ADD13O,1.700000X1.950000*%
%ADD14RoundRect,0.250000X-0.600000X-0.725000X0.600000X-0.725000X0.600000X0.725000X-0.600000X0.725000X0*%
%ADD15R,2.400000X2.400000*%
%ADD16C,2.400000*%
%ADD17O,2.200000X2.200000*%
%ADD18R,2.200000X2.200000*%
%ADD19R,1.600000X1.600000*%
%ADD20C,1.600000*%
%ADD21R,2.400000X1.600000*%
%ADD22O,2.400000X1.600000*%
%ADD23O,1.600000X1.600000*%
G04 APERTURE END LIST*
D10*
%TO.C,Q2*%
X209931000Y-86397600D03*
D11*
X207391000Y-103057600D03*
D12*
X209931000Y-103057600D03*
X212471000Y-103057600D03*
%TD*%
D13*
%TO.C,J2*%
X192074800Y-127787400D03*
X189574800Y-127787400D03*
X187074800Y-127787400D03*
D14*
X184574800Y-127787400D03*
%TD*%
D15*
%TO.C,J1*%
X208041600Y-127685800D03*
D16*
X211541600Y-127685800D03*
X215041600Y-127685800D03*
X218541600Y-127685800D03*
%TD*%
D17*
%TO.C,D2*%
X204089000Y-114274600D03*
D18*
X214249000Y-114274600D03*
%TD*%
D19*
%TO.C,C1*%
X222504000Y-112928400D03*
D20*
X222504000Y-110428400D03*
%TD*%
D21*
%TO.C,U1*%
X194274200Y-106431000D03*
D22*
X194274200Y-103891000D03*
X186654200Y-103891000D03*
X186654200Y-106431000D03*
%TD*%
D20*
%TO.C,R2*%
X186639200Y-99237800D03*
D23*
X194259200Y-99237800D03*
%TD*%
D20*
%TO.C,R1*%
X193852800Y-110794800D03*
D23*
X186232800Y-110794800D03*
%TD*%
D18*
%TO.C,D1*%
X204190600Y-109372400D03*
D17*
X214350600Y-109372400D03*
%TD*%
D19*
%TO.C,A1*%
X161731800Y-92278200D03*
D23*
X161731800Y-94818200D03*
X161731800Y-97358200D03*
X161731800Y-99898200D03*
X161731800Y-102438200D03*
X161731800Y-104978200D03*
X161731800Y-107518200D03*
X161731800Y-110058200D03*
X161731800Y-112598200D03*
X161731800Y-115138200D03*
X161731800Y-117678200D03*
X161731800Y-120218200D03*
X161731800Y-122758200D03*
X161731800Y-125298200D03*
X161731800Y-127838200D03*
X176971800Y-127838200D03*
X176971800Y-125298200D03*
X176971800Y-122758200D03*
X176971800Y-120218200D03*
X176971800Y-117678200D03*
X176971800Y-115138200D03*
X176971800Y-112598200D03*
X176971800Y-110058200D03*
X176971800Y-107518200D03*
X176971800Y-104978200D03*
X176971800Y-102438200D03*
X176971800Y-99898200D03*
X176971800Y-97358200D03*
X176971800Y-94818200D03*
X176971800Y-92278200D03*
%TD*%
M02*
