%TF.GenerationSoftware,KiCad,Pcbnew,8.0.7*%
%TF.CreationDate,2025-07-22T20:11:00+09:00*%
%TF.ProjectId,Arduino magnetic gate,41726475-696e-46f2-906d-61676e657469,rev?*%
%TF.SameCoordinates,Original*%
%TF.FileFunction,Copper,L2,Bot*%
%TF.FilePolarity,Positive*%
%FSLAX46Y46*%
G04 Gerber Fmt 4.6, Leading zero omitted, Abs format (unit mm)*
G04 Created by KiCad (PCBNEW 8.0.7) date 2025-07-22 20:11:00*
%MOMM*%
%LPD*%
G01*
G04 APERTURE LIST*
G04 Aperture macros list*
%AMRoundRect*
0 Rectangle with rounded corners*
0 $1 Rounding radius*
0 $2 $3 $4 $5 $6 $7 $8 $9 X,Y pos of 4 corners*
0 Add a 4 corners polygon primitive as box body*
4,1,4,$2,$3,$4,$5,$6,$7,$8,$9,$2,$3,0*
0 Add four circle primitives for the rounded corners*
1,1,$1+$1,$2,$3*
1,1,$1+$1,$4,$5*
1,1,$1+$1,$6,$7*
1,1,$1+$1,$8,$9*
0 Add four rect primitives between the rounded corners*
20,1,$1+$1,$2,$3,$4,$5,0*
20,1,$1+$1,$4,$5,$6,$7,0*
20,1,$1+$1,$6,$7,$8,$9,0*
20,1,$1+$1,$8,$9,$2,$3,0*%
G04 Aperture macros list end*
%TA.AperFunction,ComponentPad*%
%ADD10R,1.905000X2.000000*%
%TD*%
%TA.AperFunction,ComponentPad*%
%ADD11O,1.905000X2.000000*%
%TD*%
%TA.AperFunction,ComponentPad*%
%ADD12O,1.700000X1.950000*%
%TD*%
%TA.AperFunction,ComponentPad*%
%ADD13RoundRect,0.250000X-0.600000X-0.725000X0.600000X-0.725000X0.600000X0.725000X-0.600000X0.725000X0*%
%TD*%
%TA.AperFunction,ComponentPad*%
%ADD14R,2.400000X2.400000*%
%TD*%
%TA.AperFunction,ComponentPad*%
%ADD15C,2.400000*%
%TD*%
%TA.AperFunction,ComponentPad*%
%ADD16O,2.200000X2.200000*%
%TD*%
%TA.AperFunction,ComponentPad*%
%ADD17R,2.200000X2.200000*%
%TD*%
%TA.AperFunction,ComponentPad*%
%ADD18R,1.600000X1.600000*%
%TD*%
%TA.AperFunction,ComponentPad*%
%ADD19C,1.600000*%
%TD*%
%TA.AperFunction,ComponentPad*%
%ADD20R,2.400000X1.600000*%
%TD*%
%TA.AperFunction,ComponentPad*%
%ADD21O,2.400000X1.600000*%
%TD*%
%TA.AperFunction,ComponentPad*%
%ADD22O,1.600000X1.600000*%
%TD*%
%TA.AperFunction,ViaPad*%
%ADD23C,5.000000*%
%TD*%
%TA.AperFunction,Conductor*%
%ADD24C,0.609600*%
%TD*%
%TA.AperFunction,Conductor*%
%ADD25C,0.304800*%
%TD*%
G04 APERTURE END LIST*
D10*
%TO.P,Q2,1,G*%
%TO.N,Net-(Q2-G)*%
X207391000Y-103057600D03*
D11*
%TO.P,Q2,2,D*%
%TO.N,Coil*%
X209931000Y-103057600D03*
%TO.P,Q2,3,S*%
%TO.N,GND*%
X212471000Y-103057600D03*
%TD*%
D12*
%TO.P,J2,4,Pin_4*%
%TO.N,Net-(A1-SDA{slash}A4)*%
X192074800Y-127787400D03*
%TO.P,J2,3,Pin_3*%
%TO.N,Net-(A1-SCL{slash}A5)*%
X189574800Y-127787400D03*
%TO.P,J2,2,Pin_2*%
%TO.N,+5V*%
X187074800Y-127787400D03*
D13*
%TO.P,J2,1,Pin_1*%
%TO.N,GND2*%
X184574800Y-127787400D03*
%TD*%
D14*
%TO.P,J1,1,Pin_1*%
%TO.N,GND*%
X208041600Y-127685800D03*
D15*
%TO.P,J1,2,Pin_2*%
%TO.N,Net-(D2-A)*%
X211541600Y-127685800D03*
%TO.P,J1,3,Pin_3*%
%TO.N,Coil*%
X215041600Y-127685800D03*
%TO.P,J1,4,Pin_4*%
%TO.N,+12C*%
X218541600Y-127685800D03*
%TD*%
D16*
%TO.P,D2,2,A*%
%TO.N,Net-(D2-A)*%
X204089000Y-114274600D03*
D17*
%TO.P,D2,1,K*%
%TO.N,+12C*%
X214249000Y-114274600D03*
%TD*%
D18*
%TO.P,C1,1*%
%TO.N,+12C*%
X222504000Y-112928400D03*
D19*
%TO.P,C1,2*%
%TO.N,GND*%
X222504000Y-110428400D03*
%TD*%
D20*
%TO.P,U1,1*%
%TO.N,Net-(R1-Pad1)*%
X194274200Y-106431000D03*
D21*
%TO.P,U1,2*%
%TO.N,GND2*%
X194274200Y-103891000D03*
%TO.P,U1,3*%
%TO.N,GND*%
X186654200Y-103891000D03*
%TO.P,U1,4*%
%TO.N,Net-(Q2-G)*%
X186654200Y-106431000D03*
%TD*%
D19*
%TO.P,R2,1*%
%TO.N,Net-(Q2-G)*%
X186639200Y-99237800D03*
D22*
%TO.P,R2,2*%
%TO.N,+12C*%
X194259200Y-99237800D03*
%TD*%
D19*
%TO.P,R1,1*%
%TO.N,Net-(R1-Pad1)*%
X193852800Y-110794800D03*
D22*
%TO.P,R1,2*%
%TO.N,Net-(A1-D7)*%
X186232800Y-110794800D03*
%TD*%
D17*
%TO.P,D1,1,K*%
%TO.N,Coil*%
X204190600Y-109372400D03*
D16*
%TO.P,D1,2,A*%
%TO.N,GND*%
X214350600Y-109372400D03*
%TD*%
D18*
%TO.P,A1,1,D1/TX*%
%TO.N,unconnected-(A1-D1{slash}TX-Pad1)*%
X161731800Y-92278200D03*
D22*
%TO.P,A1,2,D0/RX*%
%TO.N,unconnected-(A1-D0{slash}RX-Pad2)*%
X161731800Y-94818200D03*
%TO.P,A1,3,~{RESET}*%
%TO.N,unconnected-(A1-~{RESET}-Pad3)*%
X161731800Y-97358200D03*
%TO.P,A1,4,GND*%
%TO.N,GND2*%
X161731800Y-99898200D03*
%TO.P,A1,5,D2*%
%TO.N,unconnected-(A1-D2-Pad5)*%
X161731800Y-102438200D03*
%TO.P,A1,6,D3*%
%TO.N,unconnected-(A1-D3-Pad6)*%
X161731800Y-104978200D03*
%TO.P,A1,7,D4*%
%TO.N,unconnected-(A1-D4-Pad7)*%
X161731800Y-107518200D03*
%TO.P,A1,8,D5*%
%TO.N,unconnected-(A1-D5-Pad8)*%
X161731800Y-110058200D03*
%TO.P,A1,9,D6*%
%TO.N,unconnected-(A1-D6-Pad9)*%
X161731800Y-112598200D03*
%TO.P,A1,10,D7*%
%TO.N,Net-(A1-D7)*%
X161731800Y-115138200D03*
%TO.P,A1,11,D8*%
%TO.N,unconnected-(A1-D8-Pad11)*%
X161731800Y-117678200D03*
%TO.P,A1,12,D9*%
%TO.N,unconnected-(A1-D9-Pad12)*%
X161731800Y-120218200D03*
%TO.P,A1,13,D10/CS*%
%TO.N,unconnected-(A1-D10{slash}CS-Pad13)*%
X161731800Y-122758200D03*
%TO.P,A1,14,D11/COPI*%
%TO.N,unconnected-(A1-D11{slash}COPI-Pad14)*%
X161731800Y-125298200D03*
%TO.P,A1,15,D12/CIPO*%
%TO.N,unconnected-(A1-D12{slash}CIPO-Pad15)*%
X161731800Y-127838200D03*
%TO.P,A1,16,D13/SCK*%
%TO.N,unconnected-(A1-D13{slash}SCK-Pad16)*%
X176971800Y-127838200D03*
%TO.P,A1,17,3V3*%
%TO.N,unconnected-(A1-3V3-Pad17)*%
X176971800Y-125298200D03*
%TO.P,A1,18,REF*%
%TO.N,unconnected-(A1-REF-Pad18)*%
X176971800Y-122758200D03*
%TO.P,A1,19,A0*%
%TO.N,unconnected-(A1-A0-Pad19)*%
X176971800Y-120218200D03*
%TO.P,A1,20,A1*%
%TO.N,unconnected-(A1-A1-Pad20)*%
X176971800Y-117678200D03*
%TO.P,A1,21,A2*%
%TO.N,unconnected-(A1-A2-Pad21)*%
X176971800Y-115138200D03*
%TO.P,A1,22,A3*%
%TO.N,unconnected-(A1-A3-Pad22)*%
X176971800Y-112598200D03*
%TO.P,A1,23,SDA/A4*%
%TO.N,Net-(A1-SDA{slash}A4)*%
X176971800Y-110058200D03*
%TO.P,A1,24,SCL/A5*%
%TO.N,Net-(A1-SCL{slash}A5)*%
X176971800Y-107518200D03*
%TO.P,A1,25,A6*%
%TO.N,unconnected-(A1-A6-Pad25)*%
X176971800Y-104978200D03*
%TO.P,A1,26,A7*%
%TO.N,unconnected-(A1-A7-Pad26)*%
X176971800Y-102438200D03*
%TO.P,A1,27,VUSB/5V*%
%TO.N,+5V*%
X176971800Y-99898200D03*
%TO.P,A1,28,REC*%
%TO.N,unconnected-(A1-REC-Pad28)*%
X176971800Y-97358200D03*
%TO.P,A1,29,GND*%
%TO.N,GND2*%
X176971800Y-94818200D03*
%TO.P,A1,30,VIN*%
%TO.N,unconnected-(A1-VIN-Pad30)*%
X176971800Y-92278200D03*
%TD*%
D23*
%TO.N,*%
X181356000Y-85293200D03*
X223824800Y-86131400D03*
X224003800Y-127877500D03*
%TD*%
D24*
%TO.N,GND*%
X208990500Y-130932300D02*
X208041600Y-129983400D01*
X226387000Y-110428400D02*
X227058600Y-111100000D01*
X226017700Y-130932300D02*
X208990500Y-130932300D01*
X222504000Y-110428400D02*
X226387000Y-110428400D01*
X227058600Y-111100000D02*
X227058600Y-129891400D01*
X227058600Y-129891400D02*
X226017700Y-130932300D01*
D25*
%TO.N,Net-(R1-Pad1)*%
X194274200Y-108798600D02*
X194274200Y-106431000D01*
X193852800Y-109220000D02*
X194274200Y-108798600D01*
X193852800Y-110794800D02*
X193852800Y-109220000D01*
D24*
%TO.N,Net-(Q2-G)*%
X197621800Y-103057600D02*
X196189600Y-101625400D01*
X207391000Y-103057600D02*
X197621800Y-103057600D01*
X196189600Y-101625400D02*
X189204600Y-101625400D01*
X189204600Y-101625400D02*
X189204600Y-103022400D01*
X188391800Y-99237800D02*
X189204600Y-100050600D01*
X189204600Y-100050600D02*
X189204600Y-103022400D01*
X186639200Y-99237800D02*
X188391800Y-99237800D01*
X189204600Y-103022400D02*
X189204600Y-105410000D01*
X188183600Y-106431000D02*
X186654200Y-106431000D01*
X189204600Y-105410000D02*
X188183600Y-106431000D01*
D25*
%TO.N,Net-(A1-D7)*%
X174269400Y-115138200D02*
X161731800Y-115138200D01*
X174472600Y-115112800D02*
X174294800Y-115112800D01*
X174726600Y-114858800D02*
X174472600Y-115112800D01*
X174294800Y-115112800D02*
X174269400Y-115138200D01*
X175158400Y-113919000D02*
X174726600Y-114350800D01*
X185902600Y-113919000D02*
X175158400Y-113919000D01*
X186232800Y-110794800D02*
X186232800Y-113588800D01*
X186232800Y-113588800D02*
X185902600Y-113919000D01*
X174726600Y-114350800D02*
X174726600Y-114858800D01*
D24*
%TO.N,GND*%
X211467100Y-95287500D02*
X212471000Y-96291400D01*
X184747500Y-95287500D02*
X211467100Y-95287500D01*
X183235600Y-96799400D02*
X184747500Y-95287500D01*
X184256600Y-103891000D02*
X183235600Y-102870000D01*
X183235600Y-102870000D02*
X183235600Y-96799400D01*
X212471000Y-96291400D02*
X212471000Y-103057600D01*
X186654200Y-103891000D02*
X184256600Y-103891000D01*
%TO.N,+12C*%
X218846400Y-123063000D02*
X218541600Y-123367800D01*
X218541600Y-123367800D02*
X218541600Y-127685800D01*
X218846400Y-122809000D02*
X218846400Y-123063000D01*
X219684600Y-121970800D02*
X218846400Y-122809000D01*
X221005400Y-121970800D02*
X219684600Y-121970800D01*
X222504000Y-112928400D02*
X222504000Y-120472200D01*
X222504000Y-120472200D02*
X221005400Y-121970800D01*
X219303600Y-112928400D02*
X222504000Y-112928400D01*
X214249000Y-114274600D02*
X217957400Y-114274600D01*
X217957400Y-114274600D02*
X219303600Y-112928400D01*
%TO.N,Coil*%
X215041600Y-121391800D02*
X215041600Y-127685800D01*
X213817200Y-120167400D02*
X215041600Y-121391800D01*
X209931000Y-119126000D02*
X210972400Y-120167400D01*
X209931000Y-109372400D02*
X209931000Y-119126000D01*
X210972400Y-120167400D02*
X213817200Y-120167400D01*
%TO.N,Net-(D2-A)*%
X204089000Y-122301000D02*
X204089000Y-114274600D01*
X204927200Y-123139200D02*
X204089000Y-122301000D01*
X210769200Y-123139200D02*
X204927200Y-123139200D01*
X211541600Y-123911600D02*
X210769200Y-123139200D01*
X211541600Y-127685800D02*
X211541600Y-123911600D01*
%TO.N,Coil*%
X204190600Y-109372400D02*
X209931000Y-109372400D01*
X209931000Y-103057600D02*
X209931000Y-109372400D01*
%TO.N,GND*%
X214350600Y-107475600D02*
X214350600Y-109372400D01*
X212471000Y-105596000D02*
X214350600Y-107475600D01*
X212471000Y-103057600D02*
X212471000Y-105596000D01*
X218528400Y-110428400D02*
X217472400Y-109372400D01*
X217472400Y-109372400D02*
X214350600Y-109372400D01*
X222504000Y-110428400D02*
X218528400Y-110428400D01*
X208041600Y-129983400D02*
X208041600Y-127685800D01*
%TD*%
%TA.AperFunction,Conductor*%
%TO.N,GND*%
G36*
X180376735Y-82244685D02*
G01*
X180422490Y-82297489D01*
X180432434Y-82366647D01*
X180403409Y-82430203D01*
X180352106Y-82465522D01*
X180165547Y-82533423D01*
X180165541Y-82533426D01*
X179853203Y-82690288D01*
X179561194Y-82882346D01*
X179561186Y-82882352D01*
X179293442Y-83107017D01*
X179293440Y-83107019D01*
X179053589Y-83361244D01*
X179053584Y-83361250D01*
X178844870Y-83641602D01*
X178670113Y-83944291D01*
X178670107Y-83944304D01*
X178531674Y-84265227D01*
X178431430Y-84600065D01*
X178431428Y-84600072D01*
X178370739Y-84944261D01*
X178370738Y-84944272D01*
X178350415Y-85293196D01*
X178350415Y-85293203D01*
X178370738Y-85642127D01*
X178370739Y-85642138D01*
X178431428Y-85986327D01*
X178431430Y-85986334D01*
X178531674Y-86321172D01*
X178670107Y-86642095D01*
X178670113Y-86642108D01*
X178844870Y-86944797D01*
X179053584Y-87225149D01*
X179053589Y-87225155D01*
X179109390Y-87284300D01*
X179293442Y-87479383D01*
X179469903Y-87627451D01*
X179561186Y-87704047D01*
X179561194Y-87704053D01*
X179853203Y-87896111D01*
X179853207Y-87896113D01*
X180165549Y-88052977D01*
X180493989Y-88172519D01*
X180834086Y-88253123D01*
X181181241Y-88293700D01*
X181181248Y-88293700D01*
X181530752Y-88293700D01*
X181530759Y-88293700D01*
X181877914Y-88253123D01*
X182218011Y-88172519D01*
X182546451Y-88052977D01*
X182858793Y-87896113D01*
X183127380Y-87719460D01*
X183150805Y-87704053D01*
X183150805Y-87704052D01*
X183150811Y-87704049D01*
X183418558Y-87479383D01*
X183658412Y-87225153D01*
X183867130Y-86944796D01*
X184041889Y-86642104D01*
X184180326Y-86321171D01*
X184196702Y-86266472D01*
X207930500Y-86266472D01*
X207930500Y-86528727D01*
X207945428Y-86642108D01*
X207964730Y-86788716D01*
X208006552Y-86944797D01*
X208032602Y-87042018D01*
X208032605Y-87042028D01*
X208132953Y-87284290D01*
X208132958Y-87284300D01*
X208264075Y-87511403D01*
X208423718Y-87719451D01*
X208423726Y-87719460D01*
X208609140Y-87904874D01*
X208609148Y-87904881D01*
X208817196Y-88064524D01*
X209044299Y-88195641D01*
X209044309Y-88195646D01*
X209281033Y-88293700D01*
X209286581Y-88295998D01*
X209539884Y-88363870D01*
X209799880Y-88398100D01*
X209799887Y-88398100D01*
X210062113Y-88398100D01*
X210062120Y-88398100D01*
X210322116Y-88363870D01*
X210575419Y-88295998D01*
X210817697Y-88195643D01*
X211044803Y-88064524D01*
X211252851Y-87904882D01*
X211252855Y-87904877D01*
X211252860Y-87904874D01*
X211438274Y-87719460D01*
X211438277Y-87719455D01*
X211438282Y-87719451D01*
X211597924Y-87511403D01*
X211729043Y-87284297D01*
X211829398Y-87042019D01*
X211897270Y-86788716D01*
X211931500Y-86528720D01*
X211931500Y-86266480D01*
X211913715Y-86131396D01*
X220819215Y-86131396D01*
X220819215Y-86131403D01*
X220839538Y-86480327D01*
X220839539Y-86480338D01*
X220900228Y-86824527D01*
X220900230Y-86824534D01*
X221000474Y-87159372D01*
X221138907Y-87480295D01*
X221138913Y-87480308D01*
X221313670Y-87782997D01*
X221522384Y-88063349D01*
X221522389Y-88063355D01*
X221625380Y-88172518D01*
X221762242Y-88317583D01*
X221858199Y-88398100D01*
X222029986Y-88542247D01*
X222029994Y-88542253D01*
X222322003Y-88734311D01*
X222322007Y-88734313D01*
X222634349Y-88891177D01*
X222962789Y-89010719D01*
X223302886Y-89091323D01*
X223650041Y-89131900D01*
X223650048Y-89131900D01*
X223999552Y-89131900D01*
X223999559Y-89131900D01*
X224346714Y-89091323D01*
X224686811Y-89010719D01*
X225015251Y-88891177D01*
X225327593Y-88734313D01*
X225619611Y-88542249D01*
X225887358Y-88317583D01*
X226127212Y-88063353D01*
X226335930Y-87782996D01*
X226510689Y-87480304D01*
X226649126Y-87159371D01*
X226749369Y-86824536D01*
X226755686Y-86788714D01*
X226810060Y-86480338D01*
X226810059Y-86480338D01*
X226810062Y-86480327D01*
X226830385Y-86131400D01*
X226810062Y-85782473D01*
X226804895Y-85753171D01*
X226749371Y-85438272D01*
X226749369Y-85438265D01*
X226749369Y-85438264D01*
X226649126Y-85103429D01*
X226510689Y-84782496D01*
X226347131Y-84499205D01*
X226335929Y-84479802D01*
X226127215Y-84199450D01*
X226127210Y-84199444D01*
X226011233Y-84076517D01*
X225887358Y-83945217D01*
X225739288Y-83820972D01*
X225619613Y-83720552D01*
X225619605Y-83720546D01*
X225327596Y-83528488D01*
X225015258Y-83371626D01*
X225015252Y-83371623D01*
X224686812Y-83252081D01*
X224686809Y-83252080D01*
X224346715Y-83171477D01*
X224303319Y-83166404D01*
X223999559Y-83130900D01*
X223650041Y-83130900D01*
X223346280Y-83166404D01*
X223302885Y-83171477D01*
X223302883Y-83171477D01*
X222962790Y-83252080D01*
X222962787Y-83252081D01*
X222634347Y-83371623D01*
X222634341Y-83371626D01*
X222322003Y-83528488D01*
X222029994Y-83720546D01*
X222029986Y-83720552D01*
X221762242Y-83945217D01*
X221762240Y-83945219D01*
X221522389Y-84199444D01*
X221522384Y-84199450D01*
X221313670Y-84479802D01*
X221138913Y-84782491D01*
X221138907Y-84782504D01*
X221000474Y-85103427D01*
X220900230Y-85438265D01*
X220900228Y-85438272D01*
X220839539Y-85782461D01*
X220839538Y-85782472D01*
X220819215Y-86131396D01*
X211913715Y-86131396D01*
X211897270Y-86006484D01*
X211829398Y-85753181D01*
X211829394Y-85753171D01*
X211729046Y-85510909D01*
X211729041Y-85510899D01*
X211597924Y-85283796D01*
X211438281Y-85075748D01*
X211438274Y-85075740D01*
X211252860Y-84890326D01*
X211252851Y-84890318D01*
X211044803Y-84730675D01*
X210817700Y-84599558D01*
X210817690Y-84599553D01*
X210575428Y-84499205D01*
X210575421Y-84499203D01*
X210575419Y-84499202D01*
X210322116Y-84431330D01*
X210264339Y-84423723D01*
X210062127Y-84397100D01*
X210062120Y-84397100D01*
X209799880Y-84397100D01*
X209799872Y-84397100D01*
X209568772Y-84427526D01*
X209539884Y-84431330D01*
X209358983Y-84479802D01*
X209286581Y-84499202D01*
X209286571Y-84499205D01*
X209044309Y-84599553D01*
X209044299Y-84599558D01*
X208817196Y-84730675D01*
X208609148Y-84890318D01*
X208423718Y-85075748D01*
X208264075Y-85283796D01*
X208132958Y-85510899D01*
X208132953Y-85510909D01*
X208032605Y-85753171D01*
X208032602Y-85753181D01*
X208024757Y-85782461D01*
X207964730Y-86006485D01*
X207930500Y-86266472D01*
X184196702Y-86266472D01*
X184280569Y-85986336D01*
X184316518Y-85782461D01*
X184341260Y-85642138D01*
X184341259Y-85642138D01*
X184341262Y-85642127D01*
X184361585Y-85293200D01*
X184361037Y-85283797D01*
X184350532Y-85103429D01*
X184341262Y-84944273D01*
X184331750Y-84890326D01*
X184280571Y-84600072D01*
X184280569Y-84600065D01*
X184280569Y-84600064D01*
X184180326Y-84265229D01*
X184041889Y-83944296D01*
X183867130Y-83641604D01*
X183867129Y-83641602D01*
X183658415Y-83361250D01*
X183658410Y-83361244D01*
X183441090Y-83130900D01*
X183418558Y-83107017D01*
X183270488Y-82982772D01*
X183150813Y-82882352D01*
X183150805Y-82882346D01*
X182858796Y-82690288D01*
X182546458Y-82533426D01*
X182546452Y-82533423D01*
X182359894Y-82465522D01*
X182303630Y-82424096D01*
X182278694Y-82358827D01*
X182293004Y-82290439D01*
X182342015Y-82240643D01*
X182402304Y-82225000D01*
X227238900Y-82225000D01*
X227305939Y-82244685D01*
X227351694Y-82297489D01*
X227362900Y-82349000D01*
X227362900Y-131112600D01*
X227343215Y-131179639D01*
X227290411Y-131225394D01*
X227238900Y-131236600D01*
X159298300Y-131236600D01*
X159231261Y-131216915D01*
X159185506Y-131164111D01*
X159174300Y-131112600D01*
X159174300Y-94818198D01*
X160426332Y-94818198D01*
X160426332Y-94818201D01*
X160446164Y-95044886D01*
X160446166Y-95044897D01*
X160505058Y-95264688D01*
X160505061Y-95264697D01*
X160601231Y-95470932D01*
X160601232Y-95470934D01*
X160731754Y-95657341D01*
X160892658Y-95818245D01*
X160892661Y-95818247D01*
X161079066Y-95948768D01*
X161137075Y-95975818D01*
X161189514Y-96021991D01*
X161208666Y-96089184D01*
X161188450Y-96156065D01*
X161137075Y-96200582D01*
X161079067Y-96227631D01*
X161079065Y-96227632D01*
X160892658Y-96358154D01*
X160731754Y-96519058D01*
X160601232Y-96705465D01*
X160601231Y-96705467D01*
X160505061Y-96911702D01*
X160505058Y-96911711D01*
X160446166Y-97131502D01*
X160446164Y-97131513D01*
X160426332Y-97358198D01*
X160426332Y-97358201D01*
X160446164Y-97584886D01*
X160446166Y-97584897D01*
X160505058Y-97804688D01*
X160505061Y-97804697D01*
X160601231Y-98010932D01*
X160601232Y-98010934D01*
X160731754Y-98197341D01*
X160892658Y-98358245D01*
X160892661Y-98358247D01*
X161079066Y-98488768D01*
X161137075Y-98515818D01*
X161189514Y-98561991D01*
X161208666Y-98629184D01*
X161188450Y-98696065D01*
X161137075Y-98740582D01*
X161079067Y-98767631D01*
X161079065Y-98767632D01*
X160892658Y-98898154D01*
X160731754Y-99059058D01*
X160601232Y-99245465D01*
X160601231Y-99245467D01*
X160505061Y-99451702D01*
X160505058Y-99451711D01*
X160446166Y-99671502D01*
X160446164Y-99671513D01*
X160426332Y-99898198D01*
X160426332Y-99898201D01*
X160446164Y-100124886D01*
X160446166Y-100124897D01*
X160505058Y-100344688D01*
X160505061Y-100344697D01*
X160601231Y-100550932D01*
X160601232Y-100550934D01*
X160731754Y-100737341D01*
X160892658Y-100898245D01*
X160892661Y-100898247D01*
X161079066Y-101028768D01*
X161137075Y-101055818D01*
X161189514Y-101101991D01*
X161208666Y-101169184D01*
X161188450Y-101236065D01*
X161137075Y-101280582D01*
X161079067Y-101307631D01*
X161079065Y-101307632D01*
X160892658Y-101438154D01*
X160731754Y-101599058D01*
X160601232Y-101785465D01*
X160601231Y-101785467D01*
X160505061Y-101991702D01*
X160505058Y-101991711D01*
X160446166Y-102211502D01*
X160446164Y-102211513D01*
X160426332Y-102438198D01*
X160426332Y-102438201D01*
X160446164Y-102664886D01*
X160446166Y-102664897D01*
X160505058Y-102884688D01*
X160505061Y-102884697D01*
X160601231Y-103090932D01*
X160601232Y-103090934D01*
X160731754Y-103277341D01*
X160892658Y-103438245D01*
X160892661Y-103438247D01*
X161079066Y-103568768D01*
X161117277Y-103586586D01*
X161137075Y-103595818D01*
X161189514Y-103641991D01*
X161208666Y-103709184D01*
X161188450Y-103776065D01*
X161137075Y-103820582D01*
X161079067Y-103847631D01*
X161079065Y-103847632D01*
X160892658Y-103978154D01*
X160731754Y-104139058D01*
X160601232Y-104325465D01*
X160601231Y-104325467D01*
X160505061Y-104531702D01*
X160505058Y-104531711D01*
X160446166Y-104751502D01*
X160446164Y-104751513D01*
X160426332Y-104978198D01*
X160426332Y-104978201D01*
X160446164Y-105204886D01*
X160446166Y-105204897D01*
X160505058Y-105424688D01*
X160505061Y-105424697D01*
X160601229Y-105630928D01*
X160601232Y-105630934D01*
X160731754Y-105817341D01*
X160892658Y-105978245D01*
X160892661Y-105978247D01*
X161079066Y-106108768D01*
X161137075Y-106135818D01*
X161189514Y-106181991D01*
X161208666Y-106249184D01*
X161188450Y-106316065D01*
X161137075Y-106360582D01*
X161079067Y-106387631D01*
X161079065Y-106387632D01*
X160892658Y-106518154D01*
X160731754Y-106679058D01*
X160601232Y-106865465D01*
X160601231Y-106865467D01*
X160505061Y-107071702D01*
X160505058Y-107071711D01*
X160446166Y-107291502D01*
X160446164Y-107291513D01*
X160426332Y-107518198D01*
X160426332Y-107518201D01*
X160446164Y-107744886D01*
X160446166Y-107744897D01*
X160505058Y-107964688D01*
X160505061Y-107964697D01*
X160601231Y-108170932D01*
X160601232Y-108170934D01*
X160731754Y-108357341D01*
X160892658Y-108518245D01*
X160892661Y-108518247D01*
X161079066Y-108648768D01*
X161137075Y-108675818D01*
X161189514Y-108721991D01*
X161208666Y-108789184D01*
X161188450Y-108856065D01*
X161137075Y-108900582D01*
X161079067Y-108927631D01*
X161079065Y-108927632D01*
X160892658Y-109058154D01*
X160731754Y-109219058D01*
X160601232Y-109405465D01*
X160601231Y-109405467D01*
X160505061Y-109611702D01*
X160505058Y-109611711D01*
X160446166Y-109831502D01*
X160446164Y-109831513D01*
X160426332Y-110058198D01*
X160426332Y-110058201D01*
X160446164Y-110284886D01*
X160446166Y-110284897D01*
X160505058Y-110504688D01*
X160505061Y-110504697D01*
X160601231Y-110710932D01*
X160601232Y-110710934D01*
X160731754Y-110897341D01*
X160892658Y-111058245D01*
X160892661Y-111058247D01*
X161079066Y-111188768D01*
X161137075Y-111215818D01*
X161189514Y-111261991D01*
X161208666Y-111329184D01*
X161188450Y-111396065D01*
X161137075Y-111440582D01*
X161079067Y-111467631D01*
X161079065Y-111467632D01*
X160892658Y-111598154D01*
X160731754Y-111759058D01*
X160601232Y-111945465D01*
X160601231Y-111945467D01*
X160505061Y-112151702D01*
X160505058Y-112151711D01*
X160446166Y-112371502D01*
X160446164Y-112371513D01*
X160426332Y-112598198D01*
X160426332Y-112598201D01*
X160446164Y-112824886D01*
X160446166Y-112824897D01*
X160505058Y-113044688D01*
X160505061Y-113044697D01*
X160601231Y-113250932D01*
X160601232Y-113250934D01*
X160731754Y-113437341D01*
X160892658Y-113598245D01*
X160892661Y-113598247D01*
X161079066Y-113728768D01*
X161131857Y-113753385D01*
X161137075Y-113755818D01*
X161189514Y-113801991D01*
X161208666Y-113869184D01*
X161188450Y-113936065D01*
X161137075Y-113980582D01*
X161079067Y-114007631D01*
X161079065Y-114007632D01*
X160892658Y-114138154D01*
X160731754Y-114299058D01*
X160601232Y-114485465D01*
X160601232Y-114485466D01*
X160505061Y-114691702D01*
X160505058Y-114691711D01*
X160446166Y-114911502D01*
X160446164Y-114911513D01*
X160426332Y-115138198D01*
X160426332Y-115138201D01*
X160446164Y-115364886D01*
X160446166Y-115364897D01*
X160505058Y-115584688D01*
X160505061Y-115584697D01*
X160601231Y-115790932D01*
X160601232Y-115790934D01*
X160731754Y-115977341D01*
X160892658Y-116138245D01*
X160892661Y-116138247D01*
X161079066Y-116268768D01*
X161137075Y-116295818D01*
X161189514Y-116341991D01*
X161208666Y-116409184D01*
X161188450Y-116476065D01*
X161137075Y-116520582D01*
X161079067Y-116547631D01*
X161079065Y-116547632D01*
X160892658Y-116678154D01*
X160731754Y-116839058D01*
X160601232Y-117025465D01*
X160601231Y-117025467D01*
X160505061Y-117231702D01*
X160505058Y-117231711D01*
X160446166Y-117451502D01*
X160446164Y-117451513D01*
X160426332Y-117678198D01*
X160426332Y-117678201D01*
X160446164Y-117904886D01*
X160446166Y-117904897D01*
X160505058Y-118124688D01*
X160505061Y-118124697D01*
X160601231Y-118330932D01*
X160601232Y-118330934D01*
X160731754Y-118517341D01*
X160892658Y-118678245D01*
X160892661Y-118678247D01*
X161079066Y-118808768D01*
X161121924Y-118828753D01*
X161137075Y-118835818D01*
X161189514Y-118881991D01*
X161208666Y-118949184D01*
X161188450Y-119016065D01*
X161137075Y-119060582D01*
X161079067Y-119087631D01*
X161079065Y-119087632D01*
X160892658Y-119218154D01*
X160731754Y-119379058D01*
X160601232Y-119565465D01*
X160601231Y-119565467D01*
X160505061Y-119771702D01*
X160505058Y-119771711D01*
X160446166Y-119991502D01*
X160446164Y-119991513D01*
X160426332Y-120218198D01*
X160426332Y-120218201D01*
X160446164Y-120444886D01*
X160446166Y-120444897D01*
X160505058Y-120664688D01*
X160505061Y-120664697D01*
X160601231Y-120870932D01*
X160601232Y-120870934D01*
X160731754Y-121057341D01*
X160892658Y-121218245D01*
X160892661Y-121218247D01*
X161079066Y-121348768D01*
X161137075Y-121375818D01*
X161189514Y-121421991D01*
X161208666Y-121489184D01*
X161188450Y-121556065D01*
X161137075Y-121600582D01*
X161079067Y-121627631D01*
X161079065Y-121627632D01*
X160892658Y-121758154D01*
X160731754Y-121919058D01*
X160601232Y-122105465D01*
X160601231Y-122105467D01*
X160505061Y-122311702D01*
X160505058Y-122311711D01*
X160446166Y-122531502D01*
X160446164Y-122531513D01*
X160426332Y-122758198D01*
X160426332Y-122758201D01*
X160446164Y-122984886D01*
X160446166Y-122984897D01*
X160505058Y-123204688D01*
X160505061Y-123204697D01*
X160601231Y-123410932D01*
X160601232Y-123410934D01*
X160731754Y-123597341D01*
X160892658Y-123758245D01*
X160892661Y-123758247D01*
X161079066Y-123888768D01*
X161137075Y-123915818D01*
X161189514Y-123961991D01*
X161208666Y-124029184D01*
X161188450Y-124096065D01*
X161137075Y-124140582D01*
X161079067Y-124167631D01*
X161079065Y-124167632D01*
X160892658Y-124298154D01*
X160731754Y-124459058D01*
X160601232Y-124645465D01*
X160601231Y-124645467D01*
X160505061Y-124851702D01*
X160505058Y-124851711D01*
X160446166Y-125071502D01*
X160446164Y-125071513D01*
X160426332Y-125298198D01*
X160426332Y-125298201D01*
X160446164Y-125524886D01*
X160446166Y-125524897D01*
X160505058Y-125744688D01*
X160505061Y-125744697D01*
X160601231Y-125950932D01*
X160601232Y-125950934D01*
X160731754Y-126137341D01*
X160892658Y-126298245D01*
X160892661Y-126298247D01*
X161079066Y-126428768D01*
X161137075Y-126455818D01*
X161189514Y-126501991D01*
X161208666Y-126569184D01*
X161188450Y-126636065D01*
X161137075Y-126680582D01*
X161079067Y-126707631D01*
X161079065Y-126707632D01*
X160892658Y-126838154D01*
X160731754Y-126999058D01*
X160601232Y-127185465D01*
X160601231Y-127185467D01*
X160505061Y-127391702D01*
X160505058Y-127391711D01*
X160446166Y-127611502D01*
X160446164Y-127611513D01*
X160426332Y-127838198D01*
X160426332Y-127838201D01*
X160446164Y-128064886D01*
X160446166Y-128064897D01*
X160505058Y-128284688D01*
X160505061Y-128284697D01*
X160601231Y-128490932D01*
X160601232Y-128490934D01*
X160731754Y-128677341D01*
X160892658Y-128838245D01*
X160892661Y-128838247D01*
X161079066Y-128968768D01*
X161285304Y-129064939D01*
X161285309Y-129064940D01*
X161285311Y-129064941D01*
X161294679Y-129067451D01*
X161505108Y-129123835D01*
X161667030Y-129138001D01*
X161731798Y-129143668D01*
X161731800Y-129143668D01*
X161731802Y-129143668D01*
X161788473Y-129138709D01*
X161958492Y-129123835D01*
X162178296Y-129064939D01*
X162384534Y-128968768D01*
X162570939Y-128838247D01*
X162731847Y-128677339D01*
X162862368Y-128490934D01*
X162958539Y-128284696D01*
X163017435Y-128064892D01*
X163037268Y-127838200D01*
X163017435Y-127611508D01*
X162958539Y-127391704D01*
X162862368Y-127185466D01*
X162731847Y-126999061D01*
X162731845Y-126999058D01*
X162570941Y-126838154D01*
X162384534Y-126707632D01*
X162384528Y-126707629D01*
X162326525Y-126680582D01*
X162274085Y-126634410D01*
X162254933Y-126567217D01*
X162275148Y-126500335D01*
X162326525Y-126455818D01*
X162384534Y-126428768D01*
X162570939Y-126298247D01*
X162731847Y-126137339D01*
X162862368Y-125950934D01*
X162958539Y-125744696D01*
X163017435Y-125524892D01*
X163037268Y-125298200D01*
X163017435Y-125071508D01*
X162958539Y-124851704D01*
X162862368Y-124645466D01*
X162731847Y-124459061D01*
X162731845Y-124459058D01*
X162570941Y-124298154D01*
X162384534Y-124167632D01*
X162384528Y-124167629D01*
X162326525Y-124140582D01*
X162274085Y-124094410D01*
X162254933Y-124027217D01*
X162275148Y-123960335D01*
X162326525Y-123915818D01*
X162384534Y-123888768D01*
X162570939Y-123758247D01*
X162731847Y-123597339D01*
X162862368Y-123410934D01*
X162958539Y-123204696D01*
X163017435Y-122984892D01*
X163037268Y-122758200D01*
X163017435Y-122531508D01*
X162958539Y-122311704D01*
X162862368Y-122105466D01*
X162731847Y-121919061D01*
X162731845Y-121919058D01*
X162570941Y-121758154D01*
X162384534Y-121627632D01*
X162384528Y-121627629D01*
X162326525Y-121600582D01*
X162274085Y-121554410D01*
X162254933Y-121487217D01*
X162275148Y-121420335D01*
X162326525Y-121375818D01*
X162384534Y-121348768D01*
X162570939Y-121218247D01*
X162731847Y-121057339D01*
X162862368Y-120870934D01*
X162958539Y-120664696D01*
X163017435Y-120444892D01*
X163037268Y-120218200D01*
X163017435Y-119991508D01*
X162958539Y-119771704D01*
X162862368Y-119565466D01*
X162731847Y-119379061D01*
X162731845Y-119379058D01*
X162570941Y-119218154D01*
X162384534Y-119087632D01*
X162384528Y-119087629D01*
X162326525Y-119060582D01*
X162274085Y-119014410D01*
X162254933Y-118947217D01*
X162275148Y-118880335D01*
X162326525Y-118835818D01*
X162341676Y-118828753D01*
X162384534Y-118808768D01*
X162570939Y-118678247D01*
X162731847Y-118517339D01*
X162862368Y-118330934D01*
X162958539Y-118124696D01*
X163017435Y-117904892D01*
X163037268Y-117678200D01*
X163017435Y-117451508D01*
X162958539Y-117231704D01*
X162862368Y-117025466D01*
X162731847Y-116839061D01*
X162731845Y-116839058D01*
X162570941Y-116678154D01*
X162384534Y-116547632D01*
X162384528Y-116547629D01*
X162326525Y-116520582D01*
X162274085Y-116474410D01*
X162254933Y-116407217D01*
X162275148Y-116340335D01*
X162326525Y-116295818D01*
X162384534Y-116268768D01*
X162570939Y-116138247D01*
X162731847Y-115977339D01*
X162803436Y-115875099D01*
X162825228Y-115843977D01*
X162879805Y-115800352D01*
X162926803Y-115791100D01*
X174333707Y-115791100D01*
X174449419Y-115768083D01*
X174473611Y-115765700D01*
X174536907Y-115765700D01*
X174621765Y-115748819D01*
X174663044Y-115740609D01*
X174781864Y-115691392D01*
X174888800Y-115619941D01*
X175233740Y-115275000D01*
X175305192Y-115168064D01*
X175354409Y-115049244D01*
X175356316Y-115039659D01*
X175379500Y-114923105D01*
X175379500Y-114695900D01*
X175399185Y-114628861D01*
X175451989Y-114583106D01*
X175503500Y-114571900D01*
X175615562Y-114571900D01*
X175682601Y-114591585D01*
X175728356Y-114644389D01*
X175738300Y-114713547D01*
X175735337Y-114727993D01*
X175686166Y-114911502D01*
X175686164Y-114911513D01*
X175666332Y-115138198D01*
X175666332Y-115138201D01*
X175686164Y-115364886D01*
X175686166Y-115364897D01*
X175745058Y-115584688D01*
X175745061Y-115584697D01*
X175841231Y-115790932D01*
X175841232Y-115790934D01*
X175971754Y-115977341D01*
X176132658Y-116138245D01*
X176132661Y-116138247D01*
X176319066Y-116268768D01*
X176377075Y-116295818D01*
X176429514Y-116341991D01*
X176448666Y-116409184D01*
X176428450Y-116476065D01*
X176377075Y-116520582D01*
X176319067Y-116547631D01*
X176319065Y-116547632D01*
X176132658Y-116678154D01*
X175971754Y-116839058D01*
X175841232Y-117025465D01*
X175841231Y-117025467D01*
X175745061Y-117231702D01*
X175745058Y-117231711D01*
X175686166Y-117451502D01*
X175686164Y-117451513D01*
X175666332Y-117678198D01*
X175666332Y-117678201D01*
X175686164Y-117904886D01*
X175686166Y-117904897D01*
X175745058Y-118124688D01*
X175745061Y-118124697D01*
X175841231Y-118330932D01*
X175841232Y-118330934D01*
X175971754Y-118517341D01*
X176132658Y-118678245D01*
X176132661Y-118678247D01*
X176319066Y-118808768D01*
X176361924Y-118828753D01*
X176377075Y-118835818D01*
X176429514Y-118881991D01*
X176448666Y-118949184D01*
X176428450Y-119016065D01*
X176377075Y-119060582D01*
X176319067Y-119087631D01*
X176319065Y-119087632D01*
X176132658Y-119218154D01*
X175971754Y-119379058D01*
X175841232Y-119565465D01*
X175841231Y-119565467D01*
X175745061Y-119771702D01*
X175745058Y-119771711D01*
X175686166Y-119991502D01*
X175686164Y-119991513D01*
X175666332Y-120218198D01*
X175666332Y-120218201D01*
X175686164Y-120444886D01*
X175686166Y-120444897D01*
X175745058Y-120664688D01*
X175745061Y-120664697D01*
X175841231Y-120870932D01*
X175841232Y-120870934D01*
X175971754Y-121057341D01*
X176132658Y-121218245D01*
X176132661Y-121218247D01*
X176319066Y-121348768D01*
X176377075Y-121375818D01*
X176429514Y-121421991D01*
X176448666Y-121489184D01*
X176428450Y-121556065D01*
X176377075Y-121600582D01*
X176319067Y-121627631D01*
X176319065Y-121627632D01*
X176132658Y-121758154D01*
X175971754Y-121919058D01*
X175841232Y-122105465D01*
X175841231Y-122105467D01*
X175745061Y-122311702D01*
X175745058Y-122311711D01*
X175686166Y-122531502D01*
X175686164Y-122531513D01*
X175666332Y-122758198D01*
X175666332Y-122758201D01*
X175686164Y-122984886D01*
X175686166Y-122984897D01*
X175745058Y-123204688D01*
X175745061Y-123204697D01*
X175841231Y-123410932D01*
X175841232Y-123410934D01*
X175971754Y-123597341D01*
X176132658Y-123758245D01*
X176132661Y-123758247D01*
X176319066Y-123888768D01*
X176377075Y-123915818D01*
X176429514Y-123961991D01*
X176448666Y-124029184D01*
X176428450Y-124096065D01*
X176377075Y-124140582D01*
X176319067Y-124167631D01*
X176319065Y-124167632D01*
X176132658Y-124298154D01*
X175971754Y-124459058D01*
X175841232Y-124645465D01*
X175841231Y-124645467D01*
X175745061Y-124851702D01*
X175745058Y-124851711D01*
X175686166Y-125071502D01*
X175686164Y-125071513D01*
X175666332Y-125298198D01*
X175666332Y-125298201D01*
X175686164Y-125524886D01*
X175686166Y-125524897D01*
X175745058Y-125744688D01*
X175745061Y-125744697D01*
X175841231Y-125950932D01*
X175841232Y-125950934D01*
X175971754Y-126137341D01*
X176132658Y-126298245D01*
X176132661Y-126298247D01*
X176319066Y-126428768D01*
X176377075Y-126455818D01*
X176429514Y-126501991D01*
X176448666Y-126569184D01*
X176428450Y-126636065D01*
X176377075Y-126680582D01*
X176319067Y-126707631D01*
X176319065Y-126707632D01*
X176132658Y-126838154D01*
X175971754Y-126999058D01*
X175841232Y-127185465D01*
X175841231Y-127185467D01*
X175745061Y-127391702D01*
X175745058Y-127391711D01*
X175686166Y-127611502D01*
X175686164Y-127611513D01*
X175666332Y-127838198D01*
X175666332Y-127838201D01*
X175686164Y-128064886D01*
X175686166Y-128064897D01*
X175745058Y-128284688D01*
X175745061Y-128284697D01*
X175841231Y-128490932D01*
X175841232Y-128490934D01*
X175971754Y-128677341D01*
X176132658Y-128838245D01*
X176132661Y-128838247D01*
X176319066Y-128968768D01*
X176525304Y-129064939D01*
X176525309Y-129064940D01*
X176525311Y-129064941D01*
X176534679Y-129067451D01*
X176745108Y-129123835D01*
X176907030Y-129138001D01*
X176971798Y-129143668D01*
X176971800Y-129143668D01*
X176971802Y-129143668D01*
X177028473Y-129138709D01*
X177198492Y-129123835D01*
X177418296Y-129064939D01*
X177624534Y-128968768D01*
X177810939Y-128838247D01*
X177971847Y-128677339D01*
X178102368Y-128490934D01*
X178198539Y-128284696D01*
X178257435Y-128064892D01*
X178277268Y-127838200D01*
X178257435Y-127611508D01*
X178198539Y-127391704D01*
X178102368Y-127185466D01*
X177981175Y-127012383D01*
X183224300Y-127012383D01*
X183224300Y-128562401D01*
X183224301Y-128562418D01*
X183234800Y-128665196D01*
X183234801Y-128665199D01*
X183280694Y-128803694D01*
X183289986Y-128831734D01*
X183382088Y-128981056D01*
X183506144Y-129105112D01*
X183655466Y-129197214D01*
X183822003Y-129252399D01*
X183924791Y-129262900D01*
X185224808Y-129262899D01*
X185327597Y-129252399D01*
X185494134Y-129197214D01*
X185643456Y-129105112D01*
X185767512Y-128981056D01*
X185859614Y-128831734D01*
X185859614Y-128831731D01*
X185862978Y-128826279D01*
X185914926Y-128779554D01*
X185983888Y-128768331D01*
X186047970Y-128796174D01*
X186056198Y-128803694D01*
X186195013Y-128942509D01*
X186366979Y-129067448D01*
X186366981Y-129067449D01*
X186366984Y-129067451D01*
X186556388Y-129163957D01*
X186758557Y-129229646D01*
X186968513Y-129262900D01*
X186968514Y-129262900D01*
X187181086Y-129262900D01*
X187181087Y-129262900D01*
X187391043Y-129229646D01*
X187593212Y-129163957D01*
X187782616Y-129067451D01*
X187849261Y-129019031D01*
X187954586Y-128942509D01*
X187954588Y-128942506D01*
X187954592Y-128942504D01*
X188104904Y-128792192D01*
X188224483Y-128627604D01*
X188279811Y-128584940D01*
X188349424Y-128578961D01*
X188411220Y-128611566D01*
X188425113Y-128627599D01*
X188527360Y-128768331D01*
X188544696Y-128792192D01*
X188695013Y-128942509D01*
X188866979Y-129067448D01*
X188866981Y-129067449D01*
X188866984Y-129067451D01*
X189056388Y-129163957D01*
X189258557Y-129229646D01*
X189468513Y-129262900D01*
X189468514Y-129262900D01*
X189681086Y-129262900D01*
X189681087Y-129262900D01*
X189891043Y-129229646D01*
X190093212Y-129163957D01*
X190282616Y-129067451D01*
X190349261Y-129019031D01*
X190454586Y-128942509D01*
X190454588Y-128942506D01*
X190454592Y-128942504D01*
X190604904Y-128792192D01*
X190724483Y-128627604D01*
X190779811Y-128584940D01*
X190849424Y-128578961D01*
X190911220Y-128611566D01*
X190925113Y-128627599D01*
X191027360Y-128768331D01*
X191044696Y-128792192D01*
X191195013Y-128942509D01*
X191366979Y-129067448D01*
X191366981Y-129067449D01*
X191366984Y-129067451D01*
X191556388Y-129163957D01*
X191758557Y-129229646D01*
X191968513Y-129262900D01*
X191968514Y-129262900D01*
X192181086Y-129262900D01*
X192181087Y-129262900D01*
X192391043Y-129229646D01*
X192593212Y-129163957D01*
X192782616Y-129067451D01*
X192849261Y-129019031D01*
X192954586Y-128942509D01*
X192954588Y-128942506D01*
X192954592Y-128942504D01*
X193104904Y-128792192D01*
X193104906Y-128792188D01*
X193104909Y-128792186D01*
X193229848Y-128620220D01*
X193229847Y-128620220D01*
X193229851Y-128620216D01*
X193326357Y-128430812D01*
X193392046Y-128228643D01*
X193425300Y-128018687D01*
X193425300Y-127556113D01*
X193392046Y-127346157D01*
X193326357Y-127143988D01*
X193229851Y-126954584D01*
X193229849Y-126954581D01*
X193229848Y-126954579D01*
X193104909Y-126782613D01*
X192954586Y-126632290D01*
X192782620Y-126507351D01*
X192593214Y-126410844D01*
X192593213Y-126410843D01*
X192593212Y-126410843D01*
X192391043Y-126345154D01*
X192391041Y-126345153D01*
X192391040Y-126345153D01*
X192229757Y-126319608D01*
X192181087Y-126311900D01*
X191968513Y-126311900D01*
X191919842Y-126319608D01*
X191758560Y-126345153D01*
X191556385Y-126410844D01*
X191366979Y-126507351D01*
X191195013Y-126632290D01*
X191044694Y-126782609D01*
X191044690Y-126782614D01*
X190925118Y-126947193D01*
X190869789Y-126989859D01*
X190800175Y-126995838D01*
X190738380Y-126963233D01*
X190724482Y-126947193D01*
X190604909Y-126782614D01*
X190604905Y-126782609D01*
X190454586Y-126632290D01*
X190282620Y-126507351D01*
X190093214Y-126410844D01*
X190093213Y-126410843D01*
X190093212Y-126410843D01*
X189891043Y-126345154D01*
X189891041Y-126345153D01*
X189891040Y-126345153D01*
X189729757Y-126319608D01*
X189681087Y-126311900D01*
X189468513Y-126311900D01*
X189419842Y-126319608D01*
X189258560Y-126345153D01*
X189056385Y-126410844D01*
X188866979Y-126507351D01*
X188695013Y-126632290D01*
X188544694Y-126782609D01*
X188544690Y-126782614D01*
X188425118Y-126947193D01*
X188369789Y-126989859D01*
X188300175Y-126995838D01*
X188238380Y-126963233D01*
X188224482Y-126947193D01*
X188104909Y-126782614D01*
X188104905Y-126782609D01*
X187954586Y-126632290D01*
X187782620Y-126507351D01*
X187593214Y-126410844D01*
X187593213Y-126410843D01*
X187593212Y-126410843D01*
X187391043Y-126345154D01*
X187391041Y-126345153D01*
X187391040Y-126345153D01*
X187229757Y-126319608D01*
X187181087Y-126311900D01*
X186968513Y-126311900D01*
X186919842Y-126319608D01*
X186758560Y-126345153D01*
X186556385Y-126410844D01*
X186366979Y-126507351D01*
X186195015Y-126632289D01*
X186056198Y-126771106D01*
X185994875Y-126804590D01*
X185925183Y-126799606D01*
X185869250Y-126757734D01*
X185862978Y-126748520D01*
X185767512Y-126593744D01*
X185643457Y-126469689D01*
X185643456Y-126469688D01*
X185548053Y-126410843D01*
X185494136Y-126377587D01*
X185494131Y-126377585D01*
X185492662Y-126377098D01*
X185327597Y-126322401D01*
X185327595Y-126322400D01*
X185224810Y-126311900D01*
X183924798Y-126311900D01*
X183924781Y-126311901D01*
X183822003Y-126322400D01*
X183822000Y-126322401D01*
X183655468Y-126377585D01*
X183655463Y-126377587D01*
X183506142Y-126469689D01*
X183382089Y-126593742D01*
X183289987Y-126743063D01*
X183289985Y-126743068D01*
X183285125Y-126757734D01*
X183234801Y-126909603D01*
X183234801Y-126909604D01*
X183234800Y-126909604D01*
X183224300Y-127012383D01*
X177981175Y-127012383D01*
X177971847Y-126999061D01*
X177971845Y-126999058D01*
X177810941Y-126838154D01*
X177624534Y-126707632D01*
X177624528Y-126707629D01*
X177566525Y-126680582D01*
X177514085Y-126634410D01*
X177494933Y-126567217D01*
X177515148Y-126500335D01*
X177566525Y-126455818D01*
X177624534Y-126428768D01*
X177810939Y-126298247D01*
X177971847Y-126137339D01*
X178102368Y-125950934D01*
X178198539Y-125744696D01*
X178257435Y-125524892D01*
X178277268Y-125298200D01*
X178257435Y-125071508D01*
X178198539Y-124851704D01*
X178102368Y-124645466D01*
X177971847Y-124459061D01*
X177971845Y-124459058D01*
X177810941Y-124298154D01*
X177624534Y-124167632D01*
X177624528Y-124167629D01*
X177566525Y-124140582D01*
X177514085Y-124094410D01*
X177494933Y-124027217D01*
X177515148Y-123960335D01*
X177566525Y-123915818D01*
X177624534Y-123888768D01*
X177810939Y-123758247D01*
X177971847Y-123597339D01*
X178102368Y-123410934D01*
X178198539Y-123204696D01*
X178257435Y-122984892D01*
X178277268Y-122758200D01*
X178257435Y-122531508D01*
X178198539Y-122311704D01*
X178102368Y-122105466D01*
X177971847Y-121919061D01*
X177971845Y-121919058D01*
X177810941Y-121758154D01*
X177624534Y-121627632D01*
X177624528Y-121627629D01*
X177566525Y-121600582D01*
X177514085Y-121554410D01*
X177494933Y-121487217D01*
X177515148Y-121420335D01*
X177566525Y-121375818D01*
X177624534Y-121348768D01*
X177810939Y-121218247D01*
X177971847Y-121057339D01*
X178102368Y-120870934D01*
X178198539Y-120664696D01*
X178257435Y-120444892D01*
X178277268Y-120218200D01*
X178257435Y-119991508D01*
X178198539Y-119771704D01*
X178102368Y-119565466D01*
X177971847Y-119379061D01*
X177971845Y-119379058D01*
X177810941Y-119218154D01*
X177624534Y-119087632D01*
X177624528Y-119087629D01*
X177566525Y-119060582D01*
X177514085Y-119014410D01*
X177494933Y-118947217D01*
X177515148Y-118880335D01*
X177566525Y-118835818D01*
X177581676Y-118828753D01*
X177624534Y-118808768D01*
X177810939Y-118678247D01*
X177971847Y-118517339D01*
X178102368Y-118330934D01*
X178198539Y-118124696D01*
X178257435Y-117904892D01*
X178277268Y-117678200D01*
X178257435Y-117451508D01*
X178198539Y-117231704D01*
X178102368Y-117025466D01*
X177971847Y-116839061D01*
X177971845Y-116839058D01*
X177810941Y-116678154D01*
X177624534Y-116547632D01*
X177624528Y-116547629D01*
X177566525Y-116520582D01*
X177514085Y-116474410D01*
X177494933Y-116407217D01*
X177515148Y-116340335D01*
X177566525Y-116295818D01*
X177624534Y-116268768D01*
X177810939Y-116138247D01*
X177971847Y-115977339D01*
X178102368Y-115790934D01*
X178198539Y-115584696D01*
X178257435Y-115364892D01*
X178277268Y-115138200D01*
X178272167Y-115079901D01*
X178268647Y-115039659D01*
X178257435Y-114911508D01*
X178219709Y-114770711D01*
X178208263Y-114727993D01*
X178209926Y-114658143D01*
X178249089Y-114600281D01*
X178313317Y-114572777D01*
X178328038Y-114571900D01*
X185966907Y-114571900D01*
X186051765Y-114555019D01*
X186093044Y-114546809D01*
X186211864Y-114497592D01*
X186230012Y-114485466D01*
X186318800Y-114426141D01*
X186739940Y-114005000D01*
X186811392Y-113898064D01*
X186860609Y-113779244D01*
X186870691Y-113728557D01*
X186885700Y-113653105D01*
X186885700Y-111989801D01*
X186905385Y-111922762D01*
X186938575Y-111888227D01*
X187071939Y-111794847D01*
X187232847Y-111633939D01*
X187363368Y-111447534D01*
X187459539Y-111241296D01*
X187518435Y-111021492D01*
X187538268Y-110794800D01*
X187518435Y-110568108D01*
X187459539Y-110348304D01*
X187363368Y-110142066D01*
X187232847Y-109955661D01*
X187232845Y-109955658D01*
X187071941Y-109794754D01*
X186885534Y-109664232D01*
X186885532Y-109664231D01*
X186679297Y-109568061D01*
X186679288Y-109568058D01*
X186459497Y-109509166D01*
X186459493Y-109509165D01*
X186459492Y-109509165D01*
X186459491Y-109509164D01*
X186459486Y-109509164D01*
X186232802Y-109489332D01*
X186232798Y-109489332D01*
X186006113Y-109509164D01*
X186006102Y-109509166D01*
X185786311Y-109568058D01*
X185786302Y-109568061D01*
X185580067Y-109664231D01*
X185580065Y-109664232D01*
X185393658Y-109794754D01*
X185232754Y-109955658D01*
X185102232Y-110142065D01*
X185102231Y-110142067D01*
X185006061Y-110348302D01*
X185006058Y-110348311D01*
X184947166Y-110568102D01*
X184947164Y-110568113D01*
X184927332Y-110794798D01*
X184927332Y-110794801D01*
X184947164Y-111021486D01*
X184947166Y-111021497D01*
X185006058Y-111241288D01*
X185006061Y-111241297D01*
X185102231Y-111447532D01*
X185102232Y-111447534D01*
X185232754Y-111633941D01*
X185393657Y-111794844D01*
X185393660Y-111794846D01*
X185393661Y-111794847D01*
X185527023Y-111888227D01*
X185570648Y-111942802D01*
X185579900Y-111989801D01*
X185579900Y-113142100D01*
X185560215Y-113209139D01*
X185507411Y-113254894D01*
X185455900Y-113266100D01*
X178289937Y-113266100D01*
X178222898Y-113246415D01*
X178177143Y-113193611D01*
X178167199Y-113124453D01*
X178177555Y-113089695D01*
X178198539Y-113044696D01*
X178257435Y-112824892D01*
X178277268Y-112598200D01*
X178257435Y-112371508D01*
X178198539Y-112151704D01*
X178102368Y-111945466D01*
X177980105Y-111770855D01*
X177971845Y-111759058D01*
X177810941Y-111598154D01*
X177624534Y-111467632D01*
X177624528Y-111467629D01*
X177581434Y-111447534D01*
X177566524Y-111440581D01*
X177514085Y-111394410D01*
X177494933Y-111327217D01*
X177515148Y-111260335D01*
X177566525Y-111215818D01*
X177624534Y-111188768D01*
X177810939Y-111058247D01*
X177971847Y-110897339D01*
X178102368Y-110710934D01*
X178198539Y-110504696D01*
X178257435Y-110284892D01*
X178277268Y-110058200D01*
X178257435Y-109831508D01*
X178198539Y-109611704D01*
X178102368Y-109405466D01*
X177971847Y-109219061D01*
X177971845Y-109219058D01*
X177810941Y-109058154D01*
X177624534Y-108927632D01*
X177624528Y-108927629D01*
X177566525Y-108900582D01*
X177514085Y-108854410D01*
X177494933Y-108787217D01*
X177515148Y-108720335D01*
X177566525Y-108675818D01*
X177624534Y-108648768D01*
X177810939Y-108518247D01*
X177971847Y-108357339D01*
X178102368Y-108170934D01*
X178198539Y-107964696D01*
X178257435Y-107744892D01*
X178277268Y-107518200D01*
X178273342Y-107473331D01*
X178271601Y-107453430D01*
X178257435Y-107291508D01*
X178209507Y-107112637D01*
X178198541Y-107071711D01*
X178198538Y-107071702D01*
X178102368Y-106865467D01*
X178102367Y-106865465D01*
X177971845Y-106679058D01*
X177810941Y-106518154D01*
X177624534Y-106387632D01*
X177624528Y-106387629D01*
X177566525Y-106360582D01*
X177530256Y-106328648D01*
X184953700Y-106328648D01*
X184953700Y-106533351D01*
X184985722Y-106735534D01*
X185048981Y-106930223D01*
X185141915Y-107112613D01*
X185262228Y-107278213D01*
X185406986Y-107422971D01*
X185538060Y-107518200D01*
X185572590Y-107543287D01*
X185661412Y-107588544D01*
X185754976Y-107636218D01*
X185754978Y-107636218D01*
X185754981Y-107636220D01*
X185859337Y-107670127D01*
X185949665Y-107699477D01*
X186050757Y-107715488D01*
X186151848Y-107731500D01*
X186151849Y-107731500D01*
X187156551Y-107731500D01*
X187156552Y-107731500D01*
X187358734Y-107699477D01*
X187553419Y-107636220D01*
X187735810Y-107543287D01*
X187832101Y-107473328D01*
X187901413Y-107422971D01*
X187901415Y-107422968D01*
X187901419Y-107422966D01*
X188046166Y-107278219D01*
X188046166Y-107278218D01*
X188049611Y-107274774D01*
X188050748Y-107275911D01*
X188103358Y-107241573D01*
X188139132Y-107236301D01*
X188262917Y-107236301D01*
X188367582Y-107215480D01*
X188418497Y-107205353D01*
X188565053Y-107144648D01*
X188565058Y-107144644D01*
X188565061Y-107144643D01*
X188576803Y-107136796D01*
X188613001Y-107112610D01*
X188696949Y-107056518D01*
X188809118Y-106944349D01*
X188809119Y-106944347D01*
X188816185Y-106937281D01*
X188816188Y-106937277D01*
X189717945Y-106035520D01*
X189717949Y-106035518D01*
X189830118Y-105923349D01*
X189918248Y-105791453D01*
X189978953Y-105644897D01*
X189981730Y-105630934D01*
X190009901Y-105489315D01*
X190009901Y-105330685D01*
X190009901Y-105325575D01*
X190009900Y-105325549D01*
X190009900Y-102554700D01*
X190029585Y-102487661D01*
X190082389Y-102441906D01*
X190133900Y-102430700D01*
X193377132Y-102430700D01*
X193444171Y-102450385D01*
X193489926Y-102503189D01*
X193499870Y-102572347D01*
X193470845Y-102635903D01*
X193415450Y-102672630D01*
X193374981Y-102685780D01*
X193374978Y-102685781D01*
X193192586Y-102778715D01*
X193026986Y-102899028D01*
X192882228Y-103043786D01*
X192761915Y-103209386D01*
X192668981Y-103391776D01*
X192605722Y-103586465D01*
X192573700Y-103788648D01*
X192573700Y-103993351D01*
X192605722Y-104195534D01*
X192668981Y-104390223D01*
X192725628Y-104501397D01*
X192761776Y-104572342D01*
X192761915Y-104572613D01*
X192882228Y-104738213D01*
X193026984Y-104882969D01*
X193063268Y-104909330D01*
X193105935Y-104964659D01*
X193111915Y-105034273D01*
X193079309Y-105096068D01*
X193018471Y-105130426D01*
X193003640Y-105132938D01*
X192966719Y-105136907D01*
X192831871Y-105187202D01*
X192831864Y-105187206D01*
X192716655Y-105273452D01*
X192716652Y-105273455D01*
X192630406Y-105388664D01*
X192630402Y-105388671D01*
X192580108Y-105523517D01*
X192573701Y-105583116D01*
X192573701Y-105583123D01*
X192573700Y-105583135D01*
X192573700Y-107278870D01*
X192573701Y-107278876D01*
X192580108Y-107338483D01*
X192630402Y-107473328D01*
X192630406Y-107473335D01*
X192716652Y-107588544D01*
X192716655Y-107588547D01*
X192831864Y-107674793D01*
X192831871Y-107674797D01*
X192876818Y-107691561D01*
X192966717Y-107725091D01*
X193026327Y-107731500D01*
X193497300Y-107731499D01*
X193564339Y-107751183D01*
X193610094Y-107803987D01*
X193621300Y-107855499D01*
X193621300Y-108476796D01*
X193601615Y-108543835D01*
X193584981Y-108564477D01*
X193345663Y-108803794D01*
X193345657Y-108803801D01*
X193298217Y-108874801D01*
X193298218Y-108874802D01*
X193274207Y-108910737D01*
X193224991Y-109029555D01*
X193224989Y-109029561D01*
X193199900Y-109155692D01*
X193199900Y-109599797D01*
X193180215Y-109666836D01*
X193147023Y-109701372D01*
X193013659Y-109794753D01*
X192852754Y-109955658D01*
X192722232Y-110142065D01*
X192722231Y-110142067D01*
X192626061Y-110348302D01*
X192626058Y-110348311D01*
X192567166Y-110568102D01*
X192567164Y-110568113D01*
X192547332Y-110794798D01*
X192547332Y-110794801D01*
X192567164Y-111021486D01*
X192567166Y-111021497D01*
X192626058Y-111241288D01*
X192626061Y-111241297D01*
X192722231Y-111447532D01*
X192722232Y-111447534D01*
X192852754Y-111633941D01*
X193013658Y-111794845D01*
X193013661Y-111794847D01*
X193200066Y-111925368D01*
X193406304Y-112021539D01*
X193406309Y-112021540D01*
X193406311Y-112021541D01*
X193459215Y-112035716D01*
X193626108Y-112080435D01*
X193788030Y-112094601D01*
X193852798Y-112100268D01*
X193852800Y-112100268D01*
X193852802Y-112100268D01*
X193909473Y-112095309D01*
X194079492Y-112080435D01*
X194299296Y-112021539D01*
X194505534Y-111925368D01*
X194691939Y-111794847D01*
X194852847Y-111633939D01*
X194983368Y-111447534D01*
X195079539Y-111241296D01*
X195138435Y-111021492D01*
X195158268Y-110794800D01*
X195138435Y-110568108D01*
X195079539Y-110348304D01*
X194983368Y-110142066D01*
X194852847Y-109955661D01*
X194852845Y-109955658D01*
X194691940Y-109794753D01*
X194558577Y-109701372D01*
X194514952Y-109646795D01*
X194505700Y-109599797D01*
X194505700Y-109541802D01*
X194525385Y-109474763D01*
X194542019Y-109454121D01*
X194781339Y-109214801D01*
X194781341Y-109214799D01*
X194852793Y-109107863D01*
X194885228Y-109029556D01*
X194902009Y-108989044D01*
X194914225Y-108927629D01*
X194927100Y-108862907D01*
X194927100Y-107855499D01*
X194946785Y-107788460D01*
X194999589Y-107742705D01*
X195051100Y-107731499D01*
X195522071Y-107731499D01*
X195522072Y-107731499D01*
X195581683Y-107725091D01*
X195716531Y-107674796D01*
X195831746Y-107588546D01*
X195917996Y-107473331D01*
X195968291Y-107338483D01*
X195974700Y-107278873D01*
X195974699Y-105583128D01*
X195968291Y-105523517D01*
X195955534Y-105489315D01*
X195917997Y-105388671D01*
X195917993Y-105388664D01*
X195831747Y-105273455D01*
X195831744Y-105273452D01*
X195716535Y-105187206D01*
X195716528Y-105187202D01*
X195581682Y-105136908D01*
X195581683Y-105136908D01*
X195544760Y-105132939D01*
X195480209Y-105106201D01*
X195440360Y-105048809D01*
X195437867Y-104978984D01*
X195473519Y-104918895D01*
X195485130Y-104909331D01*
X195521419Y-104882966D01*
X195666166Y-104738219D01*
X195666168Y-104738215D01*
X195666171Y-104738213D01*
X195744001Y-104631087D01*
X195786487Y-104572610D01*
X195879420Y-104390219D01*
X195942677Y-104195534D01*
X195974700Y-103993352D01*
X195974700Y-103788648D01*
X195961802Y-103707217D01*
X195942677Y-103586465D01*
X195879418Y-103391776D01*
X195845703Y-103325607D01*
X195786487Y-103209390D01*
X195728814Y-103130009D01*
X195666171Y-103043786D01*
X195521413Y-102899028D01*
X195355813Y-102778715D01*
X195355812Y-102778714D01*
X195355810Y-102778713D01*
X195173419Y-102685780D01*
X195132949Y-102672630D01*
X195075274Y-102633193D01*
X195048076Y-102568835D01*
X195059991Y-102499988D01*
X195107235Y-102448513D01*
X195171268Y-102430700D01*
X195804672Y-102430700D01*
X195871711Y-102450385D01*
X195892353Y-102467019D01*
X197108447Y-103683115D01*
X197108451Y-103683118D01*
X197240340Y-103771244D01*
X197240344Y-103771246D01*
X197240347Y-103771248D01*
X197386903Y-103831954D01*
X197542480Y-103862900D01*
X197542484Y-103862901D01*
X197542485Y-103862901D01*
X197707230Y-103862901D01*
X197707250Y-103862900D01*
X205814001Y-103862900D01*
X205881040Y-103882585D01*
X205926795Y-103935389D01*
X205938001Y-103986900D01*
X205938001Y-104105476D01*
X205944408Y-104165083D01*
X205994702Y-104299928D01*
X205994706Y-104299935D01*
X206080952Y-104415144D01*
X206080955Y-104415147D01*
X206196164Y-104501393D01*
X206196171Y-104501397D01*
X206331017Y-104551691D01*
X206331016Y-104551691D01*
X206337944Y-104552435D01*
X206390627Y-104558100D01*
X208391372Y-104558099D01*
X208450983Y-104551691D01*
X208585831Y-104501396D01*
X208701046Y-104415146D01*
X208787296Y-104299931D01*
X208797690Y-104272060D01*
X208839561Y-104216127D01*
X208905024Y-104191709D01*
X208973298Y-104206560D01*
X208986752Y-104215070D01*
X209074586Y-104278885D01*
X209117251Y-104334213D01*
X209125700Y-104379202D01*
X209125700Y-108443100D01*
X209106015Y-108510139D01*
X209053211Y-108555894D01*
X209001700Y-108567100D01*
X205915099Y-108567100D01*
X205848060Y-108547415D01*
X205802305Y-108494611D01*
X205791099Y-108443100D01*
X205791099Y-108224529D01*
X205791098Y-108224523D01*
X205791097Y-108224516D01*
X205784691Y-108164917D01*
X205750770Y-108073971D01*
X205734397Y-108030071D01*
X205734393Y-108030064D01*
X205648147Y-107914855D01*
X205648144Y-107914852D01*
X205532935Y-107828606D01*
X205532928Y-107828602D01*
X205398082Y-107778308D01*
X205398083Y-107778308D01*
X205338483Y-107771901D01*
X205338481Y-107771900D01*
X205338473Y-107771900D01*
X205338464Y-107771900D01*
X203042729Y-107771900D01*
X203042723Y-107771901D01*
X202983116Y-107778308D01*
X202848271Y-107828602D01*
X202848264Y-107828606D01*
X202733055Y-107914852D01*
X202733052Y-107914855D01*
X202646806Y-108030064D01*
X202646802Y-108030071D01*
X202596508Y-108164917D01*
X202590101Y-108224516D01*
X202590101Y-108224523D01*
X202590100Y-108224535D01*
X202590100Y-110520270D01*
X202590101Y-110520276D01*
X202596508Y-110579883D01*
X202646802Y-110714728D01*
X202646806Y-110714735D01*
X202733052Y-110829944D01*
X202733055Y-110829947D01*
X202848264Y-110916193D01*
X202848271Y-110916197D01*
X202983117Y-110966491D01*
X202983116Y-110966491D01*
X202990044Y-110967235D01*
X203042727Y-110972900D01*
X205338472Y-110972899D01*
X205398083Y-110966491D01*
X205532931Y-110916196D01*
X205648146Y-110829946D01*
X205734396Y-110714731D01*
X205784691Y-110579883D01*
X205791100Y-110520273D01*
X205791100Y-110301700D01*
X205810785Y-110234661D01*
X205863589Y-110188906D01*
X205915100Y-110177700D01*
X209001700Y-110177700D01*
X209068739Y-110197385D01*
X209114494Y-110250189D01*
X209125700Y-110301700D01*
X209125700Y-119041549D01*
X209125699Y-119041575D01*
X209125699Y-119205315D01*
X209135811Y-119256148D01*
X209135811Y-119256150D01*
X209156645Y-119360889D01*
X209156648Y-119360901D01*
X209217348Y-119507446D01*
X209217355Y-119507459D01*
X209305481Y-119639348D01*
X209305484Y-119639352D01*
X209421970Y-119755838D01*
X209421992Y-119755858D01*
X210343756Y-120677622D01*
X210343785Y-120677653D01*
X210459047Y-120792915D01*
X210459055Y-120792921D01*
X210553432Y-120855982D01*
X210553433Y-120855982D01*
X210590947Y-120881048D01*
X210737503Y-120941753D01*
X210737507Y-120941753D01*
X210737508Y-120941754D01*
X210893082Y-120972701D01*
X210893085Y-120972701D01*
X211057829Y-120972701D01*
X211057849Y-120972700D01*
X213432272Y-120972700D01*
X213499311Y-120992385D01*
X213519953Y-121009019D01*
X214199981Y-121689047D01*
X214233466Y-121750370D01*
X214236300Y-121776728D01*
X214236300Y-126111187D01*
X214216615Y-126178226D01*
X214182152Y-126213641D01*
X213978382Y-126352568D01*
X213791552Y-126525921D01*
X213791550Y-126525923D01*
X213632641Y-126725188D01*
X213505208Y-126945909D01*
X213412092Y-127183162D01*
X213410722Y-127187604D01*
X213409277Y-127187158D01*
X213378380Y-127242393D01*
X213316717Y-127275249D01*
X213247080Y-127269552D01*
X213191578Y-127227111D01*
X213173405Y-127187317D01*
X213172478Y-127187604D01*
X213171109Y-127183169D01*
X213171108Y-127183163D01*
X213077993Y-126945912D01*
X212950559Y-126725188D01*
X212791650Y-126525923D01*
X212604817Y-126352568D01*
X212401047Y-126213640D01*
X212356746Y-126159612D01*
X212346900Y-126111187D01*
X212346900Y-123997050D01*
X212346901Y-123997029D01*
X212346901Y-123832284D01*
X212346900Y-123832280D01*
X212333461Y-123764718D01*
X212315954Y-123676703D01*
X212255248Y-123530147D01*
X212255246Y-123530144D01*
X212255244Y-123530140D01*
X212167118Y-123398251D01*
X212167115Y-123398247D01*
X211401788Y-122632922D01*
X211401785Y-122632918D01*
X211401785Y-122632919D01*
X211394718Y-122625852D01*
X211394718Y-122625851D01*
X211282549Y-122513682D01*
X211282548Y-122513681D01*
X211282547Y-122513680D01*
X211150659Y-122425555D01*
X211150646Y-122425548D01*
X211004101Y-122364848D01*
X211004091Y-122364845D01*
X210848517Y-122333899D01*
X210848515Y-122333899D01*
X210689885Y-122333899D01*
X210683771Y-122333899D01*
X210683751Y-122333900D01*
X205312128Y-122333900D01*
X205245089Y-122314215D01*
X205224447Y-122297581D01*
X204930619Y-122003753D01*
X204897134Y-121942430D01*
X204894300Y-121916072D01*
X204894300Y-115727666D01*
X204913985Y-115660627D01*
X204953510Y-115621939D01*
X205032654Y-115573439D01*
X205032656Y-115573438D01*
X205032656Y-115573437D01*
X205032659Y-115573436D01*
X205224224Y-115409824D01*
X205387836Y-115218259D01*
X205519466Y-115003459D01*
X205615873Y-114770711D01*
X205674683Y-114525748D01*
X205694449Y-114274600D01*
X205674683Y-114023452D01*
X205615873Y-113778489D01*
X205563938Y-113653106D01*
X205519466Y-113545740D01*
X205387839Y-113330946D01*
X205387838Y-113330943D01*
X205350875Y-113287666D01*
X205224224Y-113139376D01*
X205097571Y-113031204D01*
X205032656Y-112975761D01*
X205032653Y-112975760D01*
X204817859Y-112844133D01*
X204585110Y-112747726D01*
X204340151Y-112688917D01*
X204089000Y-112669151D01*
X203837848Y-112688917D01*
X203592889Y-112747726D01*
X203360140Y-112844133D01*
X203145346Y-112975760D01*
X203145343Y-112975761D01*
X202953776Y-113139376D01*
X202790161Y-113330943D01*
X202790160Y-113330946D01*
X202658533Y-113545740D01*
X202562126Y-113778489D01*
X202503317Y-114023448D01*
X202483551Y-114274600D01*
X202503317Y-114525751D01*
X202562126Y-114770710D01*
X202658533Y-115003459D01*
X202790160Y-115218253D01*
X202790161Y-115218256D01*
X202790164Y-115218259D01*
X202953776Y-115409824D01*
X203102066Y-115536475D01*
X203145343Y-115573438D01*
X203145345Y-115573439D01*
X203224490Y-115621939D01*
X203271365Y-115673750D01*
X203283700Y-115727666D01*
X203283700Y-122216549D01*
X203283699Y-122216575D01*
X203283699Y-122221685D01*
X203283699Y-122380315D01*
X203283699Y-122380317D01*
X203283698Y-122380317D01*
X203310228Y-122513682D01*
X203310228Y-122513683D01*
X203314645Y-122535890D01*
X203314648Y-122535901D01*
X203375348Y-122682446D01*
X203375355Y-122682459D01*
X203463481Y-122814348D01*
X203463484Y-122814352D01*
X203579970Y-122930838D01*
X203579992Y-122930858D01*
X204298556Y-123649422D01*
X204298585Y-123649453D01*
X204413847Y-123764715D01*
X204413855Y-123764721D01*
X204522556Y-123837353D01*
X204522557Y-123837353D01*
X204545747Y-123852848D01*
X204692303Y-123913553D01*
X204692307Y-123913553D01*
X204692308Y-123913554D01*
X204847882Y-123944501D01*
X204847885Y-123944501D01*
X205012630Y-123944501D01*
X205012650Y-123944500D01*
X210384272Y-123944500D01*
X210451311Y-123964185D01*
X210471953Y-123980819D01*
X210699981Y-124208847D01*
X210733466Y-124270170D01*
X210736300Y-124296528D01*
X210736300Y-126111187D01*
X210716615Y-126178226D01*
X210682152Y-126213641D01*
X210478382Y-126352568D01*
X210291552Y-126525921D01*
X210291550Y-126525923D01*
X210132641Y-126725188D01*
X210005208Y-126945909D01*
X210005207Y-126945912D01*
X209984348Y-126999061D01*
X209981028Y-127007519D01*
X209938212Y-127062732D01*
X209872342Y-127086033D01*
X209804331Y-127070022D01*
X209755773Y-127019784D01*
X209741600Y-126962216D01*
X209741600Y-126437972D01*
X209741599Y-126437955D01*
X209735198Y-126378427D01*
X209735196Y-126378420D01*
X209684954Y-126243713D01*
X209684950Y-126243706D01*
X209598790Y-126128612D01*
X209598787Y-126128609D01*
X209483693Y-126042449D01*
X209483686Y-126042445D01*
X209348979Y-125992203D01*
X209348972Y-125992201D01*
X209289444Y-125985800D01*
X208291600Y-125985800D01*
X208291600Y-127137317D01*
X208273191Y-127126689D01*
X208120591Y-127085800D01*
X207962609Y-127085800D01*
X207810009Y-127126689D01*
X207791600Y-127137317D01*
X207791600Y-125985800D01*
X206793755Y-125985800D01*
X206734227Y-125992201D01*
X206734220Y-125992203D01*
X206599513Y-126042445D01*
X206599506Y-126042449D01*
X206484412Y-126128609D01*
X206484409Y-126128612D01*
X206398249Y-126243706D01*
X206398245Y-126243713D01*
X206348003Y-126378420D01*
X206348001Y-126378427D01*
X206341600Y-126437955D01*
X206341600Y-127435800D01*
X207493118Y-127435800D01*
X207482489Y-127454209D01*
X207441600Y-127606809D01*
X207441600Y-127764791D01*
X207482489Y-127917391D01*
X207493118Y-127935800D01*
X206341600Y-127935800D01*
X206341600Y-128933644D01*
X206348001Y-128993172D01*
X206348003Y-128993179D01*
X206398245Y-129127886D01*
X206398249Y-129127893D01*
X206484409Y-129242987D01*
X206484412Y-129242990D01*
X206599506Y-129329150D01*
X206599513Y-129329154D01*
X206734220Y-129379396D01*
X206734227Y-129379398D01*
X206793755Y-129385799D01*
X206793772Y-129385800D01*
X207791600Y-129385800D01*
X207791600Y-128234282D01*
X207810009Y-128244911D01*
X207962609Y-128285800D01*
X208120591Y-128285800D01*
X208273191Y-128244911D01*
X208291600Y-128234282D01*
X208291600Y-129385800D01*
X209289428Y-129385800D01*
X209289444Y-129385799D01*
X209348972Y-129379398D01*
X209348979Y-129379396D01*
X209483686Y-129329154D01*
X209483693Y-129329150D01*
X209598787Y-129242990D01*
X209598790Y-129242987D01*
X209684950Y-129127893D01*
X209684954Y-129127886D01*
X209735196Y-128993179D01*
X209735198Y-128993172D01*
X209741599Y-128933644D01*
X209741600Y-128933627D01*
X209741600Y-128409383D01*
X209761285Y-128342344D01*
X209814089Y-128296589D01*
X209883247Y-128286645D01*
X209946803Y-128315670D01*
X209981027Y-128364080D01*
X210005207Y-128425688D01*
X210132641Y-128646412D01*
X210291550Y-128845677D01*
X210478383Y-129019032D01*
X210688966Y-129162605D01*
X210688971Y-129162607D01*
X210688972Y-129162608D01*
X210688973Y-129162609D01*
X210760828Y-129197212D01*
X210918592Y-129273187D01*
X210918593Y-129273187D01*
X210918596Y-129273189D01*
X211162142Y-129348313D01*
X211414165Y-129386300D01*
X211669035Y-129386300D01*
X211921058Y-129348313D01*
X212164604Y-129273189D01*
X212394234Y-129162605D01*
X212604817Y-129019032D01*
X212791650Y-128845677D01*
X212950559Y-128646412D01*
X213077993Y-128425688D01*
X213171108Y-128188437D01*
X213171110Y-128188424D01*
X213172478Y-128183996D01*
X213173924Y-128184442D01*
X213204813Y-128129212D01*
X213266473Y-128096352D01*
X213336110Y-128102043D01*
X213391616Y-128144480D01*
X213409792Y-128184282D01*
X213410722Y-128183996D01*
X213412090Y-128188430D01*
X213412092Y-128188437D01*
X213505207Y-128425688D01*
X213632641Y-128646412D01*
X213791550Y-128845677D01*
X213978383Y-129019032D01*
X214188966Y-129162605D01*
X214188971Y-129162607D01*
X214188972Y-129162608D01*
X214188973Y-129162609D01*
X214260828Y-129197212D01*
X214418592Y-129273187D01*
X214418593Y-129273187D01*
X214418596Y-129273189D01*
X214662142Y-129348313D01*
X214914165Y-129386300D01*
X215169035Y-129386300D01*
X215421058Y-129348313D01*
X215664604Y-129273189D01*
X215894234Y-129162605D01*
X216104817Y-129019032D01*
X216291650Y-128845677D01*
X216450559Y-128646412D01*
X216577993Y-128425688D01*
X216671108Y-128188437D01*
X216671110Y-128188424D01*
X216672478Y-128183996D01*
X216673924Y-128184442D01*
X216704813Y-128129212D01*
X216766473Y-128096352D01*
X216836110Y-128102043D01*
X216891616Y-128144480D01*
X216909792Y-128184282D01*
X216910722Y-128183996D01*
X216912090Y-128188430D01*
X216912092Y-128188437D01*
X217005207Y-128425688D01*
X217132641Y-128646412D01*
X217291550Y-128845677D01*
X217478383Y-129019032D01*
X217688966Y-129162605D01*
X217688971Y-129162607D01*
X217688972Y-129162608D01*
X217688973Y-129162609D01*
X217760828Y-129197212D01*
X217918592Y-129273187D01*
X217918593Y-129273187D01*
X217918596Y-129273189D01*
X218162142Y-129348313D01*
X218414165Y-129386300D01*
X218669035Y-129386300D01*
X218921058Y-129348313D01*
X219164604Y-129273189D01*
X219394234Y-129162605D01*
X219604817Y-129019032D01*
X219791650Y-128845677D01*
X219950559Y-128646412D01*
X220077993Y-128425688D01*
X220171108Y-128188437D01*
X220227822Y-127939957D01*
X220232503Y-127877496D01*
X220998215Y-127877496D01*
X220998215Y-127877503D01*
X221018538Y-128226427D01*
X221018539Y-128226438D01*
X221079228Y-128570627D01*
X221079230Y-128570634D01*
X221179474Y-128905472D01*
X221317907Y-129226395D01*
X221317913Y-129226408D01*
X221492670Y-129529097D01*
X221701384Y-129809449D01*
X221701389Y-129809455D01*
X221825263Y-129940753D01*
X221941242Y-130063683D01*
X222117703Y-130211751D01*
X222208986Y-130288347D01*
X222208994Y-130288353D01*
X222501003Y-130480411D01*
X222501007Y-130480413D01*
X222813349Y-130637277D01*
X223141789Y-130756819D01*
X223481886Y-130837423D01*
X223829041Y-130878000D01*
X223829048Y-130878000D01*
X224178552Y-130878000D01*
X224178559Y-130878000D01*
X224525714Y-130837423D01*
X224865811Y-130756819D01*
X225194251Y-130637277D01*
X225506593Y-130480413D01*
X225798611Y-130288349D01*
X226066358Y-130063683D01*
X226306212Y-129809453D01*
X226514930Y-129529096D01*
X226689689Y-129226404D01*
X226828126Y-128905471D01*
X226928369Y-128570636D01*
X226978788Y-128284697D01*
X226989060Y-128226438D01*
X226989059Y-128226438D01*
X226989062Y-128226427D01*
X227009385Y-127877500D01*
X226989062Y-127528573D01*
X226964930Y-127391711D01*
X226928371Y-127184372D01*
X226928369Y-127184365D01*
X226911102Y-127126689D01*
X226828126Y-126849529D01*
X226689689Y-126528596D01*
X226602504Y-126377587D01*
X226514929Y-126225902D01*
X226306215Y-125945550D01*
X226306210Y-125945544D01*
X226190233Y-125822617D01*
X226066358Y-125691317D01*
X225868013Y-125524886D01*
X225798613Y-125466652D01*
X225798605Y-125466646D01*
X225506596Y-125274588D01*
X225194258Y-125117726D01*
X225194252Y-125117723D01*
X224865812Y-124998181D01*
X224865809Y-124998180D01*
X224525715Y-124917577D01*
X224482319Y-124912504D01*
X224178559Y-124877000D01*
X223829041Y-124877000D01*
X223525280Y-124912504D01*
X223481885Y-124917577D01*
X223481883Y-124917577D01*
X223141790Y-124998180D01*
X223141787Y-124998181D01*
X222813347Y-125117723D01*
X222813341Y-125117726D01*
X222501003Y-125274588D01*
X222208994Y-125466646D01*
X222208986Y-125466652D01*
X221941242Y-125691317D01*
X221941240Y-125691319D01*
X221701389Y-125945544D01*
X221701384Y-125945550D01*
X221492670Y-126225902D01*
X221317913Y-126528591D01*
X221317907Y-126528604D01*
X221179474Y-126849527D01*
X221079230Y-127184365D01*
X221079228Y-127184372D01*
X221018539Y-127528561D01*
X221018538Y-127528572D01*
X220998215Y-127877496D01*
X220232503Y-127877496D01*
X220246868Y-127685800D01*
X220227822Y-127431643D01*
X220171108Y-127183163D01*
X220077993Y-126945912D01*
X219950559Y-126725188D01*
X219791650Y-126525923D01*
X219604817Y-126352568D01*
X219401047Y-126213640D01*
X219356746Y-126159612D01*
X219346900Y-126111187D01*
X219346900Y-123752729D01*
X219366585Y-123685690D01*
X219383214Y-123665052D01*
X219471918Y-123576349D01*
X219560048Y-123444453D01*
X219620753Y-123297897D01*
X219644299Y-123179517D01*
X219676683Y-123117609D01*
X219678124Y-123116140D01*
X219981848Y-122812416D01*
X220043170Y-122778934D01*
X220069528Y-122776100D01*
X220919951Y-122776100D01*
X220919971Y-122776101D01*
X220926085Y-122776101D01*
X221084717Y-122776101D01*
X221193856Y-122754391D01*
X221240297Y-122745153D01*
X221386853Y-122684448D01*
X221386858Y-122684444D01*
X221386861Y-122684443D01*
X221432193Y-122654153D01*
X221432195Y-122654151D01*
X221518749Y-122596318D01*
X221630918Y-122484149D01*
X221630919Y-122484147D01*
X221637985Y-122477081D01*
X221637988Y-122477077D01*
X223017345Y-121097720D01*
X223017349Y-121097718D01*
X223129518Y-120985549D01*
X223217648Y-120853653D01*
X223278353Y-120707097D01*
X223278353Y-120707094D01*
X223278355Y-120707090D01*
X223284111Y-120678153D01*
X223309299Y-120551520D01*
X223309300Y-120551517D01*
X223309300Y-114344750D01*
X223328985Y-114277711D01*
X223381789Y-114231956D01*
X223404791Y-114224072D01*
X223411477Y-114222491D01*
X223411483Y-114222491D01*
X223546331Y-114172196D01*
X223661546Y-114085946D01*
X223747796Y-113970731D01*
X223798091Y-113835883D01*
X223804500Y-113776273D01*
X223804499Y-112080528D01*
X223798091Y-112020917D01*
X223798090Y-112020915D01*
X223747797Y-111886071D01*
X223747793Y-111886064D01*
X223661547Y-111770855D01*
X223661544Y-111770852D01*
X223546335Y-111684606D01*
X223546328Y-111684602D01*
X223411482Y-111634308D01*
X223411483Y-111634308D01*
X223351883Y-111627901D01*
X223351881Y-111627900D01*
X223351873Y-111627900D01*
X223351864Y-111627900D01*
X223348548Y-111627722D01*
X223348627Y-111626247D01*
X223287215Y-111608215D01*
X223241460Y-111555411D01*
X223233969Y-111511922D01*
X222550447Y-110828400D01*
X222556661Y-110828400D01*
X222658394Y-110801141D01*
X222749606Y-110748480D01*
X222824080Y-110674006D01*
X222876741Y-110582794D01*
X222904000Y-110481061D01*
X222904000Y-110474847D01*
X223583024Y-111153871D01*
X223634136Y-111080878D01*
X223730264Y-110874731D01*
X223730269Y-110874717D01*
X223789139Y-110655010D01*
X223789141Y-110654999D01*
X223808966Y-110428402D01*
X223808966Y-110428397D01*
X223789141Y-110201800D01*
X223789139Y-110201789D01*
X223730269Y-109982082D01*
X223730264Y-109982068D01*
X223634136Y-109775921D01*
X223634132Y-109775913D01*
X223583025Y-109702926D01*
X222904000Y-110381951D01*
X222904000Y-110375739D01*
X222876741Y-110274006D01*
X222824080Y-110182794D01*
X222749606Y-110108320D01*
X222658394Y-110055659D01*
X222556661Y-110028400D01*
X222550445Y-110028400D01*
X223229472Y-109349374D01*
X223156478Y-109298263D01*
X222950331Y-109202135D01*
X222950317Y-109202130D01*
X222730610Y-109143260D01*
X222730599Y-109143258D01*
X222504002Y-109123434D01*
X222503998Y-109123434D01*
X222277400Y-109143258D01*
X222277389Y-109143260D01*
X222057682Y-109202130D01*
X222057673Y-109202134D01*
X221851516Y-109298266D01*
X221851512Y-109298268D01*
X221778526Y-109349373D01*
X221778526Y-109349374D01*
X222457553Y-110028400D01*
X222451339Y-110028400D01*
X222349606Y-110055659D01*
X222258394Y-110108320D01*
X222183920Y-110182794D01*
X222131259Y-110274006D01*
X222104000Y-110375739D01*
X222104000Y-110381952D01*
X221424974Y-109702926D01*
X221424973Y-109702926D01*
X221373868Y-109775912D01*
X221373866Y-109775916D01*
X221277734Y-109982073D01*
X221277730Y-109982082D01*
X221218860Y-110201789D01*
X221218858Y-110201800D01*
X221199034Y-110428397D01*
X221199034Y-110428402D01*
X221218858Y-110654999D01*
X221218860Y-110655010D01*
X221277730Y-110874717D01*
X221277735Y-110874731D01*
X221373863Y-111080878D01*
X221424974Y-111153872D01*
X222104000Y-110474846D01*
X222104000Y-110481061D01*
X222131259Y-110582794D01*
X222183920Y-110674006D01*
X222258394Y-110748480D01*
X222349606Y-110801141D01*
X222451339Y-110828400D01*
X222457553Y-110828400D01*
X221773352Y-111512599D01*
X221763506Y-111561594D01*
X221714890Y-111611777D01*
X221659367Y-111626449D01*
X221659423Y-111627499D01*
X221659429Y-111627546D01*
X221659426Y-111627546D01*
X221659436Y-111627724D01*
X221656123Y-111627901D01*
X221596516Y-111634308D01*
X221461671Y-111684602D01*
X221461664Y-111684606D01*
X221346455Y-111770852D01*
X221346452Y-111770855D01*
X221260206Y-111886064D01*
X221260202Y-111886071D01*
X221209909Y-112020915D01*
X221208328Y-112027609D01*
X221173758Y-112088327D01*
X221111848Y-112120716D01*
X221087650Y-112123100D01*
X219224279Y-112123100D01*
X219068709Y-112154044D01*
X219068705Y-112154046D01*
X219068703Y-112154046D01*
X219068702Y-112154047D01*
X219025777Y-112171827D01*
X219025775Y-112171828D01*
X218922149Y-112214750D01*
X218922140Y-112214755D01*
X218790252Y-112302880D01*
X218734167Y-112358965D01*
X218678082Y-112415051D01*
X218678079Y-112415054D01*
X218160863Y-112932271D01*
X217660153Y-113432981D01*
X217598830Y-113466466D01*
X217572472Y-113469300D01*
X215973499Y-113469300D01*
X215906460Y-113449615D01*
X215860705Y-113396811D01*
X215849499Y-113345300D01*
X215849499Y-113126729D01*
X215849498Y-113126723D01*
X215849497Y-113126716D01*
X215843091Y-113067117D01*
X215809017Y-112975761D01*
X215792797Y-112932271D01*
X215792793Y-112932264D01*
X215706547Y-112817055D01*
X215706544Y-112817052D01*
X215591335Y-112730806D01*
X215591328Y-112730802D01*
X215456482Y-112680508D01*
X215456483Y-112680508D01*
X215396883Y-112674101D01*
X215396881Y-112674100D01*
X215396873Y-112674100D01*
X215396864Y-112674100D01*
X213101129Y-112674100D01*
X213101123Y-112674101D01*
X213041516Y-112680508D01*
X212906671Y-112730802D01*
X212906664Y-112730806D01*
X212791455Y-112817052D01*
X212791452Y-112817055D01*
X212705206Y-112932264D01*
X212705202Y-112932271D01*
X212654908Y-113067117D01*
X212648744Y-113124453D01*
X212648501Y-113126723D01*
X212648500Y-113126735D01*
X212648500Y-115422470D01*
X212648501Y-115422476D01*
X212654908Y-115482083D01*
X212705202Y-115616928D01*
X212705206Y-115616935D01*
X212791452Y-115732144D01*
X212791455Y-115732147D01*
X212906664Y-115818393D01*
X212906671Y-115818397D01*
X213041517Y-115868691D01*
X213041516Y-115868691D01*
X213048444Y-115869435D01*
X213101127Y-115875100D01*
X215396872Y-115875099D01*
X215456483Y-115868691D01*
X215591331Y-115818396D01*
X215706546Y-115732146D01*
X215792796Y-115616931D01*
X215843091Y-115482083D01*
X215849500Y-115422473D01*
X215849500Y-115203900D01*
X215869185Y-115136861D01*
X215921989Y-115091106D01*
X215973500Y-115079900D01*
X217871951Y-115079900D01*
X217871971Y-115079901D01*
X217878085Y-115079901D01*
X218036717Y-115079901D01*
X218141382Y-115059080D01*
X218192297Y-115048953D01*
X218338853Y-114988248D01*
X218353279Y-114978609D01*
X218470749Y-114900118D01*
X218582918Y-114787949D01*
X218582919Y-114787947D01*
X218589985Y-114780881D01*
X218589987Y-114780877D01*
X219600847Y-113770019D01*
X219662170Y-113736534D01*
X219688528Y-113733700D01*
X221087649Y-113733700D01*
X221154688Y-113753385D01*
X221200443Y-113806189D01*
X221208325Y-113829183D01*
X221209907Y-113835879D01*
X221260202Y-113970728D01*
X221260206Y-113970735D01*
X221346452Y-114085944D01*
X221346455Y-114085947D01*
X221461664Y-114172193D01*
X221461671Y-114172197D01*
X221529093Y-114197343D01*
X221596517Y-114222491D01*
X221596521Y-114222491D01*
X221603209Y-114224072D01*
X221663927Y-114258642D01*
X221696316Y-114320552D01*
X221698700Y-114344750D01*
X221698700Y-120087272D01*
X221679015Y-120154311D01*
X221662381Y-120174953D01*
X220708153Y-121129181D01*
X220646830Y-121162666D01*
X220620472Y-121165500D01*
X219770050Y-121165500D01*
X219770030Y-121165499D01*
X219763916Y-121165499D01*
X219605285Y-121165499D01*
X219605283Y-121165499D01*
X219449708Y-121196445D01*
X219449698Y-121196448D01*
X219303153Y-121257148D01*
X219303140Y-121257155D01*
X219171252Y-121345280D01*
X219140715Y-121375818D01*
X219059082Y-121457451D01*
X219059079Y-121457454D01*
X218333054Y-122183479D01*
X218333051Y-122183482D01*
X218299984Y-122216549D01*
X218220882Y-122295650D01*
X218195325Y-122333900D01*
X218134085Y-122425552D01*
X218133193Y-122426885D01*
X218132753Y-122427545D01*
X218132748Y-122427554D01*
X218072048Y-122574098D01*
X218072045Y-122574108D01*
X218048499Y-122692480D01*
X218016114Y-122754391D01*
X218014563Y-122755969D01*
X217916084Y-122854447D01*
X217916081Y-122854450D01*
X217829736Y-122983677D01*
X217829732Y-122983683D01*
X217827951Y-122986347D01*
X217827951Y-122986348D01*
X217767248Y-123132898D01*
X217767245Y-123132908D01*
X217736299Y-123288482D01*
X217736299Y-123453228D01*
X217736300Y-123453249D01*
X217736300Y-126111187D01*
X217716615Y-126178226D01*
X217682152Y-126213641D01*
X217478382Y-126352568D01*
X217291552Y-126525921D01*
X217291550Y-126525923D01*
X217132641Y-126725188D01*
X217005208Y-126945909D01*
X216912092Y-127183162D01*
X216910722Y-127187604D01*
X216909277Y-127187158D01*
X216878380Y-127242393D01*
X216816717Y-127275249D01*
X216747080Y-127269552D01*
X216691578Y-127227111D01*
X216673405Y-127187317D01*
X216672478Y-127187604D01*
X216671109Y-127183169D01*
X216671108Y-127183163D01*
X216577993Y-126945912D01*
X216450559Y-126725188D01*
X216291650Y-126525923D01*
X216104817Y-126352568D01*
X215901047Y-126213640D01*
X215856746Y-126159612D01*
X215846900Y-126111187D01*
X215846900Y-121477249D01*
X215846901Y-121477228D01*
X215846901Y-121312481D01*
X215815954Y-121156908D01*
X215815953Y-121156907D01*
X215815953Y-121156903D01*
X215794368Y-121104791D01*
X215755251Y-121010353D01*
X215755244Y-121010340D01*
X215667118Y-120878451D01*
X215667115Y-120878447D01*
X215551853Y-120763185D01*
X215551822Y-120763156D01*
X214447058Y-119658392D01*
X214447038Y-119658370D01*
X214330552Y-119541884D01*
X214330548Y-119541881D01*
X214198659Y-119453755D01*
X214198646Y-119453748D01*
X214052101Y-119393048D01*
X214052091Y-119393045D01*
X213896517Y-119362099D01*
X213896515Y-119362099D01*
X213737885Y-119362099D01*
X213731771Y-119362099D01*
X213731751Y-119362100D01*
X211357328Y-119362100D01*
X211290289Y-119342415D01*
X211269647Y-119325781D01*
X210772619Y-118828753D01*
X210739134Y-118767430D01*
X210736300Y-118741072D01*
X210736300Y-109122399D01*
X212765328Y-109122399D01*
X212765329Y-109122400D01*
X213859852Y-109122400D01*
X213838082Y-109160108D01*
X213800600Y-109299991D01*
X213800600Y-109444809D01*
X213838082Y-109584692D01*
X213859852Y-109622400D01*
X212765328Y-109622400D01*
X212765411Y-109623467D01*
X212824203Y-109868356D01*
X212920580Y-110101031D01*
X213052168Y-110315762D01*
X213052171Y-110315767D01*
X213215730Y-110507269D01*
X213407232Y-110670828D01*
X213407237Y-110670831D01*
X213621968Y-110802419D01*
X213854643Y-110898796D01*
X214099532Y-110957588D01*
X214100599Y-110957671D01*
X214100600Y-110957671D01*
X214100600Y-109863147D01*
X214138308Y-109884918D01*
X214278191Y-109922400D01*
X214423009Y-109922400D01*
X214562892Y-109884918D01*
X214600600Y-109863147D01*
X214600600Y-110957671D01*
X214601667Y-110957588D01*
X214846556Y-110898796D01*
X215079231Y-110802419D01*
X215293962Y-110670831D01*
X215293967Y-110670828D01*
X215485469Y-110507269D01*
X215649028Y-110315767D01*
X215649031Y-110315762D01*
X215780619Y-110101031D01*
X215876996Y-109868356D01*
X215935788Y-109623467D01*
X215935872Y-109622400D01*
X214841348Y-109622400D01*
X214863118Y-109584692D01*
X214900600Y-109444809D01*
X214900600Y-109299991D01*
X214863118Y-109160108D01*
X214841348Y-109122400D01*
X215935871Y-109122400D01*
X215935871Y-109122399D01*
X215935788Y-109121332D01*
X215876996Y-108876443D01*
X215780619Y-108643768D01*
X215649031Y-108429037D01*
X215649028Y-108429032D01*
X215485469Y-108237530D01*
X215293967Y-108073971D01*
X215293962Y-108073968D01*
X215079231Y-107942380D01*
X214846556Y-107846003D01*
X214601664Y-107787211D01*
X214600600Y-107787126D01*
X214600600Y-108881652D01*
X214562892Y-108859882D01*
X214423009Y-108822400D01*
X214278191Y-108822400D01*
X214138308Y-108859882D01*
X214100600Y-108881652D01*
X214100600Y-107787126D01*
X214099535Y-107787211D01*
X213854643Y-107846003D01*
X213621968Y-107942380D01*
X213407237Y-108073968D01*
X213407232Y-108073971D01*
X213215730Y-108237530D01*
X213052171Y-108429032D01*
X213052168Y-108429037D01*
X212920580Y-108643768D01*
X212824203Y-108876443D01*
X212765411Y-109121332D01*
X212765328Y-109122399D01*
X210736300Y-109122399D01*
X210736300Y-104379202D01*
X210755985Y-104312163D01*
X210787416Y-104278883D01*
X210796805Y-104272062D01*
X210877566Y-104213386D01*
X211039286Y-104051666D01*
X211100992Y-103966734D01*
X211156319Y-103924070D01*
X211225932Y-103918091D01*
X211287727Y-103950696D01*
X211301626Y-103966735D01*
X211363097Y-104051341D01*
X211363097Y-104051342D01*
X211524757Y-104213002D01*
X211709723Y-104347388D01*
X211913429Y-104451182D01*
X212130871Y-104521834D01*
X212221000Y-104536109D01*
X212221000Y-103548347D01*
X212258708Y-103570118D01*
X212398591Y-103607600D01*
X212543409Y-103607600D01*
X212683292Y-103570118D01*
X212721000Y-103548347D01*
X212721000Y-104536108D01*
X212811128Y-104521834D01*
X213028570Y-104451182D01*
X213232276Y-104347388D01*
X213417242Y-104213002D01*
X213578902Y-104051342D01*
X213713288Y-103866376D01*
X213817082Y-103662670D01*
X213887734Y-103445228D01*
X213909532Y-103307600D01*
X212961748Y-103307600D01*
X212983518Y-103269892D01*
X213021000Y-103130009D01*
X213021000Y-102985191D01*
X212983518Y-102845308D01*
X212961748Y-102807600D01*
X213909532Y-102807600D01*
X213887734Y-102669971D01*
X213817082Y-102452529D01*
X213713288Y-102248823D01*
X213578902Y-102063857D01*
X213417242Y-101902197D01*
X213232276Y-101767811D01*
X213028568Y-101664017D01*
X212811124Y-101593365D01*
X212721000Y-101579090D01*
X212721000Y-102566852D01*
X212683292Y-102545082D01*
X212543409Y-102507600D01*
X212398591Y-102507600D01*
X212258708Y-102545082D01*
X212221000Y-102566852D01*
X212221000Y-101579090D01*
X212220999Y-101579090D01*
X212130875Y-101593365D01*
X211913431Y-101664017D01*
X211709723Y-101767811D01*
X211524757Y-101902197D01*
X211363097Y-102063857D01*
X211301627Y-102148464D01*
X211246297Y-102191129D01*
X211176684Y-102197108D01*
X211114889Y-102164502D01*
X211100991Y-102148464D01*
X211086341Y-102128300D01*
X211039286Y-102063534D01*
X210877566Y-101901814D01*
X210692538Y-101767383D01*
X210488755Y-101663550D01*
X210271248Y-101592878D01*
X210085812Y-101563508D01*
X210045354Y-101557100D01*
X209816646Y-101557100D01*
X209776188Y-101563508D01*
X209590753Y-101592878D01*
X209590750Y-101592878D01*
X209373244Y-101663550D01*
X209169461Y-101767383D01*
X208986759Y-101900125D01*
X208920952Y-101923605D01*
X208852898Y-101907780D01*
X208804203Y-101857674D01*
X208797690Y-101843138D01*
X208787296Y-101815269D01*
X208787293Y-101815264D01*
X208701047Y-101700055D01*
X208701044Y-101700052D01*
X208585835Y-101613806D01*
X208585828Y-101613802D01*
X208450982Y-101563508D01*
X208450983Y-101563508D01*
X208391383Y-101557101D01*
X208391381Y-101557100D01*
X208391373Y-101557100D01*
X208391364Y-101557100D01*
X206390629Y-101557100D01*
X206390623Y-101557101D01*
X206331016Y-101563508D01*
X206196171Y-101613802D01*
X206196164Y-101613806D01*
X206080955Y-101700052D01*
X206080952Y-101700055D01*
X205994706Y-101815264D01*
X205994702Y-101815271D01*
X205944408Y-101950117D01*
X205938001Y-102009716D01*
X205938000Y-102009735D01*
X205938000Y-102128300D01*
X205918315Y-102195339D01*
X205865511Y-102241094D01*
X205814000Y-102252300D01*
X198006729Y-102252300D01*
X197939690Y-102232615D01*
X197919048Y-102215981D01*
X196822188Y-101119122D01*
X196822185Y-101119118D01*
X196822185Y-101119119D01*
X196815118Y-101112052D01*
X196815118Y-101112051D01*
X196702949Y-100999882D01*
X196702948Y-100999881D01*
X196702947Y-100999880D01*
X196571059Y-100911755D01*
X196571046Y-100911748D01*
X196424501Y-100851048D01*
X196424491Y-100851045D01*
X196268917Y-100820099D01*
X196268915Y-100820099D01*
X196110285Y-100820099D01*
X196104171Y-100820099D01*
X196104151Y-100820100D01*
X190133900Y-100820100D01*
X190066861Y-100800415D01*
X190021106Y-100747611D01*
X190009900Y-100696100D01*
X190009900Y-100136050D01*
X190009901Y-100136029D01*
X190009901Y-99971282D01*
X189978954Y-99815708D01*
X189978953Y-99815707D01*
X189978953Y-99815703D01*
X189978951Y-99815698D01*
X189918250Y-99669151D01*
X189918249Y-99669149D01*
X189876298Y-99606365D01*
X189830116Y-99537248D01*
X189714853Y-99421985D01*
X189714822Y-99421956D01*
X189530664Y-99237798D01*
X192953732Y-99237798D01*
X192953732Y-99237801D01*
X192973564Y-99464486D01*
X192973566Y-99464497D01*
X193032458Y-99684288D01*
X193032461Y-99684297D01*
X193128631Y-99890532D01*
X193128632Y-99890534D01*
X193259154Y-100076941D01*
X193420058Y-100237845D01*
X193420061Y-100237847D01*
X193606466Y-100368368D01*
X193812704Y-100464539D01*
X194032508Y-100523435D01*
X194194430Y-100537601D01*
X194259198Y-100543268D01*
X194259200Y-100543268D01*
X194259202Y-100543268D01*
X194315873Y-100538309D01*
X194485892Y-100523435D01*
X194705696Y-100464539D01*
X194911934Y-100368368D01*
X195098339Y-100237847D01*
X195259247Y-100076939D01*
X195389768Y-99890534D01*
X195485939Y-99684296D01*
X195544835Y-99464492D01*
X195564668Y-99237800D01*
X195544835Y-99011108D01*
X195485939Y-98791304D01*
X195389768Y-98585066D01*
X195259247Y-98398661D01*
X195259245Y-98398658D01*
X195098341Y-98237754D01*
X194911934Y-98107232D01*
X194911932Y-98107231D01*
X194705697Y-98011061D01*
X194705688Y-98011058D01*
X194485897Y-97952166D01*
X194485893Y-97952165D01*
X194485892Y-97952165D01*
X194485891Y-97952164D01*
X194485886Y-97952164D01*
X194259202Y-97932332D01*
X194259198Y-97932332D01*
X194032513Y-97952164D01*
X194032502Y-97952166D01*
X193812711Y-98011058D01*
X193812702Y-98011061D01*
X193606467Y-98107231D01*
X193606465Y-98107232D01*
X193420058Y-98237754D01*
X193259154Y-98398658D01*
X193128632Y-98585065D01*
X193128631Y-98585067D01*
X193032461Y-98791302D01*
X193032458Y-98791311D01*
X192973566Y-99011102D01*
X192973564Y-99011113D01*
X192953732Y-99237798D01*
X189530664Y-99237798D01*
X189021658Y-98728792D01*
X189021638Y-98728770D01*
X188905152Y-98612284D01*
X188905148Y-98612281D01*
X188773259Y-98524155D01*
X188773246Y-98524148D01*
X188626701Y-98463448D01*
X188626691Y-98463445D01*
X188471117Y-98432499D01*
X188471115Y-98432499D01*
X188312485Y-98432499D01*
X188306371Y-98432499D01*
X188306351Y-98432500D01*
X187724449Y-98432500D01*
X187657410Y-98412815D01*
X187636768Y-98396181D01*
X187478341Y-98237754D01*
X187291934Y-98107232D01*
X187291932Y-98107231D01*
X187085697Y-98011061D01*
X187085688Y-98011058D01*
X186865897Y-97952166D01*
X186865893Y-97952165D01*
X186865892Y-97952165D01*
X186865891Y-97952164D01*
X186865886Y-97952164D01*
X186639202Y-97932332D01*
X186639198Y-97932332D01*
X186412513Y-97952164D01*
X186412502Y-97952166D01*
X186192711Y-98011058D01*
X186192702Y-98011061D01*
X185986467Y-98107231D01*
X185986465Y-98107232D01*
X185800058Y-98237754D01*
X185639154Y-98398658D01*
X185508632Y-98585065D01*
X185508631Y-98585067D01*
X185412461Y-98791302D01*
X185412458Y-98791311D01*
X185353566Y-99011102D01*
X185353564Y-99011113D01*
X185333732Y-99237798D01*
X185333732Y-99237801D01*
X185353564Y-99464486D01*
X185353566Y-99464497D01*
X185412458Y-99684288D01*
X185412461Y-99684297D01*
X185508631Y-99890532D01*
X185508632Y-99890534D01*
X185639154Y-100076941D01*
X185800058Y-100237845D01*
X185800061Y-100237847D01*
X185986466Y-100368368D01*
X186192704Y-100464539D01*
X186412508Y-100523435D01*
X186574430Y-100537601D01*
X186639198Y-100543268D01*
X186639200Y-100543268D01*
X186639202Y-100543268D01*
X186695873Y-100538309D01*
X186865892Y-100523435D01*
X187085696Y-100464539D01*
X187291934Y-100368368D01*
X187478339Y-100237847D01*
X187478341Y-100237845D01*
X187636768Y-100079419D01*
X187698091Y-100045934D01*
X187724449Y-100043100D01*
X188006872Y-100043100D01*
X188073911Y-100062785D01*
X188094553Y-100079419D01*
X188362981Y-100347847D01*
X188396466Y-100409170D01*
X188399300Y-100435528D01*
X188399300Y-103150912D01*
X188379615Y-103217951D01*
X188326811Y-103263706D01*
X188257653Y-103273650D01*
X188194097Y-103244625D01*
X188169528Y-103213236D01*
X188168605Y-103213803D01*
X188166064Y-103209657D01*
X188045782Y-103044105D01*
X188045782Y-103044104D01*
X187901095Y-102899417D01*
X187735549Y-102779140D01*
X187553231Y-102686244D01*
X187358617Y-102623009D01*
X187156517Y-102591000D01*
X186904200Y-102591000D01*
X186904200Y-103575314D01*
X186899806Y-103570920D01*
X186808594Y-103518259D01*
X186706861Y-103491000D01*
X186601539Y-103491000D01*
X186499806Y-103518259D01*
X186408594Y-103570920D01*
X186404200Y-103575314D01*
X186404200Y-102591000D01*
X186151883Y-102591000D01*
X185949782Y-102623009D01*
X185755168Y-102686244D01*
X185572850Y-102779140D01*
X185407305Y-102899417D01*
X185407304Y-102899417D01*
X185262617Y-103044104D01*
X185262617Y-103044105D01*
X185142340Y-103209650D01*
X185049444Y-103391970D01*
X184986209Y-103586586D01*
X184977591Y-103641000D01*
X186338514Y-103641000D01*
X186334120Y-103645394D01*
X186281459Y-103736606D01*
X186254200Y-103838339D01*
X186254200Y-103943661D01*
X186281459Y-104045394D01*
X186334120Y-104136606D01*
X186338514Y-104141000D01*
X184977591Y-104141000D01*
X184986209Y-104195413D01*
X185049444Y-104390029D01*
X185142340Y-104572349D01*
X185262617Y-104737894D01*
X185262617Y-104737895D01*
X185407304Y-104882582D01*
X185572852Y-105002861D01*
X185665828Y-105050234D01*
X185716625Y-105098208D01*
X185733420Y-105166029D01*
X185710883Y-105232164D01*
X185665830Y-105271203D01*
X185572588Y-105318713D01*
X185406986Y-105439028D01*
X185262228Y-105583786D01*
X185141915Y-105749386D01*
X185048981Y-105931776D01*
X184985722Y-106126465D01*
X184953700Y-106328648D01*
X177530256Y-106328648D01*
X177514085Y-106314410D01*
X177494933Y-106247217D01*
X177515148Y-106180335D01*
X177566525Y-106135818D01*
X177624534Y-106108768D01*
X177810939Y-105978247D01*
X177971847Y-105817339D01*
X178102368Y-105630934D01*
X178198539Y-105424696D01*
X178257435Y-105204892D01*
X178277268Y-104978200D01*
X178257435Y-104751508D01*
X178212672Y-104584450D01*
X178198541Y-104531711D01*
X178198538Y-104531702D01*
X178194946Y-104523998D01*
X178102368Y-104325466D01*
X177971847Y-104139061D01*
X177971845Y-104139058D01*
X177810941Y-103978154D01*
X177624534Y-103847632D01*
X177624528Y-103847629D01*
X177590913Y-103831954D01*
X177566524Y-103820581D01*
X177514085Y-103774410D01*
X177494933Y-103707217D01*
X177515148Y-103640335D01*
X177566525Y-103595818D01*
X177586323Y-103586586D01*
X177624534Y-103568768D01*
X177810939Y-103438247D01*
X177971847Y-103277339D01*
X178102368Y-103090934D01*
X178198539Y-102884696D01*
X178257435Y-102664892D01*
X178277268Y-102438200D01*
X178257435Y-102211508D01*
X178203370Y-102009735D01*
X178198541Y-101991711D01*
X178198538Y-101991702D01*
X178102368Y-101785466D01*
X178004639Y-101645893D01*
X177971845Y-101599058D01*
X177810941Y-101438154D01*
X177624534Y-101307632D01*
X177624528Y-101307629D01*
X177566525Y-101280582D01*
X177514085Y-101234410D01*
X177494933Y-101167217D01*
X177515148Y-101100335D01*
X177566525Y-101055818D01*
X177624534Y-101028768D01*
X177810939Y-100898247D01*
X177971847Y-100737339D01*
X178102368Y-100550934D01*
X178198539Y-100344696D01*
X178257435Y-100124892D01*
X178277268Y-99898200D01*
X178257435Y-99671508D01*
X178198539Y-99451704D01*
X178102368Y-99245466D01*
X177971847Y-99059061D01*
X177971845Y-99059058D01*
X177810941Y-98898154D01*
X177624534Y-98767632D01*
X177624528Y-98767629D01*
X177566525Y-98740582D01*
X177514085Y-98694410D01*
X177494933Y-98627217D01*
X177515148Y-98560335D01*
X177566525Y-98515818D01*
X177624534Y-98488768D01*
X177810939Y-98358247D01*
X177971847Y-98197339D01*
X178102368Y-98010934D01*
X178198539Y-97804696D01*
X178257435Y-97584892D01*
X178277268Y-97358200D01*
X178257435Y-97131508D01*
X178198539Y-96911704D01*
X178102368Y-96705466D01*
X177971847Y-96519061D01*
X177971845Y-96519058D01*
X177810941Y-96358154D01*
X177624534Y-96227632D01*
X177624528Y-96227629D01*
X177566525Y-96200582D01*
X177514085Y-96154410D01*
X177494933Y-96087217D01*
X177515148Y-96020335D01*
X177566525Y-95975818D01*
X177624534Y-95948768D01*
X177810939Y-95818247D01*
X177971847Y-95657339D01*
X178102368Y-95470934D01*
X178198539Y-95264696D01*
X178257435Y-95044892D01*
X178277268Y-94818200D01*
X178257435Y-94591508D01*
X178198539Y-94371704D01*
X178102368Y-94165466D01*
X177971847Y-93979061D01*
X177971845Y-93979058D01*
X177810941Y-93818154D01*
X177624534Y-93687632D01*
X177624528Y-93687629D01*
X177566525Y-93660582D01*
X177514085Y-93614410D01*
X177494933Y-93547217D01*
X177515148Y-93480335D01*
X177566525Y-93435818D01*
X177624534Y-93408768D01*
X177810939Y-93278247D01*
X177971847Y-93117339D01*
X178102368Y-92930934D01*
X178198539Y-92724696D01*
X178257435Y-92504892D01*
X178277268Y-92278200D01*
X178257435Y-92051508D01*
X178198539Y-91831704D01*
X178102368Y-91625466D01*
X177971847Y-91439061D01*
X177971845Y-91439058D01*
X177810941Y-91278154D01*
X177624534Y-91147632D01*
X177624532Y-91147631D01*
X177418297Y-91051461D01*
X177418288Y-91051458D01*
X177198497Y-90992566D01*
X177198493Y-90992565D01*
X177198492Y-90992565D01*
X177198491Y-90992564D01*
X177198486Y-90992564D01*
X176971802Y-90972732D01*
X176971798Y-90972732D01*
X176745113Y-90992564D01*
X176745102Y-90992566D01*
X176525311Y-91051458D01*
X176525302Y-91051461D01*
X176319067Y-91147631D01*
X176319065Y-91147632D01*
X176132658Y-91278154D01*
X175971754Y-91439058D01*
X175841232Y-91625465D01*
X175841231Y-91625467D01*
X175745061Y-91831702D01*
X175745058Y-91831711D01*
X175686166Y-92051502D01*
X175686164Y-92051513D01*
X175666332Y-92278198D01*
X175666332Y-92278201D01*
X175686164Y-92504886D01*
X175686166Y-92504897D01*
X175745058Y-92724688D01*
X175745061Y-92724697D01*
X175841231Y-92930932D01*
X175841232Y-92930934D01*
X175971754Y-93117341D01*
X176132658Y-93278245D01*
X176132661Y-93278247D01*
X176319066Y-93408768D01*
X176377075Y-93435818D01*
X176429514Y-93481991D01*
X176448666Y-93549184D01*
X176428450Y-93616065D01*
X176377075Y-93660582D01*
X176319067Y-93687631D01*
X176319065Y-93687632D01*
X176132658Y-93818154D01*
X175971754Y-93979058D01*
X175841232Y-94165465D01*
X175841231Y-94165467D01*
X175745061Y-94371702D01*
X175745058Y-94371711D01*
X175686166Y-94591502D01*
X175686164Y-94591513D01*
X175666332Y-94818198D01*
X175666332Y-94818201D01*
X175686164Y-95044886D01*
X175686166Y-95044897D01*
X175745058Y-95264688D01*
X175745061Y-95264697D01*
X175841231Y-95470932D01*
X175841232Y-95470934D01*
X175971754Y-95657341D01*
X176132658Y-95818245D01*
X176132661Y-95818247D01*
X176319066Y-95948768D01*
X176377075Y-95975818D01*
X176429514Y-96021991D01*
X176448666Y-96089184D01*
X176428450Y-96156065D01*
X176377075Y-96200582D01*
X176319067Y-96227631D01*
X176319065Y-96227632D01*
X176132658Y-96358154D01*
X175971754Y-96519058D01*
X175841232Y-96705465D01*
X175841231Y-96705467D01*
X175745061Y-96911702D01*
X175745058Y-96911711D01*
X175686166Y-97131502D01*
X175686164Y-97131513D01*
X175666332Y-97358198D01*
X175666332Y-97358201D01*
X175686164Y-97584886D01*
X175686166Y-97584897D01*
X175745058Y-97804688D01*
X175745061Y-97804697D01*
X175841231Y-98010932D01*
X175841232Y-98010934D01*
X175971754Y-98197341D01*
X176132658Y-98358245D01*
X176132661Y-98358247D01*
X176319066Y-98488768D01*
X176377075Y-98515818D01*
X176429514Y-98561991D01*
X176448666Y-98629184D01*
X176428450Y-98696065D01*
X176377075Y-98740582D01*
X176319067Y-98767631D01*
X176319065Y-98767632D01*
X176132658Y-98898154D01*
X175971754Y-99059058D01*
X175841232Y-99245465D01*
X175841231Y-99245467D01*
X175745061Y-99451702D01*
X175745058Y-99451711D01*
X175686166Y-99671502D01*
X175686164Y-99671513D01*
X175666332Y-99898198D01*
X175666332Y-99898201D01*
X175686164Y-100124886D01*
X175686166Y-100124897D01*
X175745058Y-100344688D01*
X175745061Y-100344697D01*
X175841231Y-100550932D01*
X175841232Y-100550934D01*
X175971754Y-100737341D01*
X176132658Y-100898245D01*
X176132661Y-100898247D01*
X176319066Y-101028768D01*
X176377075Y-101055818D01*
X176429514Y-101101991D01*
X176448666Y-101169184D01*
X176428450Y-101236065D01*
X176377075Y-101280582D01*
X176319067Y-101307631D01*
X176319065Y-101307632D01*
X176132658Y-101438154D01*
X175971754Y-101599058D01*
X175841232Y-101785465D01*
X175841231Y-101785467D01*
X175745061Y-101991702D01*
X175745058Y-101991711D01*
X175686166Y-102211502D01*
X175686164Y-102211513D01*
X175666332Y-102438198D01*
X175666332Y-102438201D01*
X175686164Y-102664886D01*
X175686166Y-102664897D01*
X175745058Y-102884688D01*
X175745061Y-102884697D01*
X175841231Y-103090932D01*
X175841232Y-103090934D01*
X175971754Y-103277341D01*
X176132658Y-103438245D01*
X176132661Y-103438247D01*
X176319066Y-103568768D01*
X176357277Y-103586586D01*
X176377075Y-103595818D01*
X176429514Y-103641991D01*
X176448666Y-103709184D01*
X176428450Y-103776065D01*
X176377075Y-103820582D01*
X176319067Y-103847631D01*
X176319065Y-103847632D01*
X176132658Y-103978154D01*
X175971754Y-104139058D01*
X175841232Y-104325465D01*
X175841231Y-104325467D01*
X175745061Y-104531702D01*
X175745058Y-104531711D01*
X175686166Y-104751502D01*
X175686164Y-104751513D01*
X175666332Y-104978198D01*
X175666332Y-104978201D01*
X175686164Y-105204886D01*
X175686166Y-105204897D01*
X175745058Y-105424688D01*
X175745061Y-105424697D01*
X175841229Y-105630928D01*
X175841232Y-105630934D01*
X175971754Y-105817341D01*
X176132658Y-105978245D01*
X176132661Y-105978247D01*
X176319066Y-106108768D01*
X176377075Y-106135818D01*
X176429514Y-106181991D01*
X176448666Y-106249184D01*
X176428450Y-106316065D01*
X176377075Y-106360582D01*
X176319067Y-106387631D01*
X176319065Y-106387632D01*
X176132658Y-106518154D01*
X175971754Y-106679058D01*
X175841232Y-106865465D01*
X175841231Y-106865467D01*
X175745061Y-107071702D01*
X175745058Y-107071711D01*
X175686166Y-107291502D01*
X175686164Y-107291513D01*
X175666332Y-107518198D01*
X175666332Y-107518201D01*
X175686164Y-107744886D01*
X175686166Y-107744897D01*
X175745058Y-107964688D01*
X175745061Y-107964697D01*
X175841231Y-108170932D01*
X175841232Y-108170934D01*
X175971754Y-108357341D01*
X176132658Y-108518245D01*
X176132661Y-108518247D01*
X176319066Y-108648768D01*
X176377075Y-108675818D01*
X176429514Y-108721991D01*
X176448666Y-108789184D01*
X176428450Y-108856065D01*
X176377075Y-108900582D01*
X176319067Y-108927631D01*
X176319065Y-108927632D01*
X176132658Y-109058154D01*
X175971754Y-109219058D01*
X175841232Y-109405465D01*
X175841231Y-109405467D01*
X175745061Y-109611702D01*
X175745058Y-109611711D01*
X175686166Y-109831502D01*
X175686164Y-109831513D01*
X175666332Y-110058198D01*
X175666332Y-110058201D01*
X175686164Y-110284886D01*
X175686166Y-110284897D01*
X175745058Y-110504688D01*
X175745061Y-110504697D01*
X175841231Y-110710932D01*
X175841232Y-110710934D01*
X175971754Y-110897341D01*
X176132658Y-111058245D01*
X176132661Y-111058247D01*
X176319066Y-111188768D01*
X176377075Y-111215818D01*
X176429514Y-111261991D01*
X176448666Y-111329184D01*
X176428450Y-111396065D01*
X176377075Y-111440582D01*
X176319067Y-111467631D01*
X176319065Y-111467632D01*
X176132658Y-111598154D01*
X175971754Y-111759058D01*
X175841232Y-111945465D01*
X175841231Y-111945467D01*
X175745061Y-112151702D01*
X175745058Y-112151711D01*
X175686166Y-112371502D01*
X175686164Y-112371513D01*
X175666332Y-112598198D01*
X175666332Y-112598201D01*
X175686164Y-112824886D01*
X175686166Y-112824897D01*
X175745058Y-113044688D01*
X175745061Y-113044697D01*
X175766045Y-113089695D01*
X175776537Y-113158772D01*
X175748018Y-113222556D01*
X175689541Y-113260796D01*
X175653663Y-113266100D01*
X175094093Y-113266100D01*
X174967961Y-113291189D01*
X174967955Y-113291191D01*
X174849137Y-113340407D01*
X174742197Y-113411861D01*
X174742196Y-113411862D01*
X174219460Y-113934597D01*
X174219456Y-113934601D01*
X174170663Y-114007630D01*
X174170661Y-114007633D01*
X174148012Y-114041527D01*
X174148006Y-114041538D01*
X174098791Y-114160355D01*
X174098789Y-114160361D01*
X174073700Y-114286492D01*
X174073700Y-114361300D01*
X174054015Y-114428339D01*
X174001211Y-114474094D01*
X173949700Y-114485300D01*
X162926803Y-114485300D01*
X162859764Y-114465615D01*
X162825228Y-114432423D01*
X162731846Y-114299059D01*
X162570941Y-114138154D01*
X162384534Y-114007632D01*
X162384528Y-114007629D01*
X162326525Y-113980582D01*
X162274085Y-113934410D01*
X162254933Y-113867217D01*
X162275148Y-113800335D01*
X162326525Y-113755818D01*
X162384534Y-113728768D01*
X162570939Y-113598247D01*
X162731847Y-113437339D01*
X162862368Y-113250934D01*
X162958539Y-113044696D01*
X163017435Y-112824892D01*
X163037268Y-112598200D01*
X163017435Y-112371508D01*
X162958539Y-112151704D01*
X162862368Y-111945466D01*
X162740105Y-111770855D01*
X162731845Y-111759058D01*
X162570941Y-111598154D01*
X162384534Y-111467632D01*
X162384528Y-111467629D01*
X162341434Y-111447534D01*
X162326524Y-111440581D01*
X162274085Y-111394410D01*
X162254933Y-111327217D01*
X162275148Y-111260335D01*
X162326525Y-111215818D01*
X162384534Y-111188768D01*
X162570939Y-111058247D01*
X162731847Y-110897339D01*
X162862368Y-110710934D01*
X162958539Y-110504696D01*
X163017435Y-110284892D01*
X163037268Y-110058200D01*
X163017435Y-109831508D01*
X162958539Y-109611704D01*
X162862368Y-109405466D01*
X162731847Y-109219061D01*
X162731845Y-109219058D01*
X162570941Y-109058154D01*
X162384534Y-108927632D01*
X162384528Y-108927629D01*
X162326525Y-108900582D01*
X162274085Y-108854410D01*
X162254933Y-108787217D01*
X162275148Y-108720335D01*
X162326525Y-108675818D01*
X162384534Y-108648768D01*
X162570939Y-108518247D01*
X162731847Y-108357339D01*
X162862368Y-108170934D01*
X162958539Y-107964696D01*
X163017435Y-107744892D01*
X163037268Y-107518200D01*
X163033342Y-107473331D01*
X163031601Y-107453430D01*
X163017435Y-107291508D01*
X162969507Y-107112637D01*
X162958541Y-107071711D01*
X162958538Y-107071702D01*
X162862368Y-106865467D01*
X162862367Y-106865465D01*
X162731845Y-106679058D01*
X162570941Y-106518154D01*
X162384534Y-106387632D01*
X162384528Y-106387629D01*
X162326525Y-106360582D01*
X162274085Y-106314410D01*
X162254933Y-106247217D01*
X162275148Y-106180335D01*
X162326525Y-106135818D01*
X162384534Y-106108768D01*
X162570939Y-105978247D01*
X162731847Y-105817339D01*
X162862368Y-105630934D01*
X162958539Y-105424696D01*
X163017435Y-105204892D01*
X163037268Y-104978200D01*
X163017435Y-104751508D01*
X162972672Y-104584450D01*
X162958541Y-104531711D01*
X162958538Y-104531702D01*
X162954946Y-104523998D01*
X162862368Y-104325466D01*
X162731847Y-104139061D01*
X162731845Y-104139058D01*
X162570941Y-103978154D01*
X162384534Y-103847632D01*
X162384528Y-103847629D01*
X162350913Y-103831954D01*
X162326524Y-103820581D01*
X162274085Y-103774410D01*
X162254933Y-103707217D01*
X162275148Y-103640335D01*
X162326525Y-103595818D01*
X162346323Y-103586586D01*
X162384534Y-103568768D01*
X162570939Y-103438247D01*
X162731847Y-103277339D01*
X162862368Y-103090934D01*
X162958539Y-102884696D01*
X163017435Y-102664892D01*
X163037268Y-102438200D01*
X163017435Y-102211508D01*
X162963370Y-102009735D01*
X162958541Y-101991711D01*
X162958538Y-101991702D01*
X162862368Y-101785466D01*
X162764639Y-101645893D01*
X162731845Y-101599058D01*
X162570941Y-101438154D01*
X162384534Y-101307632D01*
X162384528Y-101307629D01*
X162326525Y-101280582D01*
X162274085Y-101234410D01*
X162254933Y-101167217D01*
X162275148Y-101100335D01*
X162326525Y-101055818D01*
X162384534Y-101028768D01*
X162570939Y-100898247D01*
X162731847Y-100737339D01*
X162862368Y-100550934D01*
X162958539Y-100344696D01*
X163017435Y-100124892D01*
X163037268Y-99898200D01*
X163017435Y-99671508D01*
X162958539Y-99451704D01*
X162862368Y-99245466D01*
X162731847Y-99059061D01*
X162731845Y-99059058D01*
X162570941Y-98898154D01*
X162384534Y-98767632D01*
X162384528Y-98767629D01*
X162326525Y-98740582D01*
X162274085Y-98694410D01*
X162254933Y-98627217D01*
X162275148Y-98560335D01*
X162326525Y-98515818D01*
X162384534Y-98488768D01*
X162570939Y-98358247D01*
X162731847Y-98197339D01*
X162862368Y-98010934D01*
X162958539Y-97804696D01*
X163017435Y-97584892D01*
X163037268Y-97358200D01*
X163017435Y-97131508D01*
X162958539Y-96911704D01*
X162862368Y-96705466D01*
X162731847Y-96519061D01*
X162731845Y-96519058D01*
X162570941Y-96358154D01*
X162384534Y-96227632D01*
X162384528Y-96227629D01*
X162326525Y-96200582D01*
X162274085Y-96154410D01*
X162254933Y-96087217D01*
X162275148Y-96020335D01*
X162326525Y-95975818D01*
X162384534Y-95948768D01*
X162570939Y-95818247D01*
X162731847Y-95657339D01*
X162862368Y-95470934D01*
X162958539Y-95264696D01*
X163017435Y-95044892D01*
X163037268Y-94818200D01*
X163017435Y-94591508D01*
X162958539Y-94371704D01*
X162862368Y-94165466D01*
X162731847Y-93979061D01*
X162731845Y-93979058D01*
X162570943Y-93818156D01*
X162546336Y-93800926D01*
X162502712Y-93746349D01*
X162495519Y-93676850D01*
X162527041Y-93614496D01*
X162587271Y-93579082D01*
X162604204Y-93576061D01*
X162639283Y-93572291D01*
X162774131Y-93521996D01*
X162889346Y-93435746D01*
X162975596Y-93320531D01*
X163025891Y-93185683D01*
X163032300Y-93126073D01*
X163032299Y-91430328D01*
X163025891Y-91370717D01*
X162991367Y-91278154D01*
X162975597Y-91235871D01*
X162975593Y-91235864D01*
X162889347Y-91120655D01*
X162889344Y-91120652D01*
X162774135Y-91034406D01*
X162774128Y-91034402D01*
X162639282Y-90984108D01*
X162639283Y-90984108D01*
X162579683Y-90977701D01*
X162579681Y-90977700D01*
X162579673Y-90977700D01*
X162579664Y-90977700D01*
X160883929Y-90977700D01*
X160883923Y-90977701D01*
X160824316Y-90984108D01*
X160689471Y-91034402D01*
X160689464Y-91034406D01*
X160574255Y-91120652D01*
X160574252Y-91120655D01*
X160488006Y-91235864D01*
X160488002Y-91235871D01*
X160437708Y-91370717D01*
X160431301Y-91430316D01*
X160431301Y-91430323D01*
X160431300Y-91430335D01*
X160431300Y-93126070D01*
X160431301Y-93126076D01*
X160437708Y-93185683D01*
X160488002Y-93320528D01*
X160488006Y-93320535D01*
X160574252Y-93435744D01*
X160574255Y-93435747D01*
X160689464Y-93521993D01*
X160689471Y-93521997D01*
X160734418Y-93538761D01*
X160824317Y-93572291D01*
X160859396Y-93576062D01*
X160923944Y-93602799D01*
X160963793Y-93660191D01*
X160966288Y-93730016D01*
X160930636Y-93790105D01*
X160917264Y-93800925D01*
X160892658Y-93818154D01*
X160731754Y-93979058D01*
X160601232Y-94165465D01*
X160601231Y-94165467D01*
X160505061Y-94371702D01*
X160505058Y-94371711D01*
X160446166Y-94591502D01*
X160446164Y-94591513D01*
X160426332Y-94818198D01*
X159174300Y-94818198D01*
X159174300Y-82349000D01*
X159193985Y-82281961D01*
X159246789Y-82236206D01*
X159298300Y-82225000D01*
X180309696Y-82225000D01*
X180376735Y-82244685D01*
G37*
%TD.AperFunction*%
%TD*%
M02*
