%TF.GenerationSoftware,KiCad,Pcbnew,8.0.7*%
%TF.CreationDate,2025-07-22T20:11:00+09:00*%
%TF.ProjectId,Arduino magnetic gate,41726475-696e-46f2-906d-61676e657469,rev?*%
%TF.SameCoordinates,Original*%
%TF.FileFunction,Legend,Top*%
%TF.FilePolarity,Positive*%
%FSLAX46Y46*%
G04 Gerber Fmt 4.6, Leading zero omitted, Abs format (unit mm)*
G04 Created by KiCad (PCBNEW 8.0.7) date 2025-07-22 20:11:00*
%MOMM*%
%LPD*%
G01*
G04 APERTURE LIST*
%ADD10C,0.200000*%
%ADD11C,0.125000*%
%ADD12C,0.150000*%
%ADD13C,0.120000*%
G04 APERTURE END LIST*
D10*
G36*
X204644876Y-118056171D02*
G01*
X205258903Y-118056171D01*
X205495940Y-118965488D01*
X205731879Y-118056171D01*
X206344074Y-118056171D01*
X206344074Y-119556800D01*
X205962688Y-119556800D01*
X205962688Y-118404950D01*
X205667032Y-119556800D01*
X205321917Y-119556800D01*
X205026994Y-118404950D01*
X205026994Y-119556800D01*
X204644876Y-119556800D01*
X204644876Y-118056171D01*
G37*
G36*
X207229429Y-118432345D02*
G01*
X207310985Y-118435997D01*
X207391624Y-118443281D01*
X207453425Y-118452578D01*
X207527716Y-118472641D01*
X207598393Y-118506971D01*
X207644300Y-118541238D01*
X207692111Y-118597566D01*
X207726619Y-118668175D01*
X207728564Y-118673495D01*
X207749852Y-118746715D01*
X207759431Y-118821897D01*
X207759705Y-118836527D01*
X207759705Y-119322693D01*
X207762719Y-119399406D01*
X207769231Y-119444326D01*
X207793741Y-119516378D01*
X207812095Y-119556800D01*
X207418620Y-119556800D01*
X207387479Y-119491587D01*
X207373191Y-119420878D01*
X207316649Y-119470211D01*
X207255263Y-119511882D01*
X207209426Y-119534818D01*
X207136311Y-119558774D01*
X207056183Y-119573858D01*
X206978072Y-119579848D01*
X206950773Y-119580247D01*
X206869544Y-119576074D01*
X206787787Y-119561088D01*
X206717846Y-119535202D01*
X206653285Y-119493052D01*
X206599769Y-119434548D01*
X206566073Y-119368030D01*
X206552199Y-119293498D01*
X206551802Y-119277630D01*
X206555534Y-119244291D01*
X206972388Y-119244291D01*
X207000672Y-119312064D01*
X207006827Y-119317564D01*
X207076825Y-119344011D01*
X207108309Y-119345774D01*
X207183902Y-119336036D01*
X207238369Y-119314999D01*
X207300193Y-119271379D01*
X207324098Y-119240261D01*
X207346909Y-119166666D01*
X207349377Y-119124856D01*
X207349377Y-119064406D01*
X207277918Y-119086001D01*
X207204039Y-119105540D01*
X207169126Y-119113865D01*
X207092347Y-119134893D01*
X207023509Y-119163148D01*
X207007559Y-119174315D01*
X206972526Y-119239424D01*
X206972388Y-119244291D01*
X206555534Y-119244291D01*
X206560460Y-119200288D01*
X206589655Y-119127370D01*
X206625075Y-119080526D01*
X206689874Y-119032056D01*
X206764723Y-118999353D01*
X206836523Y-118978246D01*
X206895085Y-118965488D01*
X206977728Y-118949280D01*
X207059395Y-118932814D01*
X207133281Y-118917214D01*
X207201000Y-118901374D01*
X207273082Y-118880216D01*
X207344485Y-118855224D01*
X207349377Y-118853380D01*
X207339292Y-118780428D01*
X207317503Y-118744204D01*
X207246513Y-118715188D01*
X207205030Y-118712696D01*
X207129849Y-118718622D01*
X207057081Y-118744252D01*
X207050424Y-118748600D01*
X207004480Y-118806287D01*
X206985577Y-118853380D01*
X206584775Y-118806485D01*
X206602729Y-118732025D01*
X206629975Y-118659207D01*
X206649988Y-118622571D01*
X206698465Y-118563398D01*
X206758672Y-118515433D01*
X206773453Y-118506067D01*
X206841871Y-118474285D01*
X206913512Y-118454531D01*
X206932088Y-118450746D01*
X207010193Y-118438913D01*
X207085771Y-118432864D01*
X207150441Y-118431328D01*
X207229429Y-118432345D01*
G37*
G36*
X208507669Y-118435264D02*
G01*
X208580438Y-118448684D01*
X208642643Y-118471629D01*
X208708400Y-118512782D01*
X208765880Y-118566225D01*
X208797981Y-118604252D01*
X208797981Y-118454776D01*
X209190724Y-118454776D01*
X209190724Y-119494518D01*
X209191823Y-119543244D01*
X209185641Y-119619614D01*
X209167093Y-119693201D01*
X209147859Y-119740714D01*
X209111040Y-119806007D01*
X209061850Y-119865346D01*
X209031356Y-119892389D01*
X208965947Y-119934338D01*
X208894085Y-119963506D01*
X208847074Y-119976287D01*
X208774052Y-119990004D01*
X208694661Y-119998641D01*
X208617764Y-120002070D01*
X208590986Y-120002298D01*
X208511782Y-120000741D01*
X208421858Y-119994416D01*
X208342024Y-119983225D01*
X208259541Y-119963372D01*
X208181672Y-119931355D01*
X208138159Y-119902647D01*
X208084304Y-119848769D01*
X208042109Y-119778029D01*
X208020951Y-119706147D01*
X208015061Y-119636301D01*
X208017259Y-119580247D01*
X208423924Y-119627141D01*
X208465353Y-119690121D01*
X208471185Y-119693820D01*
X208542351Y-119717727D01*
X208587688Y-119720931D01*
X208662725Y-119710788D01*
X208723243Y-119674769D01*
X208758404Y-119606180D01*
X208768130Y-119527357D01*
X208768306Y-119513202D01*
X208768306Y-119354933D01*
X208714130Y-119410261D01*
X208652214Y-119455118D01*
X208644475Y-119459347D01*
X208576118Y-119488131D01*
X208504039Y-119504968D01*
X208435281Y-119509905D01*
X208355962Y-119503143D01*
X208282593Y-119482857D01*
X208215175Y-119449047D01*
X208153707Y-119401713D01*
X208098190Y-119340855D01*
X208081007Y-119317564D01*
X208043605Y-119253588D01*
X208015390Y-119181232D01*
X207996361Y-119100496D01*
X207987363Y-119024624D01*
X207985841Y-118980509D01*
X208403407Y-118980509D01*
X208409381Y-119059491D01*
X208431846Y-119133076D01*
X208453965Y-119167721D01*
X208512492Y-119213333D01*
X208586956Y-119228537D01*
X208658763Y-119212783D01*
X208718114Y-119165522D01*
X208754429Y-119097862D01*
X208769369Y-119020445D01*
X208771237Y-118975013D01*
X208765799Y-118901196D01*
X208744916Y-118828107D01*
X208715550Y-118780107D01*
X208657949Y-118731721D01*
X208584619Y-118712762D01*
X208579628Y-118712696D01*
X208507455Y-118728267D01*
X208451401Y-118774978D01*
X208418593Y-118844792D01*
X208405704Y-118921586D01*
X208403407Y-118980509D01*
X207985841Y-118980509D01*
X207985019Y-118956695D01*
X207988033Y-118879531D01*
X207999608Y-118794798D01*
X208019864Y-118718643D01*
X208048801Y-118651066D01*
X208093533Y-118583068D01*
X208108484Y-118565784D01*
X208166307Y-118513394D01*
X208231422Y-118473871D01*
X208303831Y-118447216D01*
X208383532Y-118433429D01*
X208432350Y-118431328D01*
X208507669Y-118435264D01*
G37*
G36*
X209436188Y-118454776D02*
G01*
X209826732Y-118454776D01*
X209826732Y-118633562D01*
X209876130Y-118577282D01*
X209931357Y-118526306D01*
X209992519Y-118484282D01*
X210003686Y-118478223D01*
X210076518Y-118449647D01*
X210152967Y-118435038D01*
X210222406Y-118431328D01*
X210304677Y-118437854D01*
X210377469Y-118457432D01*
X210448029Y-118495058D01*
X210494614Y-118535742D01*
X210542254Y-118603253D01*
X210571512Y-118678346D01*
X210587007Y-118755698D01*
X210592781Y-118830651D01*
X210593166Y-118857410D01*
X210593166Y-119556800D01*
X210171848Y-119556800D01*
X210171848Y-118949734D01*
X210165559Y-118875293D01*
X210136090Y-118805561D01*
X210133746Y-118802822D01*
X210070483Y-118764699D01*
X210026767Y-118759591D01*
X209953866Y-118776031D01*
X209902936Y-118817843D01*
X209870629Y-118886485D01*
X209857937Y-118965211D01*
X209855675Y-119026670D01*
X209855675Y-119556800D01*
X209436188Y-119556800D01*
X209436188Y-118454776D01*
G37*
G36*
X211485953Y-118433763D02*
G01*
X211563585Y-118441066D01*
X211645365Y-118455739D01*
X211717679Y-118477040D01*
X211772127Y-118500571D01*
X211836195Y-118538902D01*
X211898527Y-118591330D01*
X211950543Y-118653611D01*
X211979489Y-118700606D01*
X212010584Y-118771108D01*
X212032795Y-118851457D01*
X212044941Y-118929838D01*
X212049939Y-119003022D01*
X212050563Y-119041691D01*
X212050563Y-119087853D01*
X211209757Y-119087853D01*
X211225796Y-119162696D01*
X211261675Y-119228122D01*
X211264346Y-119231102D01*
X211324643Y-119277434D01*
X211399105Y-119297820D01*
X211422981Y-119298879D01*
X211497800Y-119287573D01*
X211540218Y-119269936D01*
X211598971Y-119221546D01*
X211613491Y-119205090D01*
X212026750Y-119251984D01*
X211983360Y-119324027D01*
X211936219Y-119386603D01*
X211885326Y-119439712D01*
X211822569Y-119488817D01*
X211797772Y-119504043D01*
X211723629Y-119537382D01*
X211646808Y-119558740D01*
X211572087Y-119571242D01*
X211489174Y-119578386D01*
X211413822Y-119580247D01*
X211335598Y-119578083D01*
X211252541Y-119570089D01*
X211178319Y-119556204D01*
X211104313Y-119533123D01*
X211071638Y-119518698D01*
X211004933Y-119478338D01*
X210944951Y-119426503D01*
X210897277Y-119370792D01*
X210865009Y-119323059D01*
X210829265Y-119253084D01*
X210803734Y-119177246D01*
X210788416Y-119095547D01*
X210783389Y-119019252D01*
X210783309Y-119007986D01*
X210787317Y-118929792D01*
X210795993Y-118876827D01*
X211210857Y-118876827D01*
X211624115Y-118876827D01*
X211603502Y-118805343D01*
X211558536Y-118750798D01*
X211488405Y-118719989D01*
X211418951Y-118712696D01*
X211344338Y-118722189D01*
X211274776Y-118756734D01*
X211259217Y-118770215D01*
X211219987Y-118836034D01*
X211210857Y-118876827D01*
X210795993Y-118876827D01*
X210799338Y-118856410D01*
X210824342Y-118774703D01*
X210860887Y-118699926D01*
X210908972Y-118632079D01*
X210947441Y-118590697D01*
X211013519Y-118536537D01*
X211088382Y-118493582D01*
X211157478Y-118466346D01*
X211232674Y-118446892D01*
X211313970Y-118435219D01*
X211401366Y-118431328D01*
X211485953Y-118433763D01*
G37*
G36*
X212741160Y-118056171D02*
G01*
X212741160Y-118454776D01*
X212971970Y-118454776D01*
X212971970Y-118759591D01*
X212741160Y-118759591D01*
X212741160Y-119165522D01*
X212746998Y-119240070D01*
X212754716Y-119262243D01*
X212820554Y-119298736D01*
X212826889Y-119298879D01*
X212903570Y-119286888D01*
X212956582Y-119271035D01*
X212987357Y-119548007D01*
X212910810Y-119562112D01*
X212836873Y-119572187D01*
X212756814Y-119578704D01*
X212696830Y-119580247D01*
X212623580Y-119577728D01*
X212546508Y-119567496D01*
X212475273Y-119544827D01*
X212465654Y-119539947D01*
X212404726Y-119492564D01*
X212363113Y-119431636D01*
X212356111Y-119416482D01*
X212334456Y-119340009D01*
X212324773Y-119263789D01*
X212320886Y-119182461D01*
X212320574Y-119148670D01*
X212320574Y-118759591D01*
X212166335Y-118759591D01*
X212166335Y-118454776D01*
X212320574Y-118454776D01*
X212320574Y-118262435D01*
X212741160Y-118056171D01*
G37*
G36*
X213182629Y-118056171D02*
G01*
X213602116Y-118056171D01*
X213602116Y-118337539D01*
X213182629Y-118337539D01*
X213182629Y-118056171D01*
G37*
G36*
X213182629Y-118454776D02*
G01*
X213602116Y-118454776D01*
X213602116Y-119556800D01*
X213182629Y-119556800D01*
X213182629Y-118454776D01*
G37*
G36*
X214682158Y-119134748D02*
G01*
X215081129Y-119181642D01*
X215056371Y-119254515D01*
X215023312Y-119321090D01*
X214977360Y-119387050D01*
X214972685Y-119392668D01*
X214916115Y-119449199D01*
X214856123Y-119492475D01*
X214787974Y-119528024D01*
X214780710Y-119531154D01*
X214709957Y-119554885D01*
X214629177Y-119570850D01*
X214548955Y-119578521D01*
X214483589Y-119580247D01*
X214410081Y-119578687D01*
X214332898Y-119573082D01*
X214254771Y-119561906D01*
X214193062Y-119547640D01*
X214123853Y-119523326D01*
X214054997Y-119487489D01*
X213993760Y-119442127D01*
X213940783Y-119389017D01*
X213896205Y-119329933D01*
X213862968Y-119271035D01*
X213836060Y-119195957D01*
X213822353Y-119123259D01*
X213816445Y-119050123D01*
X213815707Y-119010550D01*
X213819324Y-118929286D01*
X213830178Y-118855120D01*
X213851037Y-118780168D01*
X213873592Y-118728084D01*
X213912903Y-118663652D01*
X213962372Y-118604904D01*
X213988630Y-118579706D01*
X214048830Y-118531925D01*
X214115147Y-118492776D01*
X214139206Y-118481887D01*
X214213691Y-118457447D01*
X214289048Y-118442437D01*
X214362047Y-118434488D01*
X214441638Y-118431378D01*
X214453547Y-118431328D01*
X214534134Y-118433663D01*
X214608515Y-118440666D01*
X214689577Y-118455234D01*
X214761701Y-118476524D01*
X214834547Y-118509861D01*
X214862043Y-118526950D01*
X214919577Y-118573009D01*
X214969083Y-118627518D01*
X215010559Y-118690477D01*
X215044006Y-118761886D01*
X215059513Y-118806485D01*
X214664939Y-118853380D01*
X214634297Y-118785670D01*
X214597162Y-118748234D01*
X214527416Y-118718561D01*
X214466003Y-118712696D01*
X214387995Y-118725273D01*
X214323047Y-118763003D01*
X214297476Y-118788900D01*
X214258183Y-118856803D01*
X214239292Y-118930234D01*
X214233058Y-119009413D01*
X214232995Y-119018977D01*
X214239221Y-119098403D01*
X214260449Y-119170896D01*
X214296743Y-119227804D01*
X214354579Y-119273822D01*
X214429713Y-119297144D01*
X214459775Y-119298879D01*
X214535612Y-119288804D01*
X214598261Y-119258579D01*
X214649856Y-119203559D01*
X214682158Y-119134748D01*
G37*
G36*
X215994109Y-118056171D02*
G01*
X216460857Y-118056171D01*
X216460857Y-119181642D01*
X217189189Y-119181642D01*
X217189189Y-119556800D01*
X215994109Y-119556800D01*
X215994109Y-118056171D01*
G37*
G36*
X218019513Y-118434322D02*
G01*
X218094131Y-118443304D01*
X218180336Y-118462951D01*
X218258688Y-118491955D01*
X218329186Y-118530314D01*
X218391831Y-118578029D01*
X218436293Y-118622937D01*
X218482236Y-118683288D01*
X218518673Y-118748663D01*
X218545605Y-118819061D01*
X218563032Y-118894482D01*
X218570953Y-118974926D01*
X218571481Y-119002857D01*
X218567394Y-119079847D01*
X218555131Y-119152365D01*
X218529624Y-119233483D01*
X218492345Y-119308161D01*
X218443294Y-119376399D01*
X218404053Y-119418314D01*
X218336746Y-119473346D01*
X218260398Y-119516992D01*
X218189867Y-119544666D01*
X218113058Y-119564433D01*
X218029969Y-119576293D01*
X217940602Y-119580247D01*
X217860639Y-119576964D01*
X217785613Y-119567116D01*
X217702099Y-119546633D01*
X217625695Y-119516695D01*
X217556400Y-119477304D01*
X217514154Y-119445791D01*
X217456527Y-119391167D01*
X217408667Y-119331481D01*
X217370574Y-119266732D01*
X217342249Y-119196921D01*
X217323691Y-119122047D01*
X217314900Y-119042111D01*
X217314119Y-119008719D01*
X217314297Y-119005421D01*
X217734705Y-119005421D01*
X217739371Y-119083535D01*
X217755500Y-119155849D01*
X217790061Y-119222507D01*
X217793690Y-119227072D01*
X217851442Y-119276159D01*
X217926237Y-119298248D01*
X217942800Y-119298879D01*
X218015810Y-119285345D01*
X218080338Y-119240807D01*
X218091544Y-119228171D01*
X218127041Y-119163084D01*
X218144107Y-119090426D01*
X218149739Y-119010719D01*
X218149796Y-119001025D01*
X218145130Y-118924917D01*
X218126755Y-118847953D01*
X218090811Y-118784137D01*
X218034191Y-118735301D01*
X217961698Y-118713324D01*
X217945731Y-118712696D01*
X217871690Y-118726581D01*
X217809850Y-118768235D01*
X217794423Y-118785236D01*
X217758032Y-118850031D01*
X217739429Y-118928164D01*
X217734705Y-119005421D01*
X217314297Y-119005421D01*
X217318242Y-118932335D01*
X217334076Y-118846365D01*
X217361785Y-118766604D01*
X217401370Y-118693050D01*
X217452830Y-118625705D01*
X217483013Y-118594361D01*
X217550646Y-118538955D01*
X217626599Y-118495013D01*
X217696249Y-118467151D01*
X217771678Y-118447250D01*
X217852884Y-118435309D01*
X217939869Y-118431328D01*
X218019513Y-118434322D01*
G37*
G36*
X219581181Y-119134748D02*
G01*
X219980152Y-119181642D01*
X219955394Y-119254515D01*
X219922335Y-119321090D01*
X219876383Y-119387050D01*
X219871708Y-119392668D01*
X219815138Y-119449199D01*
X219755146Y-119492475D01*
X219686997Y-119528024D01*
X219679733Y-119531154D01*
X219608980Y-119554885D01*
X219528200Y-119570850D01*
X219447978Y-119578521D01*
X219382612Y-119580247D01*
X219309104Y-119578687D01*
X219231921Y-119573082D01*
X219153794Y-119561906D01*
X219092085Y-119547640D01*
X219022876Y-119523326D01*
X218954020Y-119487489D01*
X218892783Y-119442127D01*
X218839806Y-119389017D01*
X218795228Y-119329933D01*
X218761991Y-119271035D01*
X218735083Y-119195957D01*
X218721376Y-119123259D01*
X218715468Y-119050123D01*
X218714730Y-119010550D01*
X218718347Y-118929286D01*
X218729201Y-118855120D01*
X218750060Y-118780168D01*
X218772615Y-118728084D01*
X218811926Y-118663652D01*
X218861395Y-118604904D01*
X218887654Y-118579706D01*
X218947853Y-118531925D01*
X219014170Y-118492776D01*
X219038229Y-118481887D01*
X219112714Y-118457447D01*
X219188071Y-118442437D01*
X219261070Y-118434488D01*
X219340662Y-118431378D01*
X219352570Y-118431328D01*
X219433157Y-118433663D01*
X219507538Y-118440666D01*
X219588600Y-118455234D01*
X219660724Y-118476524D01*
X219733570Y-118509861D01*
X219761066Y-118526950D01*
X219818601Y-118573009D01*
X219868106Y-118627518D01*
X219909582Y-118690477D01*
X219943029Y-118761886D01*
X219958536Y-118806485D01*
X219563962Y-118853380D01*
X219533320Y-118785670D01*
X219496185Y-118748234D01*
X219426439Y-118718561D01*
X219365026Y-118712696D01*
X219287018Y-118725273D01*
X219222070Y-118763003D01*
X219196499Y-118788900D01*
X219157206Y-118856803D01*
X219138315Y-118930234D01*
X219132081Y-119009413D01*
X219132018Y-119018977D01*
X219138244Y-119098403D01*
X219159472Y-119170896D01*
X219195766Y-119227804D01*
X219253602Y-119273822D01*
X219328736Y-119297144D01*
X219358798Y-119298879D01*
X219434635Y-119288804D01*
X219497284Y-119258579D01*
X219548879Y-119203559D01*
X219581181Y-119134748D01*
G37*
G36*
X220129628Y-118056171D02*
G01*
X220558275Y-118056171D01*
X220558275Y-118795495D01*
X220871516Y-118454776D01*
X221387723Y-118454776D01*
X220994981Y-118840924D01*
X221410438Y-119556800D01*
X220937462Y-119556800D01*
X220715811Y-119116063D01*
X220558275Y-119270303D01*
X220558275Y-119556800D01*
X220129628Y-119556800D01*
X220129628Y-118056171D01*
G37*
G36*
X184050605Y-118995971D02*
G01*
X184517353Y-118995971D01*
X184517353Y-120121442D01*
X185245685Y-120121442D01*
X185245685Y-120496600D01*
X184050605Y-120496600D01*
X184050605Y-118995971D01*
G37*
G36*
X186420616Y-119886969D02*
G01*
X186829478Y-120005305D01*
X186809247Y-120077155D01*
X186780545Y-120152700D01*
X186745889Y-120221239D01*
X186705280Y-120282771D01*
X186699785Y-120289970D01*
X186646523Y-120349656D01*
X186586480Y-120400532D01*
X186519655Y-120442598D01*
X186479600Y-120462161D01*
X186409533Y-120487486D01*
X186330490Y-120505575D01*
X186253964Y-120515468D01*
X186170566Y-120519821D01*
X186145476Y-120520047D01*
X186070740Y-120518321D01*
X185986865Y-120511692D01*
X185909328Y-120500091D01*
X185826877Y-120480273D01*
X185753051Y-120453689D01*
X185743208Y-120449339D01*
X185676961Y-120413107D01*
X185614780Y-120366602D01*
X185556667Y-120309823D01*
X185510093Y-120252980D01*
X185473564Y-120199844D01*
X185435092Y-120129296D01*
X185404579Y-120051742D01*
X185382026Y-119967180D01*
X185369312Y-119891360D01*
X185362126Y-119810674D01*
X185360357Y-119742622D01*
X185363472Y-119652525D01*
X185372814Y-119567797D01*
X185388384Y-119488439D01*
X185410183Y-119414451D01*
X185438210Y-119345832D01*
X185482002Y-119267609D01*
X185535525Y-119197777D01*
X185559660Y-119172193D01*
X185625984Y-119114671D01*
X185700395Y-119066899D01*
X185782891Y-119028876D01*
X185854710Y-119005477D01*
X185931704Y-118988318D01*
X186013873Y-118977399D01*
X186101216Y-118972719D01*
X186123861Y-118972524D01*
X186210060Y-118975351D01*
X186290284Y-118983830D01*
X186364534Y-118997962D01*
X186445747Y-119022383D01*
X186518356Y-119054943D01*
X186572290Y-119088295D01*
X186630615Y-119136076D01*
X186683041Y-119192589D01*
X186729568Y-119257835D01*
X186770196Y-119331813D01*
X186799546Y-119400132D01*
X186815190Y-119444035D01*
X186403030Y-119535260D01*
X186376587Y-119466820D01*
X186357601Y-119434876D01*
X186304850Y-119380446D01*
X186261614Y-119353177D01*
X186189836Y-119329011D01*
X186135218Y-119324234D01*
X186060525Y-119332042D01*
X185987554Y-119359492D01*
X185926290Y-119406707D01*
X185891952Y-119449164D01*
X185858335Y-119517435D01*
X185838725Y-119596560D01*
X185830446Y-119669682D01*
X185828205Y-119740424D01*
X185830884Y-119827050D01*
X185838921Y-119902832D01*
X185855069Y-119977537D01*
X185886548Y-120051896D01*
X185904408Y-120077112D01*
X185964115Y-120129050D01*
X186038453Y-120159428D01*
X186118732Y-120168337D01*
X186196133Y-120161325D01*
X186266481Y-120137412D01*
X186321331Y-120096530D01*
X186367407Y-120033229D01*
X186397696Y-119966468D01*
X186418655Y-119895492D01*
X186420616Y-119886969D01*
G37*
G36*
X187821264Y-118997916D02*
G01*
X187900679Y-119005102D01*
X187982253Y-119019796D01*
X188054026Y-119041406D01*
X188078414Y-119051292D01*
X188146034Y-119086207D01*
X188206699Y-119128714D01*
X188260408Y-119178814D01*
X188287242Y-119209928D01*
X188330016Y-119270738D01*
X188365604Y-119336938D01*
X188394004Y-119408528D01*
X188406676Y-119450630D01*
X188424563Y-119529007D01*
X188436597Y-119609994D01*
X188442378Y-119684171D01*
X188443679Y-119741156D01*
X188441734Y-119827620D01*
X188435900Y-119906484D01*
X188424176Y-119988888D01*
X188407159Y-120060948D01*
X188388358Y-120114482D01*
X188354056Y-120185515D01*
X188312972Y-120249825D01*
X188265106Y-120307411D01*
X188235584Y-120336498D01*
X188173016Y-120386537D01*
X188107586Y-120424912D01*
X188039293Y-120451624D01*
X188025291Y-120455567D01*
X187950347Y-120473519D01*
X187870359Y-120487584D01*
X187794950Y-120495157D01*
X187747221Y-120496600D01*
X187053693Y-120496600D01*
X187053693Y-120144890D01*
X187520441Y-120144890D01*
X187634747Y-120144890D01*
X187710307Y-120142427D01*
X187784556Y-120132725D01*
X187842842Y-120113749D01*
X187900976Y-120067141D01*
X187939562Y-120004206D01*
X187960994Y-119931803D01*
X187971298Y-119850688D01*
X187974596Y-119772194D01*
X187974733Y-119750682D01*
X187971977Y-119668868D01*
X187961794Y-119586442D01*
X187940968Y-119509414D01*
X187905825Y-119444653D01*
X187896331Y-119433410D01*
X187837469Y-119388202D01*
X187767241Y-119361830D01*
X187691095Y-119349774D01*
X187636945Y-119347681D01*
X187520441Y-119347681D01*
X187520441Y-120144890D01*
X187053693Y-120144890D01*
X187053693Y-118995971D01*
X187747221Y-118995971D01*
X187821264Y-118997916D01*
G37*
G36*
X189399157Y-118995971D02*
G01*
X189866638Y-118995971D01*
X189866638Y-120496600D01*
X189399157Y-120496600D01*
X189399157Y-118995971D01*
G37*
G36*
X191357008Y-120496600D02*
G01*
X190097814Y-120496600D01*
X190111478Y-120415122D01*
X190133557Y-120335784D01*
X190164051Y-120258585D01*
X190202960Y-120183524D01*
X190228972Y-120141593D01*
X190276937Y-120077214D01*
X190327219Y-120020712D01*
X190386875Y-119961616D01*
X190441349Y-119912472D01*
X190501822Y-119861667D01*
X190568294Y-119809203D01*
X190640766Y-119755078D01*
X190705320Y-119706813D01*
X190768783Y-119656298D01*
X190825684Y-119606209D01*
X190876704Y-119550647D01*
X190913783Y-119486655D01*
X190928362Y-119418023D01*
X190910409Y-119344206D01*
X190877437Y-119301886D01*
X190811801Y-119263078D01*
X190749210Y-119253892D01*
X190676028Y-119266898D01*
X190617685Y-119305916D01*
X190577268Y-119371732D01*
X190555484Y-119449425D01*
X190549175Y-119488365D01*
X190128588Y-119453560D01*
X190141451Y-119379877D01*
X190160960Y-119304813D01*
X190189039Y-119232025D01*
X190219447Y-119177688D01*
X190265922Y-119120179D01*
X190322916Y-119071757D01*
X190390429Y-119032423D01*
X190405193Y-119025647D01*
X190480091Y-118999967D01*
X190558928Y-118984197D01*
X190637377Y-118975844D01*
X190711651Y-118972732D01*
X190737852Y-118972524D01*
X190817382Y-118974276D01*
X190901441Y-118980747D01*
X190976104Y-118991987D01*
X191049926Y-119010672D01*
X191082235Y-119022350D01*
X191154212Y-119058449D01*
X191215815Y-119104925D01*
X191267041Y-119161776D01*
X191276041Y-119174391D01*
X191313329Y-119240937D01*
X191336806Y-119312350D01*
X191346473Y-119388628D01*
X191346750Y-119404468D01*
X191340345Y-119479584D01*
X191321131Y-119552845D01*
X191289108Y-119624252D01*
X191265783Y-119663121D01*
X191217034Y-119726364D01*
X191160817Y-119784182D01*
X191102556Y-119835582D01*
X191034996Y-119888682D01*
X190971593Y-119934230D01*
X190906925Y-119978573D01*
X190845913Y-120021671D01*
X190801966Y-120054764D01*
X190746075Y-120103151D01*
X190701582Y-120144890D01*
X191357008Y-120144890D01*
X191357008Y-120496600D01*
G37*
G36*
X192601914Y-119886969D02*
G01*
X193010776Y-120005305D01*
X192990545Y-120077155D01*
X192961843Y-120152700D01*
X192927187Y-120221239D01*
X192886578Y-120282771D01*
X192881083Y-120289970D01*
X192827821Y-120349656D01*
X192767778Y-120400532D01*
X192700953Y-120442598D01*
X192660898Y-120462161D01*
X192590831Y-120487486D01*
X192511788Y-120505575D01*
X192435262Y-120515468D01*
X192351864Y-120519821D01*
X192326774Y-120520047D01*
X192252038Y-120518321D01*
X192168163Y-120511692D01*
X192090626Y-120500091D01*
X192008175Y-120480273D01*
X191934349Y-120453689D01*
X191924506Y-120449339D01*
X191858259Y-120413107D01*
X191796078Y-120366602D01*
X191737965Y-120309823D01*
X191691391Y-120252980D01*
X191654862Y-120199844D01*
X191616389Y-120129296D01*
X191585877Y-120051742D01*
X191563324Y-119967180D01*
X191550610Y-119891360D01*
X191543424Y-119810674D01*
X191541655Y-119742622D01*
X191544770Y-119652525D01*
X191554112Y-119567797D01*
X191569682Y-119488439D01*
X191591481Y-119414451D01*
X191619508Y-119345832D01*
X191663300Y-119267609D01*
X191716823Y-119197777D01*
X191740958Y-119172193D01*
X191807282Y-119114671D01*
X191881693Y-119066899D01*
X191964189Y-119028876D01*
X192036008Y-119005477D01*
X192113002Y-118988318D01*
X192195171Y-118977399D01*
X192282514Y-118972719D01*
X192305159Y-118972524D01*
X192391358Y-118975351D01*
X192471582Y-118983830D01*
X192545832Y-118997962D01*
X192627045Y-119022383D01*
X192699653Y-119054943D01*
X192753588Y-119088295D01*
X192811913Y-119136076D01*
X192864339Y-119192589D01*
X192910866Y-119257835D01*
X192951494Y-119331813D01*
X192980844Y-119400132D01*
X192996488Y-119444035D01*
X192584328Y-119535260D01*
X192557885Y-119466820D01*
X192538899Y-119434876D01*
X192486148Y-119380446D01*
X192442912Y-119353177D01*
X192371134Y-119329011D01*
X192316516Y-119324234D01*
X192241823Y-119332042D01*
X192168852Y-119359492D01*
X192107588Y-119406707D01*
X192073250Y-119449164D01*
X192039633Y-119517435D01*
X192020023Y-119596560D01*
X192011744Y-119669682D01*
X192009503Y-119740424D01*
X192012182Y-119827050D01*
X192020219Y-119902832D01*
X192036367Y-119977537D01*
X192067846Y-120051896D01*
X192085706Y-120077112D01*
X192145413Y-120129050D01*
X192219751Y-120159428D01*
X192300030Y-120168337D01*
X192377431Y-120161325D01*
X192447779Y-120137412D01*
X192502629Y-120096530D01*
X192548705Y-120033229D01*
X192578994Y-119966468D01*
X192599953Y-119895492D01*
X192601914Y-119886969D01*
G37*
D11*
X184325090Y-124022240D02*
X184286995Y-124098430D01*
X184286995Y-124098430D02*
X184286995Y-124212716D01*
X184286995Y-124212716D02*
X184325090Y-124327002D01*
X184325090Y-124327002D02*
X184401280Y-124403192D01*
X184401280Y-124403192D02*
X184477471Y-124441287D01*
X184477471Y-124441287D02*
X184629852Y-124479383D01*
X184629852Y-124479383D02*
X184744138Y-124479383D01*
X184744138Y-124479383D02*
X184896519Y-124441287D01*
X184896519Y-124441287D02*
X184972709Y-124403192D01*
X184972709Y-124403192D02*
X185048900Y-124327002D01*
X185048900Y-124327002D02*
X185086995Y-124212716D01*
X185086995Y-124212716D02*
X185086995Y-124136525D01*
X185086995Y-124136525D02*
X185048900Y-124022240D01*
X185048900Y-124022240D02*
X185010804Y-123984144D01*
X185010804Y-123984144D02*
X184744138Y-123984144D01*
X184744138Y-123984144D02*
X184744138Y-124136525D01*
X185086995Y-123641287D02*
X184286995Y-123641287D01*
X184286995Y-123641287D02*
X185086995Y-123184144D01*
X185086995Y-123184144D02*
X184286995Y-123184144D01*
X185086995Y-122803192D02*
X184286995Y-122803192D01*
X184286995Y-122803192D02*
X184286995Y-122612716D01*
X184286995Y-122612716D02*
X184325090Y-122498430D01*
X184325090Y-122498430D02*
X184401280Y-122422240D01*
X184401280Y-122422240D02*
X184477471Y-122384145D01*
X184477471Y-122384145D02*
X184629852Y-122346049D01*
X184629852Y-122346049D02*
X184744138Y-122346049D01*
X184744138Y-122346049D02*
X184896519Y-122384145D01*
X184896519Y-122384145D02*
X184972709Y-122422240D01*
X184972709Y-122422240D02*
X185048900Y-122498430D01*
X185048900Y-122498430D02*
X185086995Y-122612716D01*
X185086995Y-122612716D02*
X185086995Y-122803192D01*
D12*
X192566000Y-124437535D02*
X192604095Y-124323249D01*
X192604095Y-124323249D02*
X192604095Y-124132773D01*
X192604095Y-124132773D02*
X192566000Y-124056582D01*
X192566000Y-124056582D02*
X192527904Y-124018487D01*
X192527904Y-124018487D02*
X192451714Y-123980392D01*
X192451714Y-123980392D02*
X192375523Y-123980392D01*
X192375523Y-123980392D02*
X192299333Y-124018487D01*
X192299333Y-124018487D02*
X192261238Y-124056582D01*
X192261238Y-124056582D02*
X192223142Y-124132773D01*
X192223142Y-124132773D02*
X192185047Y-124285154D01*
X192185047Y-124285154D02*
X192146952Y-124361344D01*
X192146952Y-124361344D02*
X192108857Y-124399439D01*
X192108857Y-124399439D02*
X192032666Y-124437535D01*
X192032666Y-124437535D02*
X191956476Y-124437535D01*
X191956476Y-124437535D02*
X191880285Y-124399439D01*
X191880285Y-124399439D02*
X191842190Y-124361344D01*
X191842190Y-124361344D02*
X191804095Y-124285154D01*
X191804095Y-124285154D02*
X191804095Y-124094677D01*
X191804095Y-124094677D02*
X191842190Y-123980392D01*
X192604095Y-123637534D02*
X191804095Y-123637534D01*
X191804095Y-123637534D02*
X191804095Y-123447058D01*
X191804095Y-123447058D02*
X191842190Y-123332772D01*
X191842190Y-123332772D02*
X191918380Y-123256582D01*
X191918380Y-123256582D02*
X191994571Y-123218487D01*
X191994571Y-123218487D02*
X192146952Y-123180391D01*
X192146952Y-123180391D02*
X192261238Y-123180391D01*
X192261238Y-123180391D02*
X192413619Y-123218487D01*
X192413619Y-123218487D02*
X192489809Y-123256582D01*
X192489809Y-123256582D02*
X192566000Y-123332772D01*
X192566000Y-123332772D02*
X192604095Y-123447058D01*
X192604095Y-123447058D02*
X192604095Y-123637534D01*
X192375523Y-122875630D02*
X192375523Y-122494677D01*
X192604095Y-122951820D02*
X191804095Y-122685153D01*
X191804095Y-122685153D02*
X192604095Y-122418487D01*
X186952695Y-124564525D02*
X187752695Y-124297858D01*
X187752695Y-124297858D02*
X186952695Y-124031192D01*
X187676504Y-123307382D02*
X187714600Y-123345478D01*
X187714600Y-123345478D02*
X187752695Y-123459763D01*
X187752695Y-123459763D02*
X187752695Y-123535954D01*
X187752695Y-123535954D02*
X187714600Y-123650240D01*
X187714600Y-123650240D02*
X187638409Y-123726430D01*
X187638409Y-123726430D02*
X187562219Y-123764525D01*
X187562219Y-123764525D02*
X187409838Y-123802621D01*
X187409838Y-123802621D02*
X187295552Y-123802621D01*
X187295552Y-123802621D02*
X187143171Y-123764525D01*
X187143171Y-123764525D02*
X187066980Y-123726430D01*
X187066980Y-123726430D02*
X186990790Y-123650240D01*
X186990790Y-123650240D02*
X186952695Y-123535954D01*
X186952695Y-123535954D02*
X186952695Y-123459763D01*
X186952695Y-123459763D02*
X186990790Y-123345478D01*
X186990790Y-123345478D02*
X187028885Y-123307382D01*
X187676504Y-122507382D02*
X187714600Y-122545478D01*
X187714600Y-122545478D02*
X187752695Y-122659763D01*
X187752695Y-122659763D02*
X187752695Y-122735954D01*
X187752695Y-122735954D02*
X187714600Y-122850240D01*
X187714600Y-122850240D02*
X187638409Y-122926430D01*
X187638409Y-122926430D02*
X187562219Y-122964525D01*
X187562219Y-122964525D02*
X187409838Y-123002621D01*
X187409838Y-123002621D02*
X187295552Y-123002621D01*
X187295552Y-123002621D02*
X187143171Y-122964525D01*
X187143171Y-122964525D02*
X187066980Y-122926430D01*
X187066980Y-122926430D02*
X186990790Y-122850240D01*
X186990790Y-122850240D02*
X186952695Y-122735954D01*
X186952695Y-122735954D02*
X186952695Y-122659763D01*
X186952695Y-122659763D02*
X186990790Y-122545478D01*
X186990790Y-122545478D02*
X187028885Y-122507382D01*
X190051400Y-124462935D02*
X190089495Y-124348649D01*
X190089495Y-124348649D02*
X190089495Y-124158173D01*
X190089495Y-124158173D02*
X190051400Y-124081982D01*
X190051400Y-124081982D02*
X190013304Y-124043887D01*
X190013304Y-124043887D02*
X189937114Y-124005792D01*
X189937114Y-124005792D02*
X189860923Y-124005792D01*
X189860923Y-124005792D02*
X189784733Y-124043887D01*
X189784733Y-124043887D02*
X189746638Y-124081982D01*
X189746638Y-124081982D02*
X189708542Y-124158173D01*
X189708542Y-124158173D02*
X189670447Y-124310554D01*
X189670447Y-124310554D02*
X189632352Y-124386744D01*
X189632352Y-124386744D02*
X189594257Y-124424839D01*
X189594257Y-124424839D02*
X189518066Y-124462935D01*
X189518066Y-124462935D02*
X189441876Y-124462935D01*
X189441876Y-124462935D02*
X189365685Y-124424839D01*
X189365685Y-124424839D02*
X189327590Y-124386744D01*
X189327590Y-124386744D02*
X189289495Y-124310554D01*
X189289495Y-124310554D02*
X189289495Y-124120077D01*
X189289495Y-124120077D02*
X189327590Y-124005792D01*
X190013304Y-123205791D02*
X190051400Y-123243887D01*
X190051400Y-123243887D02*
X190089495Y-123358172D01*
X190089495Y-123358172D02*
X190089495Y-123434363D01*
X190089495Y-123434363D02*
X190051400Y-123548649D01*
X190051400Y-123548649D02*
X189975209Y-123624839D01*
X189975209Y-123624839D02*
X189899019Y-123662934D01*
X189899019Y-123662934D02*
X189746638Y-123701030D01*
X189746638Y-123701030D02*
X189632352Y-123701030D01*
X189632352Y-123701030D02*
X189479971Y-123662934D01*
X189479971Y-123662934D02*
X189403780Y-123624839D01*
X189403780Y-123624839D02*
X189327590Y-123548649D01*
X189327590Y-123548649D02*
X189289495Y-123434363D01*
X189289495Y-123434363D02*
X189289495Y-123358172D01*
X189289495Y-123358172D02*
X189327590Y-123243887D01*
X189327590Y-123243887D02*
X189365685Y-123205791D01*
X190089495Y-122481982D02*
X190089495Y-122862934D01*
X190089495Y-122862934D02*
X189289495Y-122862934D01*
X207920390Y-123040592D02*
X207882295Y-123116782D01*
X207882295Y-123116782D02*
X207882295Y-123231068D01*
X207882295Y-123231068D02*
X207920390Y-123345354D01*
X207920390Y-123345354D02*
X207996580Y-123421544D01*
X207996580Y-123421544D02*
X208072771Y-123459639D01*
X208072771Y-123459639D02*
X208225152Y-123497735D01*
X208225152Y-123497735D02*
X208339438Y-123497735D01*
X208339438Y-123497735D02*
X208491819Y-123459639D01*
X208491819Y-123459639D02*
X208568009Y-123421544D01*
X208568009Y-123421544D02*
X208644200Y-123345354D01*
X208644200Y-123345354D02*
X208682295Y-123231068D01*
X208682295Y-123231068D02*
X208682295Y-123154877D01*
X208682295Y-123154877D02*
X208644200Y-123040592D01*
X208644200Y-123040592D02*
X208606104Y-123002496D01*
X208606104Y-123002496D02*
X208339438Y-123002496D01*
X208339438Y-123002496D02*
X208339438Y-123154877D01*
X208682295Y-122659639D02*
X207882295Y-122659639D01*
X207882295Y-122659639D02*
X208682295Y-122202496D01*
X208682295Y-122202496D02*
X207882295Y-122202496D01*
X208682295Y-121821544D02*
X207882295Y-121821544D01*
X207882295Y-121821544D02*
X207882295Y-121631068D01*
X207882295Y-121631068D02*
X207920390Y-121516782D01*
X207920390Y-121516782D02*
X207996580Y-121440592D01*
X207996580Y-121440592D02*
X208072771Y-121402497D01*
X208072771Y-121402497D02*
X208225152Y-121364401D01*
X208225152Y-121364401D02*
X208339438Y-121364401D01*
X208339438Y-121364401D02*
X208491819Y-121402497D01*
X208491819Y-121402497D02*
X208568009Y-121440592D01*
X208568009Y-121440592D02*
X208644200Y-121516782D01*
X208644200Y-121516782D02*
X208682295Y-121631068D01*
X208682295Y-121631068D02*
X208682295Y-121821544D01*
X212085904Y-123104096D02*
X212124000Y-123142192D01*
X212124000Y-123142192D02*
X212162095Y-123256477D01*
X212162095Y-123256477D02*
X212162095Y-123332668D01*
X212162095Y-123332668D02*
X212124000Y-123446954D01*
X212124000Y-123446954D02*
X212047809Y-123523144D01*
X212047809Y-123523144D02*
X211971619Y-123561239D01*
X211971619Y-123561239D02*
X211819238Y-123599335D01*
X211819238Y-123599335D02*
X211704952Y-123599335D01*
X211704952Y-123599335D02*
X211552571Y-123561239D01*
X211552571Y-123561239D02*
X211476380Y-123523144D01*
X211476380Y-123523144D02*
X211400190Y-123446954D01*
X211400190Y-123446954D02*
X211362095Y-123332668D01*
X211362095Y-123332668D02*
X211362095Y-123256477D01*
X211362095Y-123256477D02*
X211400190Y-123142192D01*
X211400190Y-123142192D02*
X211438285Y-123104096D01*
X212162095Y-122646954D02*
X212124000Y-122723144D01*
X212124000Y-122723144D02*
X212085904Y-122761239D01*
X212085904Y-122761239D02*
X212009714Y-122799335D01*
X212009714Y-122799335D02*
X211781142Y-122799335D01*
X211781142Y-122799335D02*
X211704952Y-122761239D01*
X211704952Y-122761239D02*
X211666857Y-122723144D01*
X211666857Y-122723144D02*
X211628761Y-122646954D01*
X211628761Y-122646954D02*
X211628761Y-122532668D01*
X211628761Y-122532668D02*
X211666857Y-122456477D01*
X211666857Y-122456477D02*
X211704952Y-122418382D01*
X211704952Y-122418382D02*
X211781142Y-122380287D01*
X211781142Y-122380287D02*
X212009714Y-122380287D01*
X212009714Y-122380287D02*
X212085904Y-122418382D01*
X212085904Y-122418382D02*
X212124000Y-122456477D01*
X212124000Y-122456477D02*
X212162095Y-122532668D01*
X212162095Y-122532668D02*
X212162095Y-122646954D01*
X212162095Y-122037429D02*
X211628761Y-122037429D01*
X211362095Y-122037429D02*
X211400190Y-122075525D01*
X211400190Y-122075525D02*
X211438285Y-122037429D01*
X211438285Y-122037429D02*
X211400190Y-121999334D01*
X211400190Y-121999334D02*
X211362095Y-122037429D01*
X211362095Y-122037429D02*
X211438285Y-122037429D01*
X212162095Y-121542192D02*
X212124000Y-121618382D01*
X212124000Y-121618382D02*
X212047809Y-121656477D01*
X212047809Y-121656477D02*
X211362095Y-121656477D01*
X211857333Y-120627905D02*
X211857333Y-120018382D01*
X212162095Y-120323143D02*
X211552571Y-120323143D01*
X218893095Y-123065992D02*
X218893095Y-123523135D01*
X218893095Y-123294563D02*
X218093095Y-123294563D01*
X218093095Y-123294563D02*
X218207380Y-123370754D01*
X218207380Y-123370754D02*
X218283571Y-123446944D01*
X218283571Y-123446944D02*
X218321666Y-123523135D01*
X218169285Y-122761230D02*
X218131190Y-122723134D01*
X218131190Y-122723134D02*
X218093095Y-122646944D01*
X218093095Y-122646944D02*
X218093095Y-122456468D01*
X218093095Y-122456468D02*
X218131190Y-122380277D01*
X218131190Y-122380277D02*
X218169285Y-122342182D01*
X218169285Y-122342182D02*
X218245476Y-122304087D01*
X218245476Y-122304087D02*
X218321666Y-122304087D01*
X218321666Y-122304087D02*
X218435952Y-122342182D01*
X218435952Y-122342182D02*
X218893095Y-122799325D01*
X218893095Y-122799325D02*
X218893095Y-122304087D01*
X218588333Y-121961229D02*
X218588333Y-121351706D01*
X218893095Y-121656467D02*
X218283571Y-121656467D01*
X215489504Y-123078696D02*
X215527600Y-123116792D01*
X215527600Y-123116792D02*
X215565695Y-123231077D01*
X215565695Y-123231077D02*
X215565695Y-123307268D01*
X215565695Y-123307268D02*
X215527600Y-123421554D01*
X215527600Y-123421554D02*
X215451409Y-123497744D01*
X215451409Y-123497744D02*
X215375219Y-123535839D01*
X215375219Y-123535839D02*
X215222838Y-123573935D01*
X215222838Y-123573935D02*
X215108552Y-123573935D01*
X215108552Y-123573935D02*
X214956171Y-123535839D01*
X214956171Y-123535839D02*
X214879980Y-123497744D01*
X214879980Y-123497744D02*
X214803790Y-123421554D01*
X214803790Y-123421554D02*
X214765695Y-123307268D01*
X214765695Y-123307268D02*
X214765695Y-123231077D01*
X214765695Y-123231077D02*
X214803790Y-123116792D01*
X214803790Y-123116792D02*
X214841885Y-123078696D01*
X215565695Y-122621554D02*
X215527600Y-122697744D01*
X215527600Y-122697744D02*
X215489504Y-122735839D01*
X215489504Y-122735839D02*
X215413314Y-122773935D01*
X215413314Y-122773935D02*
X215184742Y-122773935D01*
X215184742Y-122773935D02*
X215108552Y-122735839D01*
X215108552Y-122735839D02*
X215070457Y-122697744D01*
X215070457Y-122697744D02*
X215032361Y-122621554D01*
X215032361Y-122621554D02*
X215032361Y-122507268D01*
X215032361Y-122507268D02*
X215070457Y-122431077D01*
X215070457Y-122431077D02*
X215108552Y-122392982D01*
X215108552Y-122392982D02*
X215184742Y-122354887D01*
X215184742Y-122354887D02*
X215413314Y-122354887D01*
X215413314Y-122354887D02*
X215489504Y-122392982D01*
X215489504Y-122392982D02*
X215527600Y-122431077D01*
X215527600Y-122431077D02*
X215565695Y-122507268D01*
X215565695Y-122507268D02*
X215565695Y-122621554D01*
X215565695Y-122012029D02*
X215032361Y-122012029D01*
X214765695Y-122012029D02*
X214803790Y-122050125D01*
X214803790Y-122050125D02*
X214841885Y-122012029D01*
X214841885Y-122012029D02*
X214803790Y-121973934D01*
X214803790Y-121973934D02*
X214765695Y-122012029D01*
X214765695Y-122012029D02*
X214841885Y-122012029D01*
X215565695Y-121516792D02*
X215527600Y-121592982D01*
X215527600Y-121592982D02*
X215451409Y-121631077D01*
X215451409Y-121631077D02*
X214765695Y-121631077D01*
X215260933Y-120602505D02*
X215260933Y-119992982D01*
X209835761Y-83027657D02*
X209740523Y-82980038D01*
X209740523Y-82980038D02*
X209645285Y-82884800D01*
X209645285Y-82884800D02*
X209502428Y-82741942D01*
X209502428Y-82741942D02*
X209407190Y-82694323D01*
X209407190Y-82694323D02*
X209311952Y-82694323D01*
X209359571Y-82932419D02*
X209264333Y-82884800D01*
X209264333Y-82884800D02*
X209169095Y-82789561D01*
X209169095Y-82789561D02*
X209121476Y-82599085D01*
X209121476Y-82599085D02*
X209121476Y-82265752D01*
X209121476Y-82265752D02*
X209169095Y-82075276D01*
X209169095Y-82075276D02*
X209264333Y-81980038D01*
X209264333Y-81980038D02*
X209359571Y-81932419D01*
X209359571Y-81932419D02*
X209550047Y-81932419D01*
X209550047Y-81932419D02*
X209645285Y-81980038D01*
X209645285Y-81980038D02*
X209740523Y-82075276D01*
X209740523Y-82075276D02*
X209788142Y-82265752D01*
X209788142Y-82265752D02*
X209788142Y-82599085D01*
X209788142Y-82599085D02*
X209740523Y-82789561D01*
X209740523Y-82789561D02*
X209645285Y-82884800D01*
X209645285Y-82884800D02*
X209550047Y-82932419D01*
X209550047Y-82932419D02*
X209359571Y-82932419D01*
X210169095Y-82027657D02*
X210216714Y-81980038D01*
X210216714Y-81980038D02*
X210311952Y-81932419D01*
X210311952Y-81932419D02*
X210550047Y-81932419D01*
X210550047Y-81932419D02*
X210645285Y-81980038D01*
X210645285Y-81980038D02*
X210692904Y-82027657D01*
X210692904Y-82027657D02*
X210740523Y-82122895D01*
X210740523Y-82122895D02*
X210740523Y-82218133D01*
X210740523Y-82218133D02*
X210692904Y-82360990D01*
X210692904Y-82360990D02*
X210121476Y-82932419D01*
X210121476Y-82932419D02*
X210740523Y-82932419D01*
X180159066Y-130214019D02*
X180159066Y-130928304D01*
X180159066Y-130928304D02*
X180111447Y-131071161D01*
X180111447Y-131071161D02*
X180016209Y-131166400D01*
X180016209Y-131166400D02*
X179873352Y-131214019D01*
X179873352Y-131214019D02*
X179778114Y-131214019D01*
X180587638Y-130309257D02*
X180635257Y-130261638D01*
X180635257Y-130261638D02*
X180730495Y-130214019D01*
X180730495Y-130214019D02*
X180968590Y-130214019D01*
X180968590Y-130214019D02*
X181063828Y-130261638D01*
X181063828Y-130261638D02*
X181111447Y-130309257D01*
X181111447Y-130309257D02*
X181159066Y-130404495D01*
X181159066Y-130404495D02*
X181159066Y-130499733D01*
X181159066Y-130499733D02*
X181111447Y-130642590D01*
X181111447Y-130642590D02*
X180540019Y-131214019D01*
X180540019Y-131214019D02*
X181159066Y-131214019D01*
X204212866Y-130214019D02*
X204212866Y-130928304D01*
X204212866Y-130928304D02*
X204165247Y-131071161D01*
X204165247Y-131071161D02*
X204070009Y-131166400D01*
X204070009Y-131166400D02*
X203927152Y-131214019D01*
X203927152Y-131214019D02*
X203831914Y-131214019D01*
X205212866Y-131214019D02*
X204641438Y-131214019D01*
X204927152Y-131214019D02*
X204927152Y-130214019D01*
X204927152Y-130214019D02*
X204831914Y-130356876D01*
X204831914Y-130356876D02*
X204736676Y-130452114D01*
X204736676Y-130452114D02*
X204641438Y-130499733D01*
X201090305Y-114348419D02*
X201090305Y-113348419D01*
X201090305Y-113348419D02*
X201328400Y-113348419D01*
X201328400Y-113348419D02*
X201471257Y-113396038D01*
X201471257Y-113396038D02*
X201566495Y-113491276D01*
X201566495Y-113491276D02*
X201614114Y-113586514D01*
X201614114Y-113586514D02*
X201661733Y-113776990D01*
X201661733Y-113776990D02*
X201661733Y-113919847D01*
X201661733Y-113919847D02*
X201614114Y-114110323D01*
X201614114Y-114110323D02*
X201566495Y-114205561D01*
X201566495Y-114205561D02*
X201471257Y-114300800D01*
X201471257Y-114300800D02*
X201328400Y-114348419D01*
X201328400Y-114348419D02*
X201090305Y-114348419D01*
X202042686Y-113443657D02*
X202090305Y-113396038D01*
X202090305Y-113396038D02*
X202185543Y-113348419D01*
X202185543Y-113348419D02*
X202423638Y-113348419D01*
X202423638Y-113348419D02*
X202518876Y-113396038D01*
X202518876Y-113396038D02*
X202566495Y-113443657D01*
X202566495Y-113443657D02*
X202614114Y-113538895D01*
X202614114Y-113538895D02*
X202614114Y-113634133D01*
X202614114Y-113634133D02*
X202566495Y-113776990D01*
X202566495Y-113776990D02*
X201995067Y-114348419D01*
X201995067Y-114348419D02*
X202614114Y-114348419D01*
X214190295Y-112443419D02*
X214190295Y-111443419D01*
X214761723Y-112443419D02*
X214333152Y-111871990D01*
X214761723Y-111443419D02*
X214190295Y-112014847D01*
X222261133Y-107725380D02*
X222213514Y-107773000D01*
X222213514Y-107773000D02*
X222070657Y-107820619D01*
X222070657Y-107820619D02*
X221975419Y-107820619D01*
X221975419Y-107820619D02*
X221832562Y-107773000D01*
X221832562Y-107773000D02*
X221737324Y-107677761D01*
X221737324Y-107677761D02*
X221689705Y-107582523D01*
X221689705Y-107582523D02*
X221642086Y-107392047D01*
X221642086Y-107392047D02*
X221642086Y-107249190D01*
X221642086Y-107249190D02*
X221689705Y-107058714D01*
X221689705Y-107058714D02*
X221737324Y-106963476D01*
X221737324Y-106963476D02*
X221832562Y-106868238D01*
X221832562Y-106868238D02*
X221975419Y-106820619D01*
X221975419Y-106820619D02*
X222070657Y-106820619D01*
X222070657Y-106820619D02*
X222213514Y-106868238D01*
X222213514Y-106868238D02*
X222261133Y-106915857D01*
X223213514Y-107820619D02*
X222642086Y-107820619D01*
X222927800Y-107820619D02*
X222927800Y-106820619D01*
X222927800Y-106820619D02*
X222832562Y-106963476D01*
X222832562Y-106963476D02*
X222737324Y-107058714D01*
X222737324Y-107058714D02*
X222642086Y-107106333D01*
X196138895Y-104788619D02*
X196138895Y-105598142D01*
X196138895Y-105598142D02*
X196186514Y-105693380D01*
X196186514Y-105693380D02*
X196234133Y-105741000D01*
X196234133Y-105741000D02*
X196329371Y-105788619D01*
X196329371Y-105788619D02*
X196519847Y-105788619D01*
X196519847Y-105788619D02*
X196615085Y-105741000D01*
X196615085Y-105741000D02*
X196662704Y-105693380D01*
X196662704Y-105693380D02*
X196710323Y-105598142D01*
X196710323Y-105598142D02*
X196710323Y-104788619D01*
X197710323Y-105788619D02*
X197138895Y-105788619D01*
X197424609Y-105788619D02*
X197424609Y-104788619D01*
X197424609Y-104788619D02*
X197329371Y-104931476D01*
X197329371Y-104931476D02*
X197234133Y-105026714D01*
X197234133Y-105026714D02*
X197138895Y-105074333D01*
X195997533Y-99743419D02*
X195664200Y-99267228D01*
X195426105Y-99743419D02*
X195426105Y-98743419D01*
X195426105Y-98743419D02*
X195807057Y-98743419D01*
X195807057Y-98743419D02*
X195902295Y-98791038D01*
X195902295Y-98791038D02*
X195949914Y-98838657D01*
X195949914Y-98838657D02*
X195997533Y-98933895D01*
X195997533Y-98933895D02*
X195997533Y-99076752D01*
X195997533Y-99076752D02*
X195949914Y-99171990D01*
X195949914Y-99171990D02*
X195902295Y-99219609D01*
X195902295Y-99219609D02*
X195807057Y-99267228D01*
X195807057Y-99267228D02*
X195426105Y-99267228D01*
X196378486Y-98838657D02*
X196426105Y-98791038D01*
X196426105Y-98791038D02*
X196521343Y-98743419D01*
X196521343Y-98743419D02*
X196759438Y-98743419D01*
X196759438Y-98743419D02*
X196854676Y-98791038D01*
X196854676Y-98791038D02*
X196902295Y-98838657D01*
X196902295Y-98838657D02*
X196949914Y-98933895D01*
X196949914Y-98933895D02*
X196949914Y-99029133D01*
X196949914Y-99029133D02*
X196902295Y-99171990D01*
X196902295Y-99171990D02*
X196330867Y-99743419D01*
X196330867Y-99743419D02*
X196949914Y-99743419D01*
X195997533Y-111706819D02*
X195664200Y-111230628D01*
X195426105Y-111706819D02*
X195426105Y-110706819D01*
X195426105Y-110706819D02*
X195807057Y-110706819D01*
X195807057Y-110706819D02*
X195902295Y-110754438D01*
X195902295Y-110754438D02*
X195949914Y-110802057D01*
X195949914Y-110802057D02*
X195997533Y-110897295D01*
X195997533Y-110897295D02*
X195997533Y-111040152D01*
X195997533Y-111040152D02*
X195949914Y-111135390D01*
X195949914Y-111135390D02*
X195902295Y-111183009D01*
X195902295Y-111183009D02*
X195807057Y-111230628D01*
X195807057Y-111230628D02*
X195426105Y-111230628D01*
X196949914Y-111706819D02*
X196378486Y-111706819D01*
X196664200Y-111706819D02*
X196664200Y-110706819D01*
X196664200Y-110706819D02*
X196568962Y-110849676D01*
X196568962Y-110849676D02*
X196473724Y-110944914D01*
X196473724Y-110944914D02*
X196378486Y-110992533D01*
X201166505Y-109497019D02*
X201166505Y-108497019D01*
X201166505Y-108497019D02*
X201404600Y-108497019D01*
X201404600Y-108497019D02*
X201547457Y-108544638D01*
X201547457Y-108544638D02*
X201642695Y-108639876D01*
X201642695Y-108639876D02*
X201690314Y-108735114D01*
X201690314Y-108735114D02*
X201737933Y-108925590D01*
X201737933Y-108925590D02*
X201737933Y-109068447D01*
X201737933Y-109068447D02*
X201690314Y-109258923D01*
X201690314Y-109258923D02*
X201642695Y-109354161D01*
X201642695Y-109354161D02*
X201547457Y-109449400D01*
X201547457Y-109449400D02*
X201404600Y-109497019D01*
X201404600Y-109497019D02*
X201166505Y-109497019D01*
X202690314Y-109497019D02*
X202118886Y-109497019D01*
X202404600Y-109497019D02*
X202404600Y-108497019D01*
X202404600Y-108497019D02*
X202309362Y-108639876D01*
X202309362Y-108639876D02*
X202214124Y-108735114D01*
X202214124Y-108735114D02*
X202118886Y-108782733D01*
X203928695Y-107727219D02*
X203928695Y-106727219D01*
X204500123Y-107727219D02*
X204071552Y-107155790D01*
X204500123Y-106727219D02*
X203928695Y-107298647D01*
X168637514Y-87367304D02*
X169113704Y-87367304D01*
X168542276Y-87653019D02*
X168875609Y-86653019D01*
X168875609Y-86653019D02*
X169208942Y-87653019D01*
X170066085Y-87653019D02*
X169494657Y-87653019D01*
X169780371Y-87653019D02*
X169780371Y-86653019D01*
X169780371Y-86653019D02*
X169685133Y-86795876D01*
X169685133Y-86795876D02*
X169589895Y-86891114D01*
X169589895Y-86891114D02*
X169494657Y-86938733D01*
X168089895Y-127293019D02*
X168089895Y-128102542D01*
X168089895Y-128102542D02*
X168137514Y-128197780D01*
X168137514Y-128197780D02*
X168185133Y-128245400D01*
X168185133Y-128245400D02*
X168280371Y-128293019D01*
X168280371Y-128293019D02*
X168470847Y-128293019D01*
X168470847Y-128293019D02*
X168566085Y-128245400D01*
X168566085Y-128245400D02*
X168613704Y-128197780D01*
X168613704Y-128197780D02*
X168661323Y-128102542D01*
X168661323Y-128102542D02*
X168661323Y-127293019D01*
X169089895Y-128245400D02*
X169232752Y-128293019D01*
X169232752Y-128293019D02*
X169470847Y-128293019D01*
X169470847Y-128293019D02*
X169566085Y-128245400D01*
X169566085Y-128245400D02*
X169613704Y-128197780D01*
X169613704Y-128197780D02*
X169661323Y-128102542D01*
X169661323Y-128102542D02*
X169661323Y-128007304D01*
X169661323Y-128007304D02*
X169613704Y-127912066D01*
X169613704Y-127912066D02*
X169566085Y-127864447D01*
X169566085Y-127864447D02*
X169470847Y-127816828D01*
X169470847Y-127816828D02*
X169280371Y-127769209D01*
X169280371Y-127769209D02*
X169185133Y-127721590D01*
X169185133Y-127721590D02*
X169137514Y-127673971D01*
X169137514Y-127673971D02*
X169089895Y-127578733D01*
X169089895Y-127578733D02*
X169089895Y-127483495D01*
X169089895Y-127483495D02*
X169137514Y-127388257D01*
X169137514Y-127388257D02*
X169185133Y-127340638D01*
X169185133Y-127340638D02*
X169280371Y-127293019D01*
X169280371Y-127293019D02*
X169518466Y-127293019D01*
X169518466Y-127293019D02*
X169661323Y-127340638D01*
X170423228Y-127769209D02*
X170566085Y-127816828D01*
X170566085Y-127816828D02*
X170613704Y-127864447D01*
X170613704Y-127864447D02*
X170661323Y-127959685D01*
X170661323Y-127959685D02*
X170661323Y-128102542D01*
X170661323Y-128102542D02*
X170613704Y-128197780D01*
X170613704Y-128197780D02*
X170566085Y-128245400D01*
X170566085Y-128245400D02*
X170470847Y-128293019D01*
X170470847Y-128293019D02*
X170089895Y-128293019D01*
X170089895Y-128293019D02*
X170089895Y-127293019D01*
X170089895Y-127293019D02*
X170423228Y-127293019D01*
X170423228Y-127293019D02*
X170518466Y-127340638D01*
X170518466Y-127340638D02*
X170566085Y-127388257D01*
X170566085Y-127388257D02*
X170613704Y-127483495D01*
X170613704Y-127483495D02*
X170613704Y-127578733D01*
X170613704Y-127578733D02*
X170566085Y-127673971D01*
X170566085Y-127673971D02*
X170518466Y-127721590D01*
X170518466Y-127721590D02*
X170423228Y-127769209D01*
X170423228Y-127769209D02*
X170089895Y-127769209D01*
D13*
%TO.C,Q2*%
X204811000Y-83477600D02*
X204811000Y-99367600D01*
X204811000Y-83477600D02*
X215051000Y-83477600D01*
X204811000Y-99367600D02*
X215051000Y-99367600D01*
X207391000Y-99367600D02*
X207391000Y-101907600D01*
X209931000Y-99367600D02*
X209931000Y-101907600D01*
X212471000Y-99367600D02*
X212471000Y-101907600D01*
X215051000Y-83477600D02*
X215051000Y-99367600D01*
%TO.C,J2*%
X194634800Y-131297400D02*
X194634800Y-125327400D01*
X194634800Y-125327400D02*
X182014800Y-125327400D01*
X194624800Y-127587400D02*
X193874800Y-127587400D01*
X194624800Y-126087400D02*
X194624800Y-125337400D01*
X194624800Y-125337400D02*
X192824800Y-125337400D01*
X193874800Y-130537400D02*
X188324800Y-130537400D01*
X193874800Y-127587400D02*
X193874800Y-130537400D01*
X192824800Y-126087400D02*
X194624800Y-126087400D01*
X192824800Y-125337400D02*
X192824800Y-126087400D01*
X191324800Y-126087400D02*
X191324800Y-125337400D01*
X191324800Y-125337400D02*
X185324800Y-125337400D01*
X185324800Y-126087400D02*
X191324800Y-126087400D01*
X185324800Y-125337400D02*
X185324800Y-126087400D01*
X183824800Y-126087400D02*
X183824800Y-125337400D01*
X183824800Y-125337400D02*
X182024800Y-125337400D01*
X182974800Y-125037400D02*
X181724800Y-125037400D01*
X182774800Y-130537400D02*
X188324800Y-130537400D01*
X182774800Y-127587400D02*
X182774800Y-130537400D01*
X182024800Y-127587400D02*
X182774800Y-127587400D01*
X182024800Y-126087400D02*
X183824800Y-126087400D01*
X182024800Y-125337400D02*
X182024800Y-126087400D01*
X182014800Y-131297400D02*
X194634800Y-131297400D01*
X182014800Y-125327400D02*
X182014800Y-131297400D01*
X181724800Y-125037400D02*
X181724800Y-126287400D01*
%TO.C,J1*%
X205641600Y-129845800D02*
X205641600Y-131585800D01*
X205641600Y-131585800D02*
X207141600Y-131585800D01*
X205881600Y-124225800D02*
X205881600Y-131345800D01*
X205881600Y-124225800D02*
X220701600Y-124225800D01*
X205881600Y-129785800D02*
X220701600Y-129785800D01*
X205881600Y-131345800D02*
X220701600Y-131345800D01*
X220701600Y-124225800D02*
X220701600Y-131345800D01*
X206609491Y-128293542D02*
G75*
G02*
X206609600Y-127077800I1432109J607742D01*
G01*
X207433858Y-126253691D02*
G75*
G02*
X208649600Y-126253800I607742J-1432109D01*
G01*
X208068611Y-129241293D02*
G75*
G02*
X207433600Y-129117800I-27013J1555481D01*
G01*
X208649187Y-129117185D02*
G75*
G02*
X208041600Y-129240800I-607587J1431385D01*
G01*
X209473709Y-127078058D02*
G75*
G02*
X209473600Y-128293800I-1432112J-607743D01*
G01*
X213096600Y-127685800D02*
G75*
G02*
X209986600Y-127685800I-1555000J0D01*
G01*
X209986600Y-127685800D02*
G75*
G02*
X213096600Y-127685800I1555000J0D01*
G01*
X216596600Y-127685800D02*
G75*
G02*
X213486600Y-127685800I-1555000J0D01*
G01*
X213486600Y-127685800D02*
G75*
G02*
X216596600Y-127685800I1555000J0D01*
G01*
X220096600Y-127685800D02*
G75*
G02*
X216986600Y-127685800I-1555000J0D01*
G01*
X216986600Y-127685800D02*
G75*
G02*
X220096600Y-127685800I1555000J0D01*
G01*
%TO.C,D2*%
X205429000Y-114274600D02*
X206449000Y-114274600D01*
X206449000Y-112804600D02*
X206449000Y-115744600D01*
X206449000Y-115744600D02*
X211889000Y-115744600D01*
X210869000Y-115744600D02*
X210869000Y-112804600D01*
X210989000Y-115744600D02*
X210989000Y-112804600D01*
X211109000Y-115744600D02*
X211109000Y-112804600D01*
X211889000Y-112804600D02*
X206449000Y-112804600D01*
X211889000Y-115744600D02*
X211889000Y-112804600D01*
X212909000Y-114274600D02*
X211889000Y-114274600D01*
%TO.C,C1*%
X220665000Y-115178641D02*
X220665000Y-114548641D01*
X220350000Y-114863641D02*
X220980000Y-114863641D01*
X219274000Y-111678400D02*
X225734000Y-111678400D01*
X219274000Y-111638400D02*
X225734000Y-111638400D01*
X219274000Y-111598400D02*
X225734000Y-111598400D01*
X219276000Y-111558400D02*
X225732000Y-111558400D01*
X219277000Y-111518400D02*
X225731000Y-111518400D01*
X219280000Y-111478400D02*
X225728000Y-111478400D01*
X219282000Y-111438400D02*
X221464000Y-111438400D01*
X223544000Y-111438400D02*
X225726000Y-111438400D01*
X219286000Y-111398400D02*
X221464000Y-111398400D01*
X223544000Y-111398400D02*
X225722000Y-111398400D01*
X219289000Y-111358400D02*
X221464000Y-111358400D01*
X223544000Y-111358400D02*
X225719000Y-111358400D01*
X219293000Y-111318400D02*
X221464000Y-111318400D01*
X223544000Y-111318400D02*
X225715000Y-111318400D01*
X219298000Y-111278400D02*
X221464000Y-111278400D01*
X223544000Y-111278400D02*
X225710000Y-111278400D01*
X219303000Y-111238400D02*
X221464000Y-111238400D01*
X223544000Y-111238400D02*
X225705000Y-111238400D01*
X219309000Y-111198400D02*
X221464000Y-111198400D01*
X223544000Y-111198400D02*
X225699000Y-111198400D01*
X219315000Y-111158400D02*
X221464000Y-111158400D01*
X223544000Y-111158400D02*
X225693000Y-111158400D01*
X219322000Y-111118400D02*
X221464000Y-111118400D01*
X223544000Y-111118400D02*
X225686000Y-111118400D01*
X219329000Y-111078400D02*
X221464000Y-111078400D01*
X223544000Y-111078400D02*
X225679000Y-111078400D01*
X219337000Y-111038400D02*
X221464000Y-111038400D01*
X223544000Y-111038400D02*
X225671000Y-111038400D01*
X219345000Y-110998400D02*
X221464000Y-110998400D01*
X223544000Y-110998400D02*
X225663000Y-110998400D01*
X219354000Y-110957400D02*
X221464000Y-110957400D01*
X223544000Y-110957400D02*
X225654000Y-110957400D01*
X219363000Y-110917400D02*
X221464000Y-110917400D01*
X223544000Y-110917400D02*
X225645000Y-110917400D01*
X219373000Y-110877400D02*
X221464000Y-110877400D01*
X223544000Y-110877400D02*
X225635000Y-110877400D01*
X219383000Y-110837400D02*
X221464000Y-110837400D01*
X223544000Y-110837400D02*
X225625000Y-110837400D01*
X219394000Y-110797400D02*
X221464000Y-110797400D01*
X223544000Y-110797400D02*
X225614000Y-110797400D01*
X219406000Y-110757400D02*
X221464000Y-110757400D01*
X223544000Y-110757400D02*
X225602000Y-110757400D01*
X219418000Y-110717400D02*
X221464000Y-110717400D01*
X223544000Y-110717400D02*
X225590000Y-110717400D01*
X219430000Y-110677400D02*
X221464000Y-110677400D01*
X223544000Y-110677400D02*
X225578000Y-110677400D01*
X219443000Y-110637400D02*
X221464000Y-110637400D01*
X223544000Y-110637400D02*
X225565000Y-110637400D01*
X219457000Y-110597400D02*
X221464000Y-110597400D01*
X223544000Y-110597400D02*
X225551000Y-110597400D01*
X219471000Y-110557400D02*
X221464000Y-110557400D01*
X223544000Y-110557400D02*
X225537000Y-110557400D01*
X219486000Y-110517400D02*
X221464000Y-110517400D01*
X223544000Y-110517400D02*
X225522000Y-110517400D01*
X219502000Y-110477400D02*
X221464000Y-110477400D01*
X223544000Y-110477400D02*
X225506000Y-110477400D01*
X219518000Y-110437400D02*
X221464000Y-110437400D01*
X223544000Y-110437400D02*
X225490000Y-110437400D01*
X219534000Y-110397400D02*
X221464000Y-110397400D01*
X223544000Y-110397400D02*
X225474000Y-110397400D01*
X219552000Y-110357400D02*
X221464000Y-110357400D01*
X223544000Y-110357400D02*
X225456000Y-110357400D01*
X219570000Y-110317400D02*
X221464000Y-110317400D01*
X223544000Y-110317400D02*
X225438000Y-110317400D01*
X219588000Y-110277400D02*
X221464000Y-110277400D01*
X223544000Y-110277400D02*
X225420000Y-110277400D01*
X219608000Y-110237400D02*
X221464000Y-110237400D01*
X223544000Y-110237400D02*
X225400000Y-110237400D01*
X219628000Y-110197400D02*
X221464000Y-110197400D01*
X223544000Y-110197400D02*
X225380000Y-110197400D01*
X219648000Y-110157400D02*
X221464000Y-110157400D01*
X223544000Y-110157400D02*
X225360000Y-110157400D01*
X219670000Y-110117400D02*
X221464000Y-110117400D01*
X223544000Y-110117400D02*
X225338000Y-110117400D01*
X219692000Y-110077400D02*
X221464000Y-110077400D01*
X223544000Y-110077400D02*
X225316000Y-110077400D01*
X219714000Y-110037400D02*
X221464000Y-110037400D01*
X223544000Y-110037400D02*
X225294000Y-110037400D01*
X219738000Y-109997400D02*
X221464000Y-109997400D01*
X223544000Y-109997400D02*
X225270000Y-109997400D01*
X219762000Y-109957400D02*
X221464000Y-109957400D01*
X223544000Y-109957400D02*
X225246000Y-109957400D01*
X219788000Y-109917400D02*
X221464000Y-109917400D01*
X223544000Y-109917400D02*
X225220000Y-109917400D01*
X219814000Y-109877400D02*
X221464000Y-109877400D01*
X223544000Y-109877400D02*
X225194000Y-109877400D01*
X219840000Y-109837400D02*
X221464000Y-109837400D01*
X223544000Y-109837400D02*
X225168000Y-109837400D01*
X219868000Y-109797400D02*
X221464000Y-109797400D01*
X223544000Y-109797400D02*
X225140000Y-109797400D01*
X219897000Y-109757400D02*
X221464000Y-109757400D01*
X223544000Y-109757400D02*
X225111000Y-109757400D01*
X219926000Y-109717400D02*
X221464000Y-109717400D01*
X223544000Y-109717400D02*
X225082000Y-109717400D01*
X219956000Y-109677400D02*
X221464000Y-109677400D01*
X223544000Y-109677400D02*
X225052000Y-109677400D01*
X219988000Y-109637400D02*
X221464000Y-109637400D01*
X223544000Y-109637400D02*
X225020000Y-109637400D01*
X220020000Y-109597400D02*
X221464000Y-109597400D01*
X223544000Y-109597400D02*
X224988000Y-109597400D01*
X220054000Y-109557400D02*
X221464000Y-109557400D01*
X223544000Y-109557400D02*
X224954000Y-109557400D01*
X220088000Y-109517400D02*
X221464000Y-109517400D01*
X223544000Y-109517400D02*
X224920000Y-109517400D01*
X220124000Y-109477400D02*
X221464000Y-109477400D01*
X223544000Y-109477400D02*
X224884000Y-109477400D01*
X220161000Y-109437400D02*
X221464000Y-109437400D01*
X223544000Y-109437400D02*
X224847000Y-109437400D01*
X220199000Y-109397400D02*
X221464000Y-109397400D01*
X223544000Y-109397400D02*
X224809000Y-109397400D01*
X220239000Y-109357400D02*
X224769000Y-109357400D01*
X220280000Y-109317400D02*
X224728000Y-109317400D01*
X220322000Y-109277400D02*
X224686000Y-109277400D01*
X220367000Y-109237400D02*
X224641000Y-109237400D01*
X220412000Y-109197400D02*
X224596000Y-109197400D01*
X220460000Y-109157400D02*
X224548000Y-109157400D01*
X220509000Y-109117400D02*
X224499000Y-109117400D01*
X220560000Y-109077400D02*
X224448000Y-109077400D01*
X220614000Y-109037400D02*
X224394000Y-109037400D01*
X220670000Y-108997400D02*
X224338000Y-108997400D01*
X220728000Y-108957400D02*
X224280000Y-108957400D01*
X220790000Y-108917400D02*
X224218000Y-108917400D01*
X220854000Y-108877400D02*
X224154000Y-108877400D01*
X220923000Y-108837400D02*
X224085000Y-108837400D01*
X220995000Y-108797400D02*
X224013000Y-108797400D01*
X221072000Y-108757400D02*
X223936000Y-108757400D01*
X221154000Y-108717400D02*
X223854000Y-108717400D01*
X221242000Y-108677400D02*
X223766000Y-108677400D01*
X221339000Y-108637400D02*
X223669000Y-108637400D01*
X221445000Y-108597400D02*
X223563000Y-108597400D01*
X221564000Y-108557400D02*
X223444000Y-108557400D01*
X221702000Y-108517400D02*
X223306000Y-108517400D01*
X221871000Y-108477400D02*
X223137000Y-108477400D01*
X222102000Y-108437400D02*
X222906000Y-108437400D01*
X225774000Y-111678400D02*
G75*
G02*
X219234000Y-111678400I-3270000J0D01*
G01*
X219234000Y-111678400D02*
G75*
G02*
X225774000Y-111678400I3270000J0D01*
G01*
%TO.C,U1*%
X192714200Y-107761000D02*
X192714200Y-102561000D01*
X192714200Y-102561000D02*
X188214200Y-102561000D01*
X191464200Y-107761000D02*
X192714200Y-107761000D01*
X188214200Y-107761000D02*
X189464200Y-107761000D01*
X188214200Y-102561000D02*
X188214200Y-107761000D01*
X189464200Y-107761000D02*
G75*
G02*
X191464200Y-107761000I1000000J0D01*
G01*
%TO.C,R2*%
X187179200Y-97867800D02*
X193719200Y-97867800D01*
X187179200Y-98197800D02*
X187179200Y-97867800D01*
X187179200Y-100277800D02*
X187179200Y-100607800D01*
X187179200Y-100607800D02*
X193719200Y-100607800D01*
X193719200Y-97867800D02*
X193719200Y-98197800D01*
X193719200Y-100607800D02*
X193719200Y-100277800D01*
%TO.C,R1*%
X193312800Y-112164800D02*
X186772800Y-112164800D01*
X193312800Y-111834800D02*
X193312800Y-112164800D01*
X193312800Y-109754800D02*
X193312800Y-109424800D01*
X193312800Y-109424800D02*
X186772800Y-109424800D01*
X186772800Y-112164800D02*
X186772800Y-111834800D01*
X186772800Y-109424800D02*
X186772800Y-109754800D01*
%TO.C,D1*%
X205530600Y-109372400D02*
X206550600Y-109372400D01*
X206550600Y-107902400D02*
X206550600Y-110842400D01*
X206550600Y-110842400D02*
X211990600Y-110842400D01*
X207330600Y-107902400D02*
X207330600Y-110842400D01*
X207450600Y-107902400D02*
X207450600Y-110842400D01*
X207570600Y-107902400D02*
X207570600Y-110842400D01*
X211990600Y-107902400D02*
X206550600Y-107902400D01*
X211990600Y-110842400D02*
X211990600Y-107902400D01*
X213010600Y-109372400D02*
X211990600Y-109372400D01*
%TO.C,A1*%
X160331800Y-88338200D02*
X160331800Y-91008200D01*
X160331800Y-93548200D02*
X160331800Y-131778200D01*
X160331800Y-131778200D02*
X165411800Y-131778200D01*
X163001800Y-91008200D02*
X160331800Y-91008200D01*
X163001800Y-93548200D02*
X160331800Y-93548200D01*
X163001800Y-93548200D02*
X163001800Y-91008200D01*
X163001800Y-93548200D02*
X163001800Y-129108200D01*
X163001800Y-129108200D02*
X160331800Y-129108200D01*
X165411800Y-123898200D02*
X173291800Y-123898200D01*
X165411800Y-134318200D02*
X165411800Y-123898200D01*
X173291800Y-123898200D02*
X173291800Y-134318200D01*
X173291800Y-134318200D02*
X165411800Y-134318200D01*
X175701800Y-91008200D02*
X175701800Y-129108200D01*
X175701800Y-91008200D02*
X178371800Y-91008200D01*
X175701800Y-129108200D02*
X178371800Y-129108200D01*
X178371800Y-88338200D02*
X160331800Y-88338200D01*
X178371800Y-131778200D02*
X173291800Y-131778200D01*
X178371800Y-131778200D02*
X178371800Y-88338200D01*
%TD*%
M02*
