%TF.GenerationSoftware,KiCad,Pcbnew,8.0.7*%
%TF.CreationDate,2025-07-22T20:12:13+09:00*%
%TF.ProjectId,Arduino magnetic gate,41726475-696e-46f2-906d-61676e657469,rev?*%
%TF.SameCoordinates,Original*%
%TF.FileFunction,Plated,1,2,PTH,Drill*%
%TF.FilePolarity,Positive*%
%FSLAX46Y46*%
G04 Gerber Fmt 4.6, Leading zero omitted, Abs format (unit mm)*
G04 Created by KiCad (PCBNEW 8.0.7) date 2025-07-22 20:12:13*
%MOMM*%
%LPD*%
G01*
G04 APERTURE LIST*
%TA.AperFunction,ComponentDrill*%
%ADD10C,0.800000*%
%TD*%
%TA.AperFunction,ComponentDrill*%
%ADD11C,0.950000*%
%TD*%
%TA.AperFunction,ComponentDrill*%
%ADD12C,1.000000*%
%TD*%
%TA.AperFunction,ComponentDrill*%
%ADD13C,1.100000*%
%TD*%
%TA.AperFunction,ComponentDrill*%
%ADD14C,1.200000*%
%TD*%
%TA.AperFunction,ViaDrill*%
%ADD15C,3.000000*%
%TD*%
G04 APERTURE END LIST*
D10*
%TO.C,R1*%
X186232800Y-110794800D03*
%TO.C,R2*%
X186639200Y-99237800D03*
%TO.C,U1*%
X186654200Y-103891000D03*
X186654200Y-106431000D03*
%TO.C,R1*%
X193852800Y-110794800D03*
%TO.C,R2*%
X194259200Y-99237800D03*
%TO.C,U1*%
X194274200Y-103891000D03*
X194274200Y-106431000D03*
%TO.C,C1*%
X222504000Y-110428400D03*
X222504000Y-112928400D03*
D11*
%TO.C,J2*%
X184574800Y-127787400D03*
X187074800Y-127787400D03*
X189574800Y-127787400D03*
X192074800Y-127787400D03*
D12*
%TO.C,A1*%
X161731800Y-92278200D03*
X161731800Y-94818200D03*
X161731800Y-97358200D03*
X161731800Y-99898200D03*
X161731800Y-102438200D03*
X161731800Y-104978200D03*
X161731800Y-107518200D03*
X161731800Y-110058200D03*
X161731800Y-112598200D03*
X161731800Y-115138200D03*
X161731800Y-117678200D03*
X161731800Y-120218200D03*
X161731800Y-122758200D03*
X161731800Y-125298200D03*
X161731800Y-127838200D03*
X176971800Y-92278200D03*
X176971800Y-94818200D03*
X176971800Y-97358200D03*
X176971800Y-99898200D03*
X176971800Y-102438200D03*
X176971800Y-104978200D03*
X176971800Y-107518200D03*
X176971800Y-110058200D03*
X176971800Y-112598200D03*
X176971800Y-115138200D03*
X176971800Y-117678200D03*
X176971800Y-120218200D03*
X176971800Y-122758200D03*
X176971800Y-125298200D03*
X176971800Y-127838200D03*
D13*
%TO.C,D2*%
X204089000Y-114274600D03*
%TO.C,D1*%
X204190600Y-109372400D03*
%TO.C,Q2*%
X207391000Y-103057600D03*
X209931000Y-103057600D03*
X212471000Y-103057600D03*
%TO.C,D2*%
X214249000Y-114274600D03*
%TO.C,D1*%
X214350600Y-109372400D03*
D14*
%TO.C,J1*%
X208041600Y-127685800D03*
X211541600Y-127685800D03*
X215041600Y-127685800D03*
X218541600Y-127685800D03*
%TD*%
D15*
X181356000Y-85293200D03*
X223824800Y-86131400D03*
X224003800Y-127877500D03*
M02*
